<svg width="29" height="30" viewBox="0 0 29 30" fill="none" xmlns="http://www.w3.org/2000/svg">
<g clip-path="url(#clip0_598_3152)">
<g clip-path="url(#clip1_598_3152)">
<g clip-path="url(#clip2_598_3152)">
<path d="M14.5 0.466072C6.48992 0.466072 0 6.93281 0 14.9143C0 22.8958 6.48992 29.3625 14.5 29.3625C22.5101 29.3625 29 22.8958 29 14.9143C29 6.93281 22.5101 0.466072 14.5 0.466072ZM14.5 6.05893C17.3415 6.05893 19.6452 8.35433 19.6452 11.1857C19.6452 14.0171 17.3415 16.3125 14.5 16.3125C11.6585 16.3125 9.35484 14.0171 9.35484 11.1857C9.35484 8.35433 11.6585 6.05893 14.5 6.05893ZM14.5 26.1C11.0679 26.1 7.99254 24.5503 5.93448 22.1267C7.03367 20.0644 9.18528 18.6429 11.6935 18.6429C11.8339 18.6429 11.9742 18.6662 12.1087 18.7069C12.8688 18.9516 13.6639 19.1089 14.5 19.1089C15.3361 19.1089 16.1371 18.9516 16.8913 18.7069C17.0258 18.6662 17.1661 18.6429 17.3065 18.6429C19.8147 18.6429 21.9663 20.0644 23.0655 22.1267C21.0075 24.5503 17.9321 26.1 14.5 26.1Z" fill="#9F9F9F"/>
</g>
</g>
</g>
<defs>
<clipPath id="clip0_598_3152">
<rect width="29" height="29.8286" fill="white"/>
</clipPath>
<clipPath id="clip1_598_3152">
<rect width="29" height="29.8286" fill="white"/>
</clipPath>
<clipPath id="clip2_598_3152">
<rect width="29" height="29.8286" fill="white"/>
</clipPath>
</defs>
</svg>
