<svg width="127" height="37" viewBox="0 0 127 37" fill="none" xmlns="http://www.w3.org/2000/svg">
<path d="M23.0982 9.17467L23.0107 9.15026C22.6896 9.06062 22.4914 8.73654 22.5935 8.41602L23.0982 9.17467ZM23.0982 9.17467L23.1036 9.16892M23.0982 9.17467L23.1036 9.16892M23.1036 9.16892C23.3944 9.20565 23.6854 9.04106 23.7756 8.75636C24.515 6.43092 26.8495 4.79689 29.4603 4.79689C29.7918 4.79689 30.0779 4.54289 30.0779 4.20919C30.0779 3.87547 29.7918 3.62148 29.4603 3.62148C26.2122 3.62148 23.4742 5.64607 22.5935 8.41593L23.1036 9.16892Z" fill="#131313" stroke="#F9FFF9" stroke-width="0.3"/>
<path d="M36.0076 25.6569H33.2019C32.9437 25.6569 32.7343 25.4608 32.7343 25.2192C32.7343 24.9775 32.9437 24.7815 33.2019 24.7815H36.0076C39.8752 24.7815 43.022 21.836 43.022 18.216C43.022 14.5959 39.8752 11.6505 36.0076 11.6505H35.9401C35.8045 11.6505 35.6756 11.5955 35.5868 11.4995C35.4979 11.4035 35.4578 11.2763 35.4772 11.1506C35.519 10.878 35.54 10.6041 35.54 10.3374C35.54 7.20005 32.8127 4.64728 29.4608 4.64728C28.1568 4.64728 26.9132 5.02871 25.8644 5.75059C25.6339 5.9091 25.3066 5.83876 25.1733 5.60146C22.2029 0.307195 14.4445 -0.403771 10.4221 4.20178C8.72765 6.14202 8.06188 8.66598 8.59537 11.1259C8.65415 11.3976 8.43203 11.6508 8.13709 11.6508H7.9497C4.08212 11.6508 0.9353 14.5963 0.9353 18.2163C0.9353 21.8364 4.08212 24.7818 7.9497 24.7818H10.7554C11.0136 24.7818 11.2231 24.9778 11.2231 25.2195C11.2231 25.4612 11.0136 25.6572 10.7554 25.6572H7.9497C3.56633 25.6572 0 22.3191 0 18.2163C0 14.2285 3.36889 10.9633 7.58261 10.7832C7.1868 8.23108 7.94369 5.65678 9.69794 3.64778C14.0044 -1.28352 22.2575 -0.730785 25.7463 4.76797C26.8593 4.11486 28.1329 3.77224 29.4606 3.77224C33.5217 3.77224 36.7396 7.00748 36.458 10.7873C40.6329 11.0064 43.9571 14.2545 43.9571 18.216C43.9571 22.3191 40.3908 25.6569 36.0074 25.6569L36.0076 25.6569Z" fill="#131313"/>
<path d="M10.0746 24.9719C10.0746 31.0977 15.3958 36.0645 21.9154 36.0645C28.4351 36.0645 33.7562 31.0977 33.7562 24.9719C33.7562 18.8461 28.4351 13.8793 21.9154 13.8793C15.3957 13.8793 10.0746 18.8461 10.0746 24.9719ZM11.3101 24.9719C11.3101 19.5131 16.0583 15.0549 21.9154 15.0549C27.7725 15.0549 32.5208 19.513 32.5208 24.9719C32.5208 30.4307 27.7725 34.8889 21.9154 34.8889C16.0584 34.8889 11.3101 30.4308 11.3101 24.9719Z" fill="#131313" stroke="#F9FFF9" stroke-width="0.3"/>
<path d="M21.6371 29.3767C21.6371 29.6457 21.8671 29.8472 22.1295 29.8472C22.3918 29.8472 22.6218 29.646 22.6218 29.3767V21.0451C22.6218 20.7761 22.3918 20.5746 22.1295 20.5746C21.8671 20.5746 21.6371 20.7761 21.6371 21.0451V29.3767Z" fill="#131313" stroke="#848484" stroke-width="0.3"/>
<path d="M24.5243 23.9467C24.6209 24.0372 24.7462 24.081 24.8689 24.081L19.6333 23.8372L19.7358 23.9467L19.7359 23.9466L22.1301 21.7057L24.5243 23.9467ZM22.4747 20.711C22.2833 20.5318 21.9768 20.5317 21.7855 20.711L25.2135 23.9467C25.2136 23.9467 25.2136 23.9466 25.2137 23.9465C25.4106 23.762 25.4105 23.4589 25.2135 23.2745L22.4747 20.711Z" fill="#131313" stroke="#848484" stroke-width="0.3"/>
<path d="M71.9163 12.243V20.903C71.9163 22.783 71.4363 24.2496 70.4763 25.303C69.5163 26.343 68.1897 26.863 66.4963 26.863C64.803 26.863 63.4763 26.343 62.5163 25.303C61.5563 24.2496 61.0763 22.783 61.0763 20.903V12.243H62.6763V20.903C62.6763 22.3563 63.0097 23.4696 63.6763 24.243C64.343 25.0163 65.283 25.403 66.4963 25.403C67.7097 25.403 68.6497 25.0163 69.3163 24.243C69.9963 23.4696 70.3363 22.3563 70.3363 20.903V12.243H71.9163ZM76.988 30.423H75.448V16.703H76.968V19.683H76.608C76.7147 19.0296 76.9547 18.4563 77.328 17.963C77.7014 17.4696 78.168 17.083 78.728 16.803C79.3014 16.523 79.9214 16.383 80.588 16.383C81.4947 16.383 82.2947 16.6096 82.988 17.063C83.6814 17.5163 84.228 18.143 84.628 18.943C85.028 19.7296 85.228 20.623 85.228 21.623C85.228 22.6363 85.0214 23.5363 84.608 24.323C84.1947 25.1096 83.628 25.7296 82.908 26.183C82.2014 26.6363 81.388 26.863 80.468 26.863C79.6414 26.863 78.9147 26.683 78.288 26.323C77.6614 25.9496 77.188 25.4496 76.868 24.823C76.548 24.183 76.428 23.4696 76.508 22.683L76.808 22.283C76.8614 22.9096 77.0414 23.4696 77.348 23.963C77.668 24.443 78.0814 24.823 78.588 25.103C79.0947 25.383 79.648 25.523 80.248 25.523C80.9147 25.523 81.4947 25.3563 81.988 25.023C82.4947 24.6896 82.888 24.2296 83.168 23.643C83.4614 23.0563 83.608 22.383 83.608 21.623C83.608 20.863 83.468 20.1896 83.188 19.603C82.9214 19.0163 82.5414 18.5563 82.048 18.223C81.568 17.8896 81.008 17.723 80.368 17.723C79.7147 17.723 79.1347 17.903 78.628 18.263C78.1214 18.6096 77.7214 19.0963 77.428 19.723C77.1347 20.3496 76.988 21.0763 76.988 21.903V30.423ZM89.5466 26.543H88.0066V12.143H89.5466V26.543ZM97.248 26.863C96.3014 26.863 95.4547 26.6363 94.708 26.183C93.9614 25.7296 93.3747 25.1096 92.948 24.323C92.5347 23.5363 92.328 22.6363 92.328 21.623C92.328 20.6096 92.5347 19.7096 92.948 18.923C93.3747 18.1363 93.9614 17.5163 94.708 17.063C95.4547 16.6096 96.3014 16.383 97.248 16.383C98.208 16.383 99.0614 16.6096 99.808 17.063C100.555 17.5163 101.135 18.1363 101.548 18.923C101.975 19.7096 102.188 20.6096 102.188 21.623C102.188 22.6363 101.975 23.5363 101.548 24.323C101.135 25.1096 100.555 25.7296 99.808 26.183C99.0614 26.6363 98.208 26.863 97.248 26.863ZM97.248 25.523C97.9147 25.523 98.4947 25.3563 98.988 25.023C99.4814 24.6896 99.868 24.2296 100.148 23.643C100.428 23.0563 100.568 22.383 100.568 21.623C100.568 20.8496 100.428 20.1763 100.148 19.603C99.868 19.0163 99.4814 18.5563 98.988 18.223C98.4947 17.8896 97.9147 17.723 97.248 17.723C96.5947 17.723 96.0214 17.8896 95.528 18.223C95.0347 18.5563 94.648 19.0163 94.368 19.603C94.088 20.1763 93.948 20.8496 93.948 21.623C93.948 22.383 94.088 23.0563 94.368 23.643C94.648 24.2296 95.0347 24.6896 95.528 25.023C96.0214 25.3563 96.5947 25.523 97.248 25.523ZM112.6 26.543H111.14V24.623L111.12 24.063V20.403C111.12 19.5763 110.866 18.923 110.36 18.443C109.866 17.9496 109.186 17.703 108.32 17.703C107.186 17.703 106.226 18.1763 105.44 19.123L104.44 18.143C105.56 16.9696 106.886 16.383 108.42 16.383C109.26 16.383 109.993 16.5496 110.62 16.883C111.246 17.203 111.733 17.663 112.08 18.263C112.426 18.8496 112.6 19.543 112.6 20.343V26.543ZM107.66 26.863C106.966 26.863 106.353 26.7296 105.82 26.463C105.286 26.1963 104.866 25.8296 104.56 25.363C104.266 24.883 104.12 24.343 104.12 23.743C104.12 22.743 104.5 21.9496 105.26 21.363C106.033 20.7763 107.066 20.483 108.36 20.483H111.3V21.723H108.54C107.646 21.723 106.953 21.8963 106.46 22.243C105.966 22.5763 105.72 23.0563 105.72 23.683C105.72 24.2563 105.913 24.7163 106.3 25.063C106.7 25.4096 107.226 25.583 107.88 25.583C108.52 25.583 109.093 25.4496 109.6 25.183C110.106 24.903 110.513 24.523 110.82 24.043C111.126 23.5496 111.3 22.9896 111.34 22.363L111.92 22.703C111.92 23.503 111.733 24.2163 111.36 24.843C111 25.4696 110.5 25.963 109.86 26.323C109.22 26.683 108.486 26.863 107.66 26.863ZM123.459 26.543V23.883L123.439 23.843V21.903C123.439 21.0763 123.299 20.3496 123.019 19.723C122.739 19.0963 122.346 18.6096 121.839 18.263C121.346 17.903 120.772 17.723 120.119 17.723C119.479 17.723 118.906 17.8896 118.399 18.223C117.906 18.5563 117.519 19.0163 117.239 19.603C116.959 20.1896 116.819 20.863 116.819 21.623C116.819 22.383 116.959 23.0563 117.239 23.643C117.532 24.2296 117.932 24.6896 118.439 25.023C118.946 25.3563 119.526 25.523 120.179 25.523C120.792 25.523 121.346 25.383 121.839 25.103C122.346 24.823 122.752 24.443 123.059 23.963C123.379 23.4696 123.566 22.9096 123.619 22.283L123.919 22.683C124.012 23.4696 123.886 24.183 123.539 24.823C123.206 25.4496 122.726 25.9496 122.099 26.323C121.472 26.683 120.759 26.863 119.959 26.863C119.039 26.863 118.219 26.6363 117.499 26.183C116.792 25.7296 116.232 25.1096 115.819 24.323C115.406 23.5363 115.199 22.6363 115.199 21.623C115.199 20.623 115.399 19.7296 115.799 18.943C116.212 18.143 116.772 17.5163 117.479 17.063C118.199 16.6096 119.006 16.383 119.899 16.383C120.566 16.383 121.179 16.523 121.739 16.803C122.299 17.083 122.766 17.4696 123.139 17.963C123.512 18.4563 123.746 19.0296 123.839 19.683H123.439V12.143H124.979V26.543H123.459Z" fill="#131313"/>
</svg>
