<svg width="15" height="18" viewBox="0 0 15 18" fill="none" xmlns="http://www.w3.org/2000/svg">
<path d="M5.58671 0C4.56109 0 3.71574 0.845345 3.71574 1.87097V9.23789L3.30647 8.80913L3.15055 8.6727C2.43189 7.95404 1.25766 7.95404 0.538999 8.6727C-0.179666 9.39137 -0.179666 10.5656 0.538999 11.2843V11.3037L5.64517 16.3515L5.68415 16.3709L5.70364 16.4099C6.54411 17.0409 7.61602 17.4623 8.82192 17.4623H9.89382C12.7222 17.4623 15 15.1845 15 12.3562V7.48386C15 6.45824 14.1547 5.6129 13.129 5.6129C12.8635 5.6129 12.6174 5.68598 12.3884 5.7883C12.1838 4.97706 11.4457 4.36559 10.5759 4.36559C10.0985 4.36559 9.65995 4.55317 9.32864 4.85282C8.99732 4.55317 8.55881 4.36559 8.08133 4.36559C7.86207 4.36559 7.655 4.41187 7.45767 4.48252V1.87097C7.45767 0.845345 6.61233 0 5.58671 0ZM5.58671 1.24731C5.93264 1.24731 6.21036 1.52503 6.21036 1.87097V8.73117H7.45767V6.23655C7.45767 5.89062 7.73539 5.6129 8.08133 5.6129C8.42726 5.6129 8.70498 5.89062 8.70498 6.23655V8.73117H9.95229V6.23655C9.95229 5.89062 10.23 5.6129 10.5759 5.6129C10.9219 5.6129 11.1996 5.89062 11.1996 6.23655V8.73117H12.5054V7.48386C12.5054 7.13793 12.7831 6.86021 13.129 6.86021C13.475 6.86021 13.7527 7.13793 13.7527 7.48386V12.3562C13.7527 14.517 12.0547 16.215 9.89382 16.215H8.82192C7.90836 16.215 7.11905 15.8886 6.46372 15.3965L1.41601 10.4072C1.13829 10.1295 1.13829 9.82744 1.41601 9.54972C1.69374 9.272 1.99582 9.272 2.27354 9.54972L4.96305 12.2392V1.87097C4.96305 1.52503 5.24077 1.24731 5.58671 1.24731Z" fill="#7D7D7D"/>
</svg>
