<svg viewBox="0 0 28 28" fill="none" xmlns="http://www.w3.org/2000/svg">
<path d="M22.0561 14.876C22.0589 14.9179 22.0468 14.9594 22.0219 14.9932C21.997 15.027 21.9609 15.0509 21.9201 15.0607L20.0332 15.6697C19.9419 15.6989 19.8588 15.749 19.7902 15.8159C19.7217 15.8829 19.6697 15.9649 19.6383 16.0554C19.5743 16.2408 19.499 16.4222 19.413 16.5984C19.3717 16.6847 19.3509 16.7793 19.3523 16.875C19.3538 16.9706 19.3773 17.0646 19.4211 17.1496L20.3224 18.9157C20.3428 18.9518 20.3503 18.9938 20.3437 19.0348C20.3371 19.0757 20.3167 19.1132 20.2859 19.141L19.0557 20.3722C19.0271 20.4032 18.989 20.4236 18.9473 20.4302C18.9057 20.4369 18.8631 20.4293 18.8263 20.4088L17.0643 19.5074C16.979 19.4646 16.8851 19.4416 16.7896 19.4402C16.6942 19.4388 16.5996 19.459 16.5131 19.4993C16.3362 19.5839 16.1549 19.6591 15.9701 19.7247C15.8793 19.7558 15.7971 19.8077 15.73 19.8763C15.6628 19.9448 15.6126 20.0281 15.5834 20.1195L14.9744 22.0013C14.9633 22.0425 14.9383 22.0786 14.9038 22.1035C14.8692 22.1285 14.8271 22.1408 14.7846 22.1383H13.0408C12.9987 22.1411 12.9571 22.1289 12.9232 22.1038C12.8894 22.0787 12.8656 22.0424 12.856 22.0013L12.247 20.1154C12.218 20.0247 12.1685 19.9419 12.1023 19.8735C12.0361 19.805 11.9551 19.7527 11.8654 19.7206C11.6805 19.6554 11.4992 19.5801 11.3224 19.4953C11.2378 19.4558 11.1457 19.4354 11.0524 19.4354C10.9546 19.4357 10.8583 19.459 10.7712 19.5034L9.00105 20.4047C8.96488 20.4249 8.92293 20.4323 8.88202 20.4257C8.84111 20.419 8.80365 20.3988 8.77572 20.3682L7.54451 19.137C7.51342 19.1085 7.49288 19.0703 7.48624 19.0286C7.47961 18.987 7.48727 18.9443 7.50797 18.9076L8.4093 17.1455C8.45323 17.0613 8.47685 16.9679 8.47826 16.8729C8.47967 16.7779 8.45883 16.6839 8.41742 16.5984C8.33157 16.4174 8.25501 16.2321 8.18803 16.0432C8.15667 15.9544 8.10516 15.8741 8.03753 15.8086C7.9699 15.7431 7.888 15.6942 7.79827 15.6656L5.90832 15.0556C5.86804 15.0453 5.83266 15.0211 5.80836 14.9873C5.78406 14.9536 5.77238 14.9124 5.77536 14.8709V13.1271C5.77374 13.0848 5.78638 13.0432 5.81122 13.009C5.83607 12.9748 5.87169 12.9499 5.91238 12.9383L7.79522 12.3293C7.8847 12.3003 7.96635 12.2512 8.03391 12.1857C8.10147 12.1203 8.15315 12.0402 8.18499 11.9517C8.25705 11.7579 8.33419 11.5731 8.41438 11.4006C8.45473 11.3148 8.47497 11.2209 8.47357 11.1261C8.47216 11.0313 8.44914 10.938 8.40626 10.8535L7.50493 9.08738C7.48493 9.05045 7.47767 9.00795 7.48428 8.96648C7.49088 8.92501 7.51099 8.88688 7.54147 8.85799L8.77267 7.62677C8.80074 7.59502 8.83897 7.57403 8.88081 7.56736C8.92266 7.5607 8.96552 7.56878 9.00206 7.59024L10.7682 8.49156C10.8528 8.53437 10.946 8.55736 11.0408 8.55877C11.1356 8.56017 11.2294 8.53996 11.3153 8.49968C11.4878 8.41949 11.6736 8.3383 11.8664 8.27029C11.9551 8.23842 12.0352 8.18662 12.1007 8.11887C12.1662 8.05111 12.2152 7.96922 12.244 7.87952L12.8601 5.99363C12.8705 5.95335 12.8946 5.91797 12.9284 5.89367C12.9621 5.86937 13.0034 5.8577 13.0448 5.86067H14.7866C14.8291 5.85845 14.8711 5.87083 14.9056 5.89575C14.9401 5.92067 14.9651 5.95663 14.9764 5.99769L15.5854 7.87952C15.6156 7.96913 15.6651 8.05099 15.7306 8.11924C15.796 8.18749 15.8757 8.24045 15.964 8.27435C16.1487 8.34235 16.3335 8.41951 16.5152 8.50375C16.601 8.54411 16.6948 8.56434 16.7896 8.56293C16.8844 8.56152 16.9777 8.5385 17.0622 8.49562L18.8284 7.59835C18.8651 7.57783 18.9078 7.57027 18.9494 7.5769C18.991 7.58353 19.0292 7.60396 19.0577 7.6349L20.2879 8.8661C20.3189 8.89443 20.3395 8.93244 20.3461 8.97392C20.3527 9.01539 20.3451 9.05788 20.3245 9.09447L19.4231 10.8606C19.3806 10.9462 19.3584 11.0405 19.3584 11.1362C19.3584 11.2318 19.3806 11.3261 19.4231 11.4117C19.5084 11.5887 19.5837 11.7703 19.6485 11.9558C19.6806 12.0454 19.7329 12.1265 19.8014 12.1927C19.8698 12.2589 19.9526 12.3084 20.0433 12.3374L21.9302 12.9464C21.9696 12.9582 22.004 12.9827 22.0279 13.0161C22.0518 13.0496 22.0639 13.0901 22.0622 13.1312V14.877L22.0561 14.876Z" stroke="currentColor" stroke-miterlimit="10"/>
<path d="M13.9188 17.9646C16.1089 17.9646 17.8844 16.1892 17.8844 13.999C17.8844 11.8088 16.1089 10.0334 13.9188 10.0334C11.7286 10.0334 9.95312 11.8088 9.95312 13.999C9.95312 16.1892 11.7286 17.9646 13.9188 17.9646Z" stroke="currentColor" stroke-miterlimit="10"/>
<path d="M13.9177 14.2101C14.4778 14.2101 14.9317 13.7561 14.9317 13.1961C14.9317 12.6361 14.4778 12.1821 13.9177 12.1821C13.3577 12.1821 12.9037 12.6361 12.9037 13.1961C12.9037 13.7561 13.3577 14.2101 13.9177 14.2101Z" stroke="currentColor" stroke-miterlimit="10"/>
<path d="M13.0631 14.2111L11.8076 15.7854H16.028L14.8099 14.2111" stroke="currentColor" stroke-miterlimit="10"/>
<path d="M20.762 11.3163L22.2652 9.8131C22.5364 9.54245 22.6922 9.17732 22.6999 8.79429C22.7077 8.41127 22.5668 8.04012 22.3069 7.75872L19.204 4.39093" stroke="currentColor" stroke-miterlimit="10"/>
<path d="M18.7705 4.73703C19.2605 4.73703 19.6577 4.33986 19.6577 3.84992C19.6577 3.35997 19.2605 2.9628 18.7705 2.9628C18.2806 2.9628 17.8834 3.35997 17.8834 3.84992C17.8834 4.33986 18.2806 4.73703 18.7705 4.73703Z" stroke="currentColor" stroke-miterlimit="10"/>
<path d="M11.3985 7.33546L9.8811 5.84644C9.60781 5.57817 9.24134 5.42603 8.85841 5.42187C8.47547 5.41771 8.10578 5.56184 7.82673 5.8241L4.48938 8.95947" stroke="currentColor" stroke-miterlimit="10"/>
<path d="M3.95242 10.2851C4.44237 10.2851 4.83954 9.88789 4.83954 9.39795C4.83954 8.90801 4.44237 8.51083 3.95242 8.51083C3.46248 8.51083 3.06531 8.90801 3.06531 9.39795C3.06531 9.88789 3.46248 10.2851 3.95242 10.2851Z" stroke="currentColor" stroke-miterlimit="10"/>
<path d="M7.29179 16.6796L5.78654 18.1859C5.51579 18.457 5.36029 18.8222 5.35254 19.2052C5.34478 19.5883 5.48537 19.9595 5.74492 20.2413L8.8478 23.6081" stroke="currentColor" stroke-miterlimit="10"/>
<path d="M9.28323 25.0362C9.77318 25.0362 10.1704 24.639 10.1704 24.1491C10.1704 23.6591 9.77318 23.2619 9.28323 23.2619C8.79329 23.2619 8.39612 23.6591 8.39612 24.1491C8.39612 24.639 8.79329 25.0362 9.28323 25.0362Z" stroke="currentColor" stroke-miterlimit="10"/>
<path d="M16.9689 20.8878L18.6822 22.1464C18.9911 22.3731 19.3757 22.4715 19.7556 22.4212C20.1354 22.3709 20.4811 22.1757 20.7203 21.8764L23.5786 18.2986" stroke="currentColor" stroke-miterlimit="10"/>
<path d="M24.0475 18.6751C24.5375 18.6751 24.9346 18.278 24.9346 17.788C24.9346 17.2981 24.5375 16.9009 24.0475 16.9009C23.5576 16.9009 23.1604 17.2981 23.1604 17.788C23.1604 18.278 23.5576 18.6751 24.0475 18.6751Z" stroke="currentColor" stroke-miterlimit="10"/>
</svg>
