<svg width="12" height="14" viewBox="0 0 12 14" fill="none" xmlns="http://www.w3.org/2000/svg">
<path d="M10.7535 9.72934C10.7535 11.5339 8.62755 13 6.0004 13C3.37326 13 1.24652 11.5364 1.24652 9.72934C1.24652 7.92231 3.37244 4.67865 6.0004 4.67865C8.62837 4.67865 10.7535 7.92476 10.7535 9.72934Z"  stroke="currentColor" stroke-miterlimit="10"/>
<path d="M8.43215 3.45299C8.43215 4.80785 7.33403 6.89698 5.97917 6.89698C4.6243 6.89698 3.52618 4.80785 3.52618 3.45299C3.52618 2.80241 3.78463 2.17848 4.24465 1.71846C4.70468 1.25844 5.3286 1 5.97917 1C6.62974 1 7.25367 1.25844 7.71369 1.71846C8.17372 2.17848 8.43215 2.80241 8.43215 3.45299Z" fill="#E0E0E0" stroke="currentColor" stroke-miterlimit="10"/>
</svg>
