<svg width="18" height="18" viewBox="0 0 18 18" fill="none" xmlns="http://www.w3.org/2000/svg">
<g clip-path="url(#clip0_1_11869)">
<path d="M16.875 13.6775L15.2324 10.2904L11.2707 11.0969L11.5284 12.3549L13.6864 11.9033C12.7201 13.613 10.8842 14.7098 8.8873 14.7098C5.82749 14.7098 3.34743 12.2259 3.34743 9.16138H2.05908C2.05908 12.9356 5.1189 16.0001 8.8873 16.0001C11.3996 16.0001 13.6864 14.613 14.8781 12.4517L15.7477 14.1936L16.875 13.6775Z" fill="#231F20"/>
<path d="M6.7615 6.90323L6.50383 5.64516L4.34586 6.09677C5.31212 4.3871 7.14801 3.29032 9.14494 3.29032C12.2048 3.29032 14.6848 5.77419 14.6848 8.83871H15.9732C15.9732 5.06452 12.9133 2 9.14494 2C6.63267 2 4.34586 3.3871 3.15414 5.54839L2.28451 3.80645L1.125 4.3871L2.79985 7.70968L6.7615 6.90323Z" fill="#231F20"/>
</g>
<defs>
<clipPath id="clip0_1_11869">
<rect width="15.75" height="14" fill="white" transform="translate(1.125 2)"/>
</clipPath>
</defs>
</svg>
