<svg width="18" height="18" viewBox="0 0 18 18" fill="none" xmlns="http://www.w3.org/2000/svg">
<g clip-path="url(#clip0_100_14748)">
<path fill-rule="evenodd" clip-rule="evenodd" d="M6.12221 9.45111H11.8778C13.3601 9.45111 14.5585 10.6333 14.5585 12.0956V15.3311C14.5585 15.4711 14.4481 15.5644 14.3219 15.5644H12.6978V12.5C12.6978 12.3756 12.6032 12.2822 12.477 12.2822C12.3509 12.2822 12.2562 12.3756 12.2562 12.5C12.2562 12.5 12.2562 12.5 12.2562 12.5156V15.58H5.74376V12.5C5.74376 12.3756 5.64915 12.2822 5.523 12.2822C5.39685 12.2822 5.30223 12.3756 5.30223 12.5V15.5644H3.69382C3.55191 15.5644 3.45729 15.4556 3.45729 15.3311V12.08C3.44152 10.6333 4.63995 9.45111 6.12221 9.45111ZM3 12.08V15.3156C3 15.6889 3.31537 16 3.69382 16H14.3219C14.7004 16 15.0158 15.6889 15.0158 15.3156V12.08C15.0158 10.3844 13.6124 9 11.8936 9H6.12221C4.40342 9.01556 3 10.3844 3 12.08ZM8.99212 2.43556C10.5375 2.43556 11.7832 3.66444 11.7832 5.18889C11.7832 6.71333 10.5375 7.94222 8.99212 7.94222C7.44678 7.94222 6.20105 6.71333 6.20105 5.18889C6.20105 3.66444 7.46255 2.43556 8.99212 2.43556ZM8.99212 8.37778C10.774 8.37778 12.2247 6.94667 12.2247 5.18889C12.2405 3.43111 10.7898 2 8.99212 2C7.21025 2 5.75953 3.43111 5.75953 5.18889C5.75953 6.96222 7.21025 8.37778 8.99212 8.37778Z" fill="currentColor"/>
</g>
<defs>
<clipPath id="clip0_100_14748">
<rect width="12" height="14" fill="white" transform="translate(3 2)"/>
</clipPath>
</defs>
</svg>
