<svg xmlns="http://www.w3.org/2000/svg" xmlns:xlink="http://www.w3.org/1999/xlink" version="1.1" x="0px" y="0px" viewBox="0 0 100 125" enable-background="new 0 0 100 100" xml:space="preserve">
<g>
<path d="M54.805,55.387l17.097-9.795l12.427,9.422c0.373,0.282,0.908,0.211,1.191-0.164c0.283-0.374,0.211-0.907-0.164-1.191   L72.032,43.557l-17.403,9.971l-18.764-6.459l-18.842,5.414c-0.452,0.13-0.713,0.601-0.583,1.052c0.13,0.45,0.6,0.713,1.052,0.583   l18.326-5.266L54.805,55.387z"/>
</g>
<rect x="59.353" y="63.49" width="4.065" height="14.172" stroke="currentColor"/>
<rect x="66.51" y="66.915" width="4.063" height="10.749" stroke="currentColor"/>
<rect x="52.194" y="69.916" width="4.067" height="7.748" stroke="currentColor"/>
<rect x="37.882" y="63.49" width="4.065" height="14.172" stroke="currentColor"/>
<rect x="45.039" y="66.915" width="4.064" height="10.749" stroke="currentColor"/>
<rect x="30.723" y="66.915" width="4.067" height="10.749" stroke="currentColor"/>
<rect x="23.566" y="66.492" width="4.065" height="11.17" stroke="currentColor"/
><rect x="16.407" y="70.917" width="4.067" height="6.747" stroke="currentColor"/>
<rect x="54.945" y="31.883" width="20.985" height="4.066" stroke="currentColor"/>
<rect x="54.943" y="24.725" width="10.749" height="4.066" stroke="currentColor"/>
<rect x="54.945" y="17.568" width="25.248" height="4.065" stroke="currentColor"/>
<rect x="73.664" y="63.49" width="4.066" height="14.172" stroke="currentColor"/>
<rect x="80.821" y="66.915" width="4.063" height="10.749" stroke="currentColor"/>
<path d="M26.922,16.072c-5.862,0-10.63,4.768-10.63,10.629c0,5.862,4.769,10.63,10.63,10.63c3.469,0,6.557-1.672,8.498-4.251  c0.115-0.152,0.226-0.309,0.333-0.467c1.135-1.69,1.799-3.725,1.799-5.912C37.552,20.84,32.783,16.072,26.922,16.072z   M26.922,36.515c-5.411,0-9.812-4.402-9.812-9.812c0-5.288,4.204-9.608,9.444-9.803c0.022-0.001,0.045-0.001,0.067-0.002v9.625  h0.005l8.196,5.988c-0.021,0.028-0.04,0.059-0.062,0.088C32.967,34.975,30.121,36.515,26.922,36.515z"/></svg>