<svg width="14" height="15" viewBox="0 0 14 15" fill="none" xmlns="http://www.w3.org/2000/svg">
<path d="M10.6689 2.32599H3.33093C2.49974 2.32599 1.82593 2.9998 1.82593 3.83099V11.169C1.82593 12.0002 2.49974 12.674 3.33093 12.674H10.6689C11.5001 12.674 12.1739 12.0002 12.1739 11.169V3.83099C12.1739 2.9998 11.5001 2.32599 10.6689 2.32599Z" stroke="#6B6B6B" stroke-width="0.5" stroke-miterlimit="10"/>
<path d="M3.15894 4.71399H11.1189" stroke="#6B6B6B" stroke-width="0.5" stroke-miterlimit="10"/>
<path d="M9.04901 10.126C9.04848 10.3792 8.94769 10.6219 8.76874 10.801C8.58978 10.9802 8.34721 11.0812 8.09399 11.082H6.18402C5.93072 11.0812 5.68796 10.9802 5.50885 10.8011C5.32974 10.622 5.22882 10.3793 5.22803 10.126C5.23012 9.7854 5.32224 9.45146 5.49506 9.15799C5.66787 8.86452 5.91517 8.62197 6.21198 8.45496C6.29379 8.54606 6.39409 8.61868 6.50616 8.668C6.61824 8.71731 6.73956 8.7422 6.862 8.74097H7.41602C7.53832 8.74225 7.6595 8.71738 7.77142 8.66806C7.88335 8.61874 7.98342 8.54608 8.065 8.45496C8.21922 8.54355 8.36053 8.65291 8.48499 8.77997C8.66465 8.95489 8.80721 9.16424 8.90411 9.39551C9.00102 9.62678 9.05032 9.87521 9.04901 10.126Z" stroke="#6B6B6B" stroke-width="0.5" stroke-miterlimit="10"/>
<path d="M8.294 7.19098V7.85997C8.29413 7.97531 8.27149 8.08954 8.22741 8.19612C8.18334 8.30271 8.11866 8.39955 8.03711 8.48111C7.95555 8.56267 7.85872 8.62734 7.75213 8.67142C7.64555 8.71549 7.53135 8.73811 7.41601 8.73798H6.862C6.74657 8.73824 6.63221 8.71571 6.52551 8.67169C6.41881 8.62767 6.32189 8.56303 6.24023 8.48146C6.15857 8.39989 6.09382 8.30301 6.04968 8.19637C6.00554 8.08972 5.98284 7.97539 5.98297 7.85997V7.19098C5.98164 7.07476 6.00346 6.95942 6.04705 6.85167C6.09065 6.74392 6.15517 6.64591 6.23693 6.56331C6.3187 6.4807 6.41608 6.41516 6.52337 6.37047C6.63067 6.32578 6.74576 6.30284 6.862 6.30298H7.41601C7.53216 6.30297 7.64715 6.32601 7.75433 6.37076C7.86151 6.41551 7.95874 6.48107 8.0404 6.56366C8.12206 6.64625 8.18651 6.74423 8.23004 6.85191C8.27357 6.95959 8.29532 7.07484 8.294 7.19098Z" stroke="#6B6B6B" stroke-width="0.5" stroke-miterlimit="10"/>
</svg>
