<svg width="24" height="24" viewBox="0 0 24 24" fill="none" xmlns="http://www.w3.org/2000/svg">
<path d="M12 1.64197C14.0487 1.64177 16.0514 2.24913 17.755 3.38721C19.4585 4.52528 20.7863 6.14299 21.5704 8.03571C22.3544 9.92842 22.5597 12.0112 22.16 14.0205C21.7604 16.0299 20.7739 17.8756 19.3252 19.3242C17.8766 20.7729 16.0309 21.7594 14.0215 22.159C12.0122 22.5586 9.92942 22.3534 8.03671 21.5693C6.14399 20.7852 4.5263 19.4575 3.38822 17.754C2.25015 16.0504 1.6428 14.0477 1.643 11.999C1.64617 9.25309 2.73838 6.62064 4.68 4.67902C6.62163 2.73739 9.25414 1.64514 12 1.64197ZM12 0C9.62663 0 7.30654 0.703762 5.33315 2.02234C3.35976 3.34092 1.8217 5.21506 0.913445 7.40778C0.00519377 9.60049 -0.232439 12.0133 0.230584 14.3411C0.693607 16.6688 1.83649 18.8071 3.51472 20.4853C5.19295 22.1635 7.33114 23.3064 9.65891 23.7694C11.9867 24.2324 14.3995 23.9948 16.5922 23.0865C18.7849 22.1783 20.6591 20.6402 21.9776 18.6668C23.2962 16.6934 24 14.3734 24 12C24 8.8174 22.7357 5.76515 20.4853 3.51471C18.2348 1.26427 15.1826 0 12 0Z" fill="#1E4FAD"/>
<path fill-rule="evenodd" clip-rule="evenodd" d="M13.544 7.54399C13.98 7.52899 14.416 7.54399 14.854 7.53899H15.034V5.26897C14.801 5.24597 14.557 5.21197 14.313 5.20097C13.865 5.18097 13.413 5.15799 12.969 5.16899C12.2904 5.16395 11.6269 5.36861 11.069 5.75499C10.7621 5.97877 10.5031 6.26168 10.3073 6.58714C10.1116 6.9126 9.98291 7.27398 9.929 7.64995C9.87916 7.97261 9.85276 8.2985 9.85001 8.62498C9.83801 9.13398 9.85001 9.64398 9.85001 10.154V10.344H7.677V12.88H9.83701V19.255H12.476V12.89H14.629C14.739 12.047 14.847 11.2119 14.96 10.3429H14.476C13.864 10.3429 12.459 10.3429 12.459 10.3429C12.459 10.3429 12.465 9.08595 12.48 8.54295C12.502 7.79295 12.945 7.56499 13.544 7.54399Z" fill="#1E4FAD"/>
</svg>
