<?xml version="1.0" encoding="iso-8859-1"?>
<!-- Generator: Adobe Illustrator 26.0.1, SVG Export Plug-In . SVG Version: 6.00 Build 0)  -->
<svg version="1.1" id="Layer_1" xmlns="http://www.w3.org/2000/svg" xmlns:xlink="http://www.w3.org/1999/xlink" x="0px" y="0px"
	 viewBox="0 0 64 64" style="enable-background:new 0 0 64 64;" xml:space="preserve">
<path style="fill:none;stroke:currentColor;stroke-width:2;stroke-linecap:round;stroke-linejoin:round;stroke-miterlimit:10;" d="
	M15.787,41v3.954c0,4.046,4.194,5.136,5.581,0.778c1.029-3.231,1.21-14.351,1.21-14.351c0-2.196,1.78-3.977,3.977-4.381H51.28
	c2.196,0.404,3.977,2.185,3.977,4.381c0.023,7.213,0.173,12.852-1.066,18.241c-0.483,2.102-2.362,3.28-5.866,3.28H18.47
	c-4.642,0-6.683-1.902-6.683-6.651V19.588c0-1.981,1.606-3.588,3.588-3.588h10.474c1.373,0,2.626,0.784,3.226,2.018l0.955,1.964
	C30.631,21.216,31.884,22,33.257,22h11.387c2.288,0,4.144,1.855,4.144,4.144v9.303"/>
</svg>