<svg width="14" height="14" viewBox="0 0 14 14" fill="none" xmlns="http://www.w3.org/2000/svg">
<path d="M11.7535 9.7294C11.7535 11.534 9.62755 13.0001 7.0004 13.0001C4.37326 13.0001 2.24652 11.5364 2.24652 9.7294C2.24652 7.92237 4.37244 4.67871 7.0004 4.67871C9.62837 4.67871 11.7535 7.92482 11.7535 9.7294Z" fill="white" stroke="#333333" stroke-miterlimit="10"/>
<path d="M9.43215 3.45299C9.43215 4.80785 8.33403 6.89698 6.97917 6.89698C5.6243 6.89698 4.52618 4.80785 4.52618 3.45299C4.52618 2.80241 4.78463 2.17848 5.24465 1.71846C5.70468 1.25844 6.3286 1 6.97917 1C7.62974 1 8.25367 1.25844 8.71369 1.71846C9.17372 2.17848 9.43215 2.80241 9.43215 3.45299Z" fill="white" stroke="#333333" stroke-miterlimit="10"/>
</svg>
