<svg width="18" height="18" viewBox="0 0 18 18" fill="none" xmlns="http://www.w3.org/2000/svg">
<g clip-path="url(#clip0_7_5081)">
<path d="M11.4849 7.05732L8.43031 10.1557L6.51516 8.21306C6.32122 8.01634 6.03031 8.01634 5.83637 8.21306C5.64243 8.40978 5.64243 8.70486 5.83637 8.90158L8.09092 11.1885C8.18789 11.2868 8.3091 11.336 8.43031 11.336C8.55152 11.336 8.67274 11.2868 8.76971 11.1885L12.1636 7.74585C12.3333 7.54912 12.3333 7.22945 12.1394 7.05732C11.9455 6.88519 11.6546 6.88519 11.4849 7.05732Z" fill="#231F20"/>
<path d="M14.8788 4.32791C14.8545 4.08201 14.6606 3.90988 14.4424 3.88529C13.5212 3.76234 12.6242 3.51644 11.7515 3.12299C10.8788 2.75414 10.0545 2.23775 9.30303 1.62299C9.1091 1.45086 8.84243 1.45086 8.64849 1.62299C7.92122 2.23775 7.09697 2.75414 6.2 3.12299C5.35152 3.49185 4.45455 3.76234 3.53334 3.88529C3.29091 3.90988 3.12122 4.08201 3.09697 4.32791C3.07273 4.54922 2.58788 9.44267 3.77576 11.8771C5.20606 14.7787 8.62425 16.4017 8.7697 16.4755C8.89091 16.5246 9.03637 16.5246 9.18182 16.4755C9.32728 16.4017 12.7455 14.7787 14.1758 11.8771C15.3879 9.44267 14.903 4.52463 14.8788 4.32791ZM13.3273 11.4345C12.2364 13.6476 9.7394 15.0738 9.01213 15.4673C8.28485 15.0738 5.76364 13.6476 4.69697 11.4345C3.77576 9.6148 3.94546 6.00004 4.04243 4.81972C4.91516 4.67217 5.78788 4.40168 6.61213 4.03283C7.46061 3.66398 8.26061 3.19677 8.98788 2.63119C9.71516 3.19677 10.5152 3.66398 11.3636 4.03283C12.1879 4.40168 13.0606 4.64758 13.9333 4.81972C14.0303 6.00004 14.2 9.6148 13.3273 11.4345Z" fill="#231F20"/>
</g>
<defs>
<clipPath id="clip0_7_5081">
<rect width="12" height="15" fill="white" transform="translate(3 1.5)"/>
</clipPath>
</defs>
</svg>
