<svg width="28" height="28" viewBox="0 0 28 28" fill="none" xmlns="http://www.w3.org/2000/svg">
<path d="M9.52583 18.2783C9.42291 18.2788 9.32439 18.3201 9.2519 18.3932C9.1794 18.4663 9.13884 18.5651 9.13911 18.6681V20.5762H8.45398C8.40298 20.5764 8.3525 20.5866 8.30545 20.6063C8.25839 20.6259 8.21568 20.6547 8.17975 20.6909C8.14383 20.7271 8.1154 20.7701 8.0961 20.8173C8.0768 20.8645 8.067 20.915 8.06727 20.966V23.264C8.06753 23.3665 8.10836 23.4647 8.18083 23.5371C8.2533 23.6096 8.3515 23.6505 8.45398 23.6507H18.9959C19.0469 23.651 19.0974 23.6412 19.1446 23.6219C19.1918 23.6026 19.2348 23.5741 19.271 23.5382C19.3072 23.5023 19.3359 23.4596 19.3556 23.4125C19.3753 23.3655 19.3855 23.315 19.3856 23.264V20.966C19.3859 20.8631 19.3453 20.7643 19.2728 20.6912C19.2003 20.6181 19.1018 20.5768 18.9989 20.5762H18.3148V18.6681C18.3151 18.5651 18.2745 18.4663 18.202 18.3932C18.1295 18.3201 18.031 18.2788 17.9281 18.2783H9.52583Z" stroke="currentColor" stroke-width="0.75" stroke-miterlimit="10"/>
<path d="M10.1034 20.4748H17.3658" stroke="currentColor" stroke-width="0.75" stroke-miterlimit="10"/>
<path d="M13.735 17.4379V4.34833" stroke="currentColor" stroke-width="0.75" stroke-miterlimit="10"/>
<path d="M6.85632 6.18242H20.6127" stroke="currentColor" stroke-width="0.75" stroke-miterlimit="10"/>
<path d="M7.36487 6.98834L5.26786 10.888C4.76746 11.8198 5.95705 12.7678 7.62775 12.7678C9.37255 12.7678 10.5713 11.7406 9.92878 10.7916L7.36487 6.98834Z" stroke="currentColor" stroke-width="0.75" stroke-miterlimit="10"/>
<path d="M20.1083 6.98834L18.0113 10.888C17.5109 11.8198 18.7005 12.7678 20.3712 12.7678C22.1149 12.7678 23.3147 11.7406 22.6722 10.7916L20.1083 6.98834Z" stroke="currentColor" stroke-width="0.75" stroke-miterlimit="10"/>
</svg>
