<svg width="24" height="24" viewBox="0 0 24 24" fill="none" xmlns="http://www.w3.org/2000/svg">
<path d="M12 1.64301C14.0487 1.64281 16.0514 2.25017 17.755 3.38824C19.4585 4.52632 20.7863 6.14403 21.5704 8.03674C22.3545 9.92946 22.5597 12.0122 22.16 14.0215C21.7604 16.0309 20.7739 17.8766 19.3252 19.3253C17.8766 20.7739 16.0309 21.7604 14.0215 22.16C12.0122 22.5597 9.92942 22.3545 8.03671 21.5704C6.14399 20.7863 4.52628 19.4585 3.38821 17.755C2.25013 16.0515 1.6428 14.0487 1.643 12C1.64617 9.25413 2.73839 6.62168 4.68002 4.68005C6.62164 2.73843 9.25412 1.64618 12 1.64301ZM12 0C9.62662 0 7.30654 0.703823 5.33315 2.0224C3.35976 3.34098 1.8217 5.21512 0.913445 7.40784C0.00519377 9.60055 -0.232439 12.0134 0.230584 14.3411C0.693607 16.6689 1.83647 18.8071 3.5147 20.4853C5.19293 22.1635 7.33116 23.3064 9.65893 23.7695C11.9867 24.2325 14.3995 23.9949 16.5922 23.0866C18.7849 22.1784 20.659 20.6403 21.9776 18.6669C23.2962 16.6935 24 14.3734 24 12C24 8.8174 22.7357 5.76521 20.4853 3.51477C18.2348 1.26433 15.1826 0 12 0Z" fill="#007AB5"/>
<path d="M6.86801 9.48902H9.30402V17.313H6.86801V9.48902ZM8.08701 5.60205C8.36583 5.60245 8.63827 5.68548 8.8699 5.8407C9.10153 5.99592 9.28195 6.21632 9.38834 6.47406C9.49472 6.7318 9.5223 7.01529 9.46759 7.2887C9.41288 7.56211 9.27833 7.81318 9.08096 8.01013C8.88359 8.20709 8.63226 8.34107 8.35873 8.3952C8.08521 8.44934 7.80179 8.42114 7.54428 8.31421C7.28677 8.20728 7.06674 8.0264 6.91202 7.79444C6.75729 7.56247 6.67482 7.28988 6.67502 7.01105C6.67515 6.8258 6.71176 6.6424 6.78281 6.47131C6.85385 6.30023 6.95792 6.14477 7.08905 6.01392C7.22018 5.88307 7.37579 5.77936 7.54703 5.70868C7.71826 5.638 7.90176 5.60179 8.08701 5.60205Z" fill="#007AB5"/>
<path d="M10.83 9.48904H13.163V10.56H13.195C13.4282 10.161 13.7653 9.83278 14.1703 9.61019C14.5753 9.3876 15.0331 9.27902 15.495 9.29605C17.958 9.29605 18.412 10.9151 18.412 13.0221V17.3131H15.982V13.513C15.982 12.605 15.964 11.4381 14.718 11.4381C13.452 11.4381 13.259 12.4261 13.259 13.4461V17.3161H10.828L10.83 9.48904Z" fill="#007AB5"/>
</svg>
