<svg width="14" height="14" viewBox="0 0 14 14" fill="none" xmlns="http://www.w3.org/2000/svg">
<path d="M9.6792 1.83383C10.5019 2.65649 10.964 3.77225 10.964 4.93566V9.62087H2.19077V4.93566C2.19077 3.77225 2.65292 2.65649 3.47558 1.83383C4.29823 1.01118 5.41401 0.549013 6.57742 0.549013C7.74082 0.549013 8.85654 1.01117 9.6792 1.83383Z" stroke="#333333" stroke-width="0.547" stroke-linecap="round" stroke-linejoin="round"/>
<path d="M1.83104 10.3862H11.7255C12.0335 10.3862 12.2831 10.6358 12.2831 10.9437V11.2216C12.2831 11.5296 12.0335 11.7792 11.7255 11.7792H1.83104C1.52312 11.7792 1.2735 11.5296 1.2735 11.2216V10.9437C1.2735 10.6358 1.52312 10.3862 1.83104 10.3862Z" stroke="#333333" stroke-width="0.547" stroke-linecap="round" stroke-linejoin="round"/>
<path d="M7.71538 13.2983C7.4983 13.587 7.22338 13.7262 6.95966 13.7265C6.69665 13.7244 6.42275 13.5842 6.20682 13.2956C6.03597 13.0672 5.91925 12.7676 5.87717 12.439H8.0472C8.00491 12.7689 7.88733 13.0696 7.71538 13.2983Z" stroke="#333333" stroke-width="0.547" stroke-linecap="round" stroke-linejoin="round"/>
</svg>
