<svg width="20" height="20" viewBox="0 0 20 20" fill="none" xmlns="http://www.w3.org/2000/svg">
<g id="Icons" clip-path="url(#clip0_1506_11323)">
<path id="Vector (Stroke)" fill-rule="evenodd" clip-rule="evenodd" d="M13.0527 3.14409C11.5754 2.48584 9.92486 2.32277 8.34731 2.6792C6.76975 3.03562 5.34968 3.89245 4.29887 5.12189C3.24807 6.35133 2.62284 7.88751 2.51642 9.50132C2.41001 11.1151 2.82811 12.7201 3.70838 14.0769C4.58865 15.4337 5.88392 16.4695 7.40102 17.03C8.91811 17.5905 10.5757 17.6456 12.1267 17.187C13.6776 16.7284 15.0388 15.7808 16.0072 14.4855C16.9755 13.1901 17.4992 11.6164 17.5002 9.99909V9.2329C17.5002 8.77266 17.8733 8.39956 18.3335 8.39956C18.7937 8.39956 19.1668 8.77266 19.1668 9.2329V9.99956C19.1657 11.9763 18.5256 13.9002 17.3421 15.4834C16.1585 17.0666 14.4948 18.2248 12.5992 18.7853C10.7036 19.3457 8.67765 19.2784 6.82343 18.5934C4.9692 17.9084 3.3861 16.6423 2.31021 14.984C1.23432 13.3257 0.723305 11.3641 0.853366 9.39166C0.983428 7.41922 1.7476 5.54167 3.03192 4.03902C4.31624 2.53637 6.05188 1.48914 7.98 1.05351C9.90812 0.617872 11.9254 0.817181 13.731 1.62171C14.1514 1.80902 14.3403 2.30167 14.153 2.72206C13.9657 3.14246 13.4731 3.3314 13.0527 3.14409Z" fill="white"/>
<path id="Vector (Stroke)_2" fill-rule="evenodd" clip-rule="evenodd" d="M18.9221 2.74378C19.2477 3.06906 19.248 3.59669 18.9227 3.92229L10.5894 12.264C10.4331 12.4204 10.2211 12.5083 10 12.5083C9.77896 12.5084 9.56691 12.4206 9.41058 12.2643L6.91058 9.76426C6.58514 9.43882 6.58514 8.91118 6.91058 8.58574C7.23602 8.26031 7.76366 8.26031 8.08909 8.58574L9.99954 10.4962L17.7436 2.74437C18.0689 2.41877 18.5965 2.41851 18.9221 2.74378Z" fill="white"/>
</g>
<defs>
<clipPath id="clip0_1506_11323">
<rect width="20" height="20" fill="white"/>
</clipPath>
</defs>
</svg>
