   <svg width="24" height="24" viewBox="0 0 24 24" fill="none"
                      xmlns="http://www.w3.org/2000/svg">
                      <path
                        d="M15.2398 7.41992C15.4298 8.06992 15.3798 8.73992 15.1698 9.21992C14.5198 10.7799 12.5798 11.5699 11.0198 10.9199C10.3398 10.6299 9.87977 10.0999 9.50977 9.59992"
                        stroke="#000000" />
                      <path
                        d="M8.94922 8.21991C8.95922 7.64991 8.92922 7.17991 9.12922 6.68991C9.77922 5.12991 11.7192 4.33991 13.2792 4.98991C13.8592 5.23991 14.3092 5.53991 14.6692 6.02991"
                        stroke="#000000" />
                      <path d="M14.4284 3.87988L14.6084 5.89988L12.8984 6.43988" stroke="#000000" />
                      <path d="M9.39875 11.4999L9.21875 9.47994L10.9387 8.93994" stroke="#000000" />
                      <path d="M4.64062 22.5V1.5H19.6406V22.5H4.64062Z" stroke="#000000" stroke-miterlimit="10" />
                      <path d="M9.64062 22.5V14.5H14.6406V22.5H9.64062Z" fill="#000000" stroke="#000000"
                        stroke-miterlimit="10" />
                      <path d="M1 22.5H23.27" stroke="#000000" stroke-miterlimit="10" />
                    </svg>