<svg width="28" height="28" viewBox="0 0 28 28" fill="none" xmlns="http://www.w3.org/2000/svg">
<path d="M10.7333 18.4248C10.7422 18.4571 10.7509 18.4882 10.7592 18.5181C10.8554 18.8653 10.9092 19.0593 10.961 19.1843C10.9629 19.189 10.9648 19.1934 10.9666 19.1975C10.9685 19.1975 10.9706 19.1976 10.9727 19.1976C11.0353 19.1978 11.1162 19.1927 11.2408 19.184C11.251 19.1833 11.2614 19.1825 11.272 19.1818C11.5113 19.1648 11.8435 19.1413 12.292 19.1488H12.307H12.3261H12.3452H12.3642H12.3832H12.4021H12.421H12.4398H12.4586H12.4773H12.496H12.5147H12.5333H12.5519H12.5704H12.5889H12.6073H12.6257H12.644H12.6623H12.6806H12.6988H12.717H12.7351H12.7532H12.7713H12.7893H12.8072H12.8252H12.8431H12.8609H12.8787H12.8965H12.9142H12.9319H12.9495H12.9671H12.9847H13.0022H13.0197H13.0371H13.0545H13.0719H13.0892H13.1065H13.1238H13.141H13.1582H13.1753H13.1924H13.2095H13.2265H13.2435H13.2604H13.2774H13.2942H13.3111H13.3279H13.3447H13.3614H13.3781H13.3948H13.4114H13.428H13.4445H13.4611H13.4776H13.494H13.5104H13.5268H13.5432H13.5595H13.5758H13.5921H13.6083H13.6245H13.6406H13.6567H13.6728H13.6889H13.7049H13.7209H13.7369H13.7528H13.7687H13.7846H13.8004H13.8162H13.832H13.8478H13.8635H13.8792H13.8948H13.9105H13.9261H13.9416H13.9572H13.9727H13.9882H14.0036H14.0191H14.0345H14.0499H14.0652H14.0805H14.0958H14.1111H14.1263H14.1415H14.1567H14.1718H14.187H14.2021H14.2172H14.2322H14.2472H14.2622H14.2772H14.2922H14.3071H14.322H14.3369H14.3517H14.3666H14.3814H14.3961H14.4109H14.4256H14.4403H14.455H14.4697H14.4843H14.499H14.5136H14.5281H14.5427H14.5572H14.5717H14.5862H14.6007H14.6151H14.6296H14.644H14.6583H14.6727H14.6871H14.7014H14.7157H14.73H14.7442H14.7585H14.7727H14.7869H14.8011H14.8153H14.8294H14.8436H14.8577H14.8718H14.8859H14.8999H14.914H14.928H14.942H14.956H14.97H14.984H14.9979H15.0118H15.0257H15.0396H15.0535H15.0674H15.0813H15.0951H15.1089H15.1227H15.1365H15.1503H15.1641H15.1778H15.1916H15.2053H15.219H15.2327H15.2464H15.2601H15.2737H15.2874H15.301H15.3147H15.3283H15.3419H15.3555H15.369H15.3826H15.3962H15.4097H15.4233H15.4368H15.4503H15.4638H15.4773H15.4908H15.5043H15.5177H15.5312H15.5446H15.5581H15.5715H15.5849H15.5984H15.6118H15.6252H15.6386H15.652H15.6653H15.6787H15.6921H15.7054H15.7188H15.7321H15.7455H15.7588H15.7721H15.7854H15.7988H15.8121H15.8254H15.8387H15.852H15.8653H15.8786H15.8918H15.9051H15.9184H15.9317H15.9449H15.9582H15.9715H15.9847H15.998H16.0112H16.0245H16.0377H16.051H16.0642H16.0775H16.0907H16.104H16.1172H16.1304H16.1437H16.1569H16.1701H16.1834H16.1966H16.2099H16.2231H16.2363H16.2496H16.2628H16.276H16.2893H16.3025H16.3158H16.329H16.3423H16.3555H16.3688H16.382H16.3953H16.4086H16.4218H16.4351H16.4484H16.4616H16.4749H16.4882H16.5015H16.5148H16.5281H16.5414H16.5547H16.568H16.5813H16.5946H16.6079H16.6213H16.6346H16.648H16.6613H16.6747H16.688H16.7014H16.7148H16.7282H16.7416H16.755H16.7684H16.7818H16.7952H16.8086H16.8221H16.8355H16.849H16.8625H16.8759H16.8894H16.9029H16.9164H16.9299H16.9435H16.957H16.9705H16.9841H16.9977H17.0112H17.0248H17.0384H17.052H17.0657H17.0793H17.093H17.1066H17.1203H17.134H17.1477H17.1614H17.1751H17.1888H17.2026H17.2164H17.2301H17.2439H17.2577H17.2716H17.2854H17.2993H17.3131H17.327H17.3409H17.3548H17.3687H17.3827H17.3967H17.4106H17.4246H17.4386H17.4527H17.4667H17.4808H17.4948H17.5089H17.5231H17.5372H17.5513H17.5655H17.5797H17.5939H17.6081H17.6224H17.6366H17.6509H17.6652H17.6795H17.6939H17.7082H17.7226H17.737H17.7514H17.7659H17.7803H17.7948H17.8093H17.8239H17.8384H17.853H17.8676H17.8822H17.8968H17.9115H17.9262H17.9409H17.9556H17.9704H17.9851H17.9999H18.0148H18.0296H18.0445H18.0594H18.0743H18.0893H18.1042H18.1192H18.1343H18.1493H18.1644H18.1795H18.1946H18.2097H18.2249H18.2401H18.2554H18.2706H18.2859H18.3012H18.3166H18.3319H18.3473H18.3627H18.3782H18.3937H18.4092H18.4247H18.4403H18.4559H18.4715H18.4872H18.5029H18.5186H18.5343H18.5501H18.5659H18.5817H18.5976H18.6135H18.6294H18.6454H18.6614H18.6774H18.6935H18.7095H18.7257H18.7418H18.758H18.7742H18.7905H18.8067H18.8231H18.8394H18.8558H18.8722H18.8887H18.9051H18.9217H18.9382H18.9548H18.9714H18.9881H19.0048H19.0215H19.0383H19.0551H19.0719H19.0888H19.1057H19.1227H19.1396H19.1567H19.1737H19.1908H19.2079H19.2251H19.2423H19.2596H19.2768H19.2942H19.3115H19.3289H19.3464H19.3638H19.3814H19.3989H19.4165H19.4341H19.4518H19.4695H19.4873H19.5051H19.5229H19.5408H19.5587H19.5767H19.5947H19.6127H19.6308H19.649H19.6671H19.6853H19.7036H19.7219H19.7402H19.7586H19.777H19.7955H19.814H19.8326H19.8512H19.8698H19.8885H19.9073H19.926H19.9449H19.9637H19.9826H20.0016H20.0206H20.0397H20.0588H20.0779H20.4582L20.5598 19.5153L20.6139 19.7107H21.2221C21.155 19.4228 21.0857 19.1259 21.0215 18.8641H21.0036H20.9814H20.9593H20.9372H20.9152H20.8932H20.8712H20.8493H20.8274H20.8056H20.7838H20.7621H20.7404H20.7187H20.6971H20.6755H20.654H20.6325H20.611H20.5896H20.5682H20.5469H20.5256H20.5043H20.4831H20.4619H20.4407H20.4196H20.3986H20.3775H20.3565H20.3356H20.3147H20.2938H20.2729H20.2521H20.2314H20.2106H20.1899H20.1693H20.1486H20.128H20.1075H20.087H20.0665H20.046H20.0256H20.0052H19.9849H19.9646H19.9443H19.9241H19.9039H19.8837H19.8636H19.8434H19.8234H19.8033H19.7833H19.7634H19.7434H19.7235H19.7036H19.6838H19.664H19.6442H19.6244H19.6047H19.585H19.5654H19.5457H19.5261H19.5066H19.487H19.4675H19.448H19.4286H19.4092H19.3898H19.3704H19.3511H19.3318H19.3125H19.2933H19.274H19.2548H19.2357H19.2165H19.1974H19.1783H19.1593H19.1403H19.1213H19.1023H19.0833H19.0644H19.0455H19.0267H19.0078H18.989H18.9702H18.9514H18.9327H18.914H18.8953H18.8766H18.8579H18.8393H18.8207H18.8021H18.7836H18.7651H18.7465H18.7281H18.7096H18.6912H18.6727H18.6544H18.636H18.6176H18.5993H18.581H18.5627H18.5444H18.5262H18.508H18.4898H18.4716H18.4534H18.4353H18.4171H18.399H18.381H18.3629H18.3448H18.3268H18.3088H18.2908H18.2728H18.2549H18.2369H18.219H18.2011H18.1832H18.1654H18.1475H18.1297H18.1119H18.0941H18.0763H18.0585H18.0408H18.023H18.0053H17.9876H17.9699H17.9522H17.9346H17.9169H17.8993H17.8817H17.8641H17.8465H17.8289H17.8114H17.7938H17.7763H17.7588H17.7412H17.7237H17.7063H17.6888H17.6713H17.6539H17.6364H17.619H17.6016H17.5842H17.5668H17.5494H17.5321H17.5147H17.4974H17.48H17.4627H17.4454H17.4281H17.4108H17.3935H17.3762H17.3589H17.3417H17.3244H17.3072H17.2899H17.2727H17.2555H17.2383H17.221H17.2038H17.1866H17.1695H17.1523H17.1351H17.1179H17.1008H17.0836H17.0665H17.0493H17.0322H17.0151H16.9979H16.9808H16.9637H16.9466H16.9295H16.9124H16.8953H16.8782H16.8611H16.844H16.8269H16.8098H16.7927H16.7756H16.7586H16.7415H16.7244H16.7073H16.6903H16.6732H16.6561H16.6391H16.622H16.605H16.5879H16.5708H16.5538H16.5367H16.5196H16.5026H16.4855H16.4685H16.4514H16.4343H16.4173H16.4002H16.3831H16.3661H16.349H16.3319H16.3148H16.2978H16.2807H16.2636H16.2465H16.2294H16.2123H16.1952H16.1781H16.161H16.1439H16.1268H16.1097H16.0926H16.0755H16.0583H16.0412H16.0241H16.0069H15.9898H15.9726H15.9554H15.9383H15.9211H15.9039H15.8867H15.8695H15.8523H15.8351H15.8179H15.8007H15.7834H15.7662H15.7489H15.7317H15.7144H15.6971H15.6799H15.6626H15.6453H15.6279H15.6106H15.5933H15.576H15.5586H15.5412H15.5239H15.5065H15.4891H15.4717H15.4543H15.4368H15.4194H15.4019H15.3845H15.367H15.3495H15.332H15.3145H15.297H15.2794H15.2619H15.2443H15.2267H15.2092H15.1915H15.1739H15.1563H15.1386H15.121H15.1033H15.0856H15.0679H15.0502H15.0324H15.0147H14.9969H14.9791H14.9613H14.9435H14.9256H14.9078H14.8899H14.872H14.8541H14.8362H14.8182H14.8003H14.7823H14.7643H14.7463H14.7283H14.7102H14.6921H14.674H14.6559H14.6378H14.6196H14.6015H14.5833H14.5651H14.5468H14.5286H14.5103H14.492H14.4737H14.4554H14.437H14.4186H14.4002H14.3818H14.3634H14.3449H14.3264H14.3079H14.2893H14.2708H14.2522H14.2336H14.215H14.1963H14.1776H14.1589H14.1402H14.1214H14.1027H14.0839H14.065H14.0462H14.0273H14.0084H13.9895H13.9705H13.9515H13.9325H13.9135H13.8944H13.8753H13.8562H13.837H13.8179H13.7987H13.7794H13.7602H13.7409H13.7216H13.7022H13.6829H13.6635H13.644H13.6246H13.6051H13.5856H13.566H13.5465H13.5268H13.5072H13.4875H13.4678H13.4481H13.4283H13.4085H13.3887H13.3689H13.349H13.3291H13.3091H13.2891H13.2691H13.249H13.229H13.2088H13.1887H13.1685H13.1483H13.128H13.1077H13.0874H13.0671H13.0467H13.0263H13.0058H12.9853H12.9648H12.9442H12.9236H12.903H12.8823H12.8616H12.8408H12.8201H12.7992H12.7784H12.7575H12.7365H12.7156H12.6946H12.6735H12.6524H12.6313H12.6102H12.589H12.5677H12.5465H12.5251H12.5038H12.4824H12.461H12.4395H12.418H12.3964H12.3748H12.3532H12.3315H12.3098H12.288H12.2662H12.2444H12.2225H12.2006H12.1786H12.1566H12.1346H12.1125H12.0903H12.0681H12.0459H12.0237H12.0013H11.979H11.9566H11.9342H11.9117H11.8891H11.8666H11.8439H11.8213H11.7986H11.7758H11.753H11.7302H11.7073H11.6843H11.6614H11.3048L11.1887 18.527L10.7099 17.1381L10.5094 16.5568L11.1195 16.4792L20.1666 15.3281C20.3688 15.2993 20.5359 15.2843 20.6556 15.2735C20.6729 15.2719 20.6891 15.2705 20.7044 15.2691C20.7093 15.218 20.7145 15.1548 20.7211 15.0737C20.7244 15.0331 20.7281 14.988 20.7323 14.9378C20.7324 14.9374 20.7324 14.9369 20.7324 14.9365L21.1899 9.10383L21.1901 9.10101C21.1913 9.08748 21.1924 9.0742 21.1935 9.06116C21.2101 8.86491 21.222 8.72323 21.2231 8.60707C21.2235 8.55972 21.2218 8.52547 21.2196 8.50143C21.1778 8.49377 21.1079 8.48616 20.9972 8.48616H8.69096H8.29919L8.20547 8.10577C8.15816 7.91374 8.10473 7.68375 8.05 7.44816C8.00093 7.23691 7.95081 7.02116 7.90311 6.82422H6.20605V6.89393H7.1807H7.56174L7.6628 7.26133L10.7333 18.4248ZM10.7333 18.4248C10.7332 18.4246 10.7333 18.425 10.7333 18.4248ZM20.6831 15.4188C20.6831 15.4188 20.6833 15.4181 20.6837 15.4169L20.6831 15.4188ZM12.7878 20.5313C13.2015 20.5313 13.5382 20.868 13.5382 21.2817C13.5382 21.6964 13.2018 22.0321 12.7878 22.0321C12.3728 22.0321 12.0374 21.6967 12.0374 21.2817C12.0374 20.8677 12.3731 20.5313 12.7878 20.5313ZM17.9451 20.5313C18.3588 20.5313 18.6955 20.868 18.6955 21.2817C18.6955 21.6964 18.3591 22.0321 17.9451 22.0321C17.5301 22.0321 17.1947 21.6967 17.1947 21.2817C17.1947 20.868 17.5314 20.5313 17.9451 20.5313Z" stroke="currentColor"/>
</svg>
