<svg width="31" height="38" viewBox="0 0 31 38" fill="none" xmlns="http://www.w3.org/2000/svg">
<path d="M30.1843 3.48199H30.3962L29.2062 2.292C28.7641 1.84989 28.3542 1.44698 28.05 1.15507C27.9039 1.01485 27.7834 0.901377 27.6959 0.821787C27.6084 0.901377 27.4879 1.01485 27.3418 1.15507C27.0377 1.44698 26.6277 1.84989 26.1856 2.292L24.9956 3.48199H25.2075H26.0089H26.2589V3.73199V18.0721V32.1621H27.6959H29.133V18.0721V3.73199V3.48199H29.383H30.1843Z" stroke="currentColor" stroke-width="0.5"/>
<path d="M17.9534 7.69982H18.1653L16.9753 6.50982C16.5332 6.06772 16.1232 5.6648 15.8191 5.37289C15.673 5.23267 15.5525 5.1192 15.465 5.03961C15.3775 5.1192 15.257 5.23267 15.1109 5.37289C14.8067 5.6648 14.3968 6.06772 13.9547 6.50982L12.7647 7.69982H12.9765H13.7779H14.0279V7.94982V12.8985V17.6113H15.465H16.902V12.8985V7.94982V7.69982H17.152H17.9534Z" stroke="currentColor" stroke-width="0.5"/>
<path d="M20.1544 10.5733L18.9335 11.7942L19.1477 11.8058L19.1479 11.8059L19.9071 11.848L20.1403 11.861L20.1432 12.0945L20.1854 15.4264L20.1854 15.4275L20.2124 18.6072L21.121 19.1673L21.1211 19.1673L21.1248 19.1697C21.6794 19.5252 22.4146 20.0853 22.7442 20.4295L22.8861 20.575L22.9471 16.6348L23.0174 12.0938L23.0209 11.8698L23.2439 11.8488L23.989 11.7785L24.2051 11.7581L22.993 10.546L22.9922 10.5452L21.5811 9.14658L20.1544 10.5733Z" stroke="currentColor" stroke-width="0.5"/>
<path d="M7.95067 14.0599L7.95002 14.0606C7.51495 14.4886 7.11884 14.8847 6.83186 15.177C6.79346 15.2161 6.75708 15.2532 6.72287 15.2883C6.79734 15.2902 6.87689 15.2913 6.95927 15.2913H7.73251H7.98251V15.5413V18.3671V20.6354L8.30438 20.3378C8.71609 19.9272 9.46149 19.3692 9.96578 19.0666L9.96629 19.0663L10.7161 18.6188V17.1581V15.5554V15.3186L10.9524 15.3057L11.7257 15.2636L11.9398 15.2519L10.7619 14.074L10.7612 14.0732L9.34928 12.6738L7.95067 14.0599Z" stroke="currentColor" stroke-width="0.5"/>
<path d="M1.79648 27.2666V32.1621H3.23354H4.67061V27.2666V22.121V21.8522L4.93874 21.8717L5.70969 21.9277L5.83264 21.9344L4.716 20.8078C4.28096 20.3798 3.8783 19.9877 3.57947 19.7028C3.43701 19.567 3.31938 19.4568 3.23354 19.379C3.14771 19.4568 3.03008 19.567 2.88761 19.7028C2.58878 19.9877 2.18611 20.3798 1.75106 20.8079L0.634449 21.9344L0.757392 21.9277L1.52834 21.8717L1.79648 21.8522V22.121V27.2666ZM3.35854 19.2709L3.35864 19.2708L3.35854 19.2709Z" stroke="currentColor" stroke-width="0.5"/>
<path d="M13.6206 19.5119L13.6198 19.512C10.542 20.1823 8.1343 22.3006 7.01036 25.3022C6.78389 25.9083 6.6386 26.7831 6.59356 27.7047C6.54863 28.6242 6.60457 29.5672 6.7671 30.3057C7.35454 32.9004 9.06081 35.0462 11.5671 36.2651L11.5681 36.2656C14.1 37.511 16.8721 37.5103 19.3603 36.28C22.5239 34.7049 24.3528 31.7823 24.3528 28.2654C24.3528 26.7695 24.0796 25.5698 23.4642 24.2978C21.7147 20.7031 17.5133 18.6514 13.6206 19.5119ZM22.769 27.2L22.7693 27.2017C23.2797 30.5701 21.2829 33.9125 17.9879 35.1762C17.3908 35.4147 16.5918 35.5509 15.8069 35.5885C15.0213 35.6262 14.2219 35.5664 13.6241 35.3946L13.6237 35.3945C9.91268 34.3217 7.57624 30.8202 8.17423 27.1573C8.62531 24.307 10.9592 21.7203 13.6634 21.0771L13.667 21.0763C14.0741 20.9859 14.7642 20.9403 15.4358 20.9386C16.1054 20.9368 16.7981 20.9784 17.2089 21.077C19.9983 21.7202 22.3041 24.2654 22.769 27.2Z" stroke="currentColor" stroke-width="0.5"/>
<path d="M14.9024 23.1335C14.9024 23.6818 14.8743 23.71 14.1573 24.0333C13.2575 24.427 12.7092 25.0455 12.5827 25.7907C12.3718 27.0278 13.145 27.9839 14.8321 28.6165C16.1818 29.1226 16.716 29.699 16.3364 30.2473C15.9849 30.7816 14.6212 30.88 13.5106 30.4582L12.8358 30.2052L12.653 30.9643C12.5686 31.3861 12.5124 31.7516 12.5405 31.7797C12.6249 31.8782 14.2416 32.2718 14.5088 32.2718C14.7196 32.2718 14.7618 32.3843 14.7618 32.9045V33.5371H15.3945H16.0271V32.8482C16.0271 32.1875 16.0412 32.1593 16.477 32.075C17.5877 31.85 18.4171 30.8237 18.4171 29.685C18.4171 28.4759 17.8267 27.8151 16.1818 27.1544C14.8743 26.6201 14.6212 26.4374 14.6212 25.9453C14.6212 25.6782 14.7196 25.4814 14.8884 25.383C15.282 25.1721 16.6598 25.2143 17.2221 25.4392L17.6861 25.636L17.8548 24.9331C17.9672 24.5254 17.9813 24.188 17.897 24.1036C17.8267 24.0333 17.433 23.9208 17.0112 23.8365C16.6035 23.7521 16.238 23.6818 16.2239 23.6537C16.1958 23.6397 16.1677 23.3866 16.1396 23.0914C16.1115 22.5712 16.0974 22.5712 15.5069 22.5712H14.9024V23.1335Z" fill="black"/>
</svg>
