<svg viewBox="0 0 14 13"fill="none"xmlns="http://www.w3.org/2000/svg"><path d="M7.93364 7.92497L9.07108 8.90968L8.61611 9.36416L12.7109 13L14 11.5608L9.90521 7.92497L9.45023 8.37945L8.38862 7.47049C9.90521 5.57683 9.67772 2.7742 7.78198 1.18352C5.88624 -0.558653 2.92889 -0.331414 1.18481 1.56225C-0.559264 3.45592 -0.331776 6.41004 1.56396 8.15221C3.4597 9.74289 6.26539 9.66715 7.93364 7.92497ZM7.55449 7.16751C6.18956 8.75819 3.76302 8.90968 2.1706 7.47049C0.578178 6.10705 0.426519 3.68316 1.86728 2.09248C3.23221 0.5018 5.65876 0.350307 7.25117 1.78949C8.84359 3.15293 8.99525 5.57683 7.55449 7.16751Z"fill="currentColor"/></svg>