<svg width="34"height="34"viewBox="0 0 34 34"fill="none"xmlns="http://www.w3.org/2000/svg"><circle cx="17"cy="17"r="16.75"transform="matrix(1 0 0 -1 0 34)"stroke="currentColor"stroke-width="0.5"/><path d="M18.3338 18.3214L19.9587 19.7281L19.3087 20.3774L25.1584 25.5714L27 23.5154L21.1503 18.3214L20.5003 18.9706L18.9837 17.6721C21.1503 14.9669 20.8253 10.9631 18.1171 8.69074C15.4089 6.20192 11.1841 6.52655 8.69259 9.23179C6.20105 11.937 6.52603 16.1572 9.23423 18.646C11.9424 20.9184 15.9506 20.8102 18.3338 18.3214ZM17.7921 17.2393C15.8422 19.5117 12.3757 19.7281 10.1009 17.6721C7.82597 15.7244 7.60931 12.2617 9.66754 9.98926C11.6174 7.71686 15.0839 7.50044 17.3588 9.55642C19.6337 11.5042 19.8504 14.9669 17.7921 17.2393Z"fill="currentColor"/></svg>