<svg xmlns="http://www.w3.org/2000/svg" xmlns:xlink="http://www.w3.org/1999/xlink" version="1.1" x="0px" y="0px" viewBox="0 0 12 15" enable-background="new 0 0 12 12" xml:space="preserve"><g><path fill="currentColor" d="M5.581086,0.986142c0.514767,0,0.93388,0.419116,0.93388,0.933885   c0,0.514784-0.419113,0.932899-0.93388,0.932899c-0.514769,0-0.933879-0.418115-0.933879-0.932899   C4.647206,1.405258,5.066317,0.986142,5.581086,0.986142 M5.581086,0C4.522952,0,3.661062,0.860932,3.661062,1.920027   c0,1.058139,0.86189,1.919041,1.920024,1.919041s1.920025-0.860902,1.920025-1.919041C7.501111,0.860932,6.63922,0,5.581086,0"/><path fill="currentColor" d="M2.226021,12c-0.285825,0-0.492084-0.287154-0.493071-0.558331L1.719143,8.152861   c0-1.966366,1.732658-3.564916,3.861747-3.564916c1.560081,0,2.996893,0.907271,3.576748,2.256312   c0.107489,0.250481-0.007891,0.540396-0.258372,0.647899c-0.247521,0.1055-0.539419-0.007905-0.648882-0.259357   C7.825356,6.240739,6.75243,5.574086,5.58089,5.574086c-1.584737,0-2.875602,1.155764-2.875602,2.576802l0.013807,3.286836   C2.720082,11.709887,2.5,12,2.227995,12H2.226021z"/><path fill="currentColor" d="M9.728985,10.259807H5.547359c-0.272176,0-0.493072-0.161064-0.493072-0.433257   c0-0.272163,0.220896-0.561138,0.493072-0.561138h4.240425c0.272176,0,0.493073,0.288975,0.493073,0.561138   C10.280857,10.098742,10.059959,10.259807,9.728985,10.259807z"/><path fill="currentColor" d="M6.551256,11.705653l-1.451607-1.539374c-0.180463-0.189332-0.180463-0.486182,0-0.675514L6.551256,7.95139   C6.736651,7.753181,7.04926,7.742348,7.247475,7.93168c0.198212,0.186374,0.20709,0.497987,0.019722,0.696226l-1.131108,1.20013   l1.131108,1.201117c0.187369,0.197238,0.172662,0.503842-0.019722,0.696226   C6.992336,11.980518,6.646912,11.808209,6.551256,11.705653z"/></g><text x="0" y="27" fill="currentColor" font-size="5px" font-weight="bold" font-family="'Helvetica Neue', Helvetica, Arial-Unicode, Arial, Sans-serif">Created by Gautam Arora</text><text x="0" y="32" fill="currentColor" font-size="5px" font-weight="bold" font-family="'Helvetica Neue', Helvetica, Arial-Unicode, Arial, Sans-serif">from the Noun Project</text></svg>