<svg width="14" height="14" viewBox="0 0 14 14" fill="none" xmlns="http://www.w3.org/2000/svg">
<path d="M8.48128 0.723016C8.42552 0.519185 8.30611 0.338838 8.14072 0.208634C7.97534 0.0784305 7.77277 0.00528057 7.56293 0M8.48128 0.723016L8.21094 0.764461L8.21352 0.78127M8.48128 0.723016L8.6858 2.05705L13.726 6.38933M8.48128 0.723016L8.21748 0.795193C8.2162 0.790534 8.21488 0.785893 8.21352 0.78127M8.21352 0.78127C8.17161 0.639414 8.08697 0.514401 7.97154 0.423528C7.85322 0.330374 7.70874 0.27794 7.5592 0.2735M8.21352 0.78127L8.41546 2.09849C8.42864 2.18447 8.48194 2.25906 8.55901 2.29938C8.69321 2.36959 8.8254 2.4028 8.92686 2.42828L8.92746 2.42843C9.03585 2.45566 9.11019 2.47452 9.18224 2.50975C9.26798 2.55168 9.36938 2.54587 9.44977 2.49444L10.5737 1.77542C10.5874 1.76662 10.6004 1.7566 10.6123 1.74549C10.6997 1.66439 10.8121 1.61703 10.9298 1.61094C11.0061 1.61795 11.0805 1.63938 11.1491 1.67423L11.273 1.43036L11.1491 1.67423C11.2217 1.71109 11.2864 1.76224 11.3394 1.82478C11.344 1.83025 11.3489 1.83553 11.3539 1.84061L12.1681 2.66166C12.2651 2.76629 12.3248 2.90088 12.3374 3.04412C12.3499 3.1866 12.315 3.32899 12.2385 3.4489L11.4266 4.57516C11.3703 4.65324 11.3592 4.75517 11.3973 4.84354C11.4861 5.04918 11.6009 5.2425 11.7388 5.41871C11.7774 5.46796 11.8317 5.5025 11.8926 5.51659L13.2033 5.81957C13.2137 5.82277 13.2244 5.82537 13.2354 5.82734C13.3684 5.85116 13.4897 5.92004 13.5791 6.02305C13.6674 6.12482 13.7192 6.25385 13.726 6.38933M7.5592 0.2735H7.56293V0M7.5592 0.2735C7.55815 0.273469 7.5571 0.27344 7.55605 0.273413L7.56293 0M7.5592 0.2735H6.44256M7.56293 0H6.43902M6.43902 0L6.44556 0.273422C6.44456 0.273446 6.44356 0.273472 6.44256 0.2735M6.43902 0C6.22922 0.00501643 6.02662 0.0780839 5.86135 0.208344C5.69607 0.338605 5.57699 0.519105 5.5217 0.723016M6.43902 0V0.2735H6.44256M6.44256 0.2735C6.29317 0.277717 6.14878 0.330038 6.03064 0.42315C5.91534 0.514021 5.83096 0.639143 5.78946 0.78112M5.5217 0.723016L5.79198 0.764857L5.78946 0.78112M5.5217 0.723016L5.31518 2.05705C5.21488 2.10515 5.11595 2.13012 5.0174 2.15499C4.9111 2.18181 4.80525 2.20852 4.6986 2.26405L3.5767 1.54504C3.43698 1.41611 3.25582 1.34225 3.0664 1.33703M5.5217 0.723016L5.78566 0.794592C5.78689 0.790085 5.78815 0.785594 5.78946 0.78112M5.78946 0.78112L5.58546 2.09889C5.57166 2.18803 5.51479 2.26464 5.43346 2.30365C5.30767 2.36398 5.18468 2.39493 5.0894 2.4189C5.08376 2.42032 5.07822 2.42171 5.07278 2.42309C4.96947 2.4492 4.89609 2.46958 4.8249 2.50664C4.73799 2.55189 4.63352 2.54719 4.55102 2.49432L3.42912 1.7753C3.41565 1.76667 3.40297 1.75688 3.39121 1.74603C3.30332 1.66492 3.19065 1.61744 3.07257 1.61099M3.07257 1.61099C3.07727 1.61053 3.08198 1.61013 3.0867 1.60978L3.0664 1.33703M3.07257 1.61099C3.06801 1.61074 3.06344 1.61055 3.05887 1.61043L3.0664 1.33703M3.07257 1.61099C2.91309 1.62653 2.76495 1.70327 2.65927 1.82628C2.6551 1.83113 2.65076 1.83583 2.64627 1.84038L1.83362 2.66191M3.0664 1.33703C2.82876 1.35472 2.60776 1.46655 2.45182 1.64804L1.63672 2.47206M1.83362 2.66191C1.83429 2.6612 1.83496 2.66049 1.83563 2.65978L1.63672 2.47206M1.83362 2.66191L1.83117 2.66439L1.63672 2.47206M1.83362 2.66191C1.73614 2.76616 1.67603 2.90072 1.66345 3.04403C1.65079 3.18829 1.6871 3.33252 1.76618 3.4531L1.76866 3.4569L1.76863 3.45692L2.48441 4.58894C2.51351 4.63497 2.52821 4.68864 2.52663 4.74307C2.51918 4.99877 2.42118 5.24371 2.24972 5.43348C2.21221 5.475 2.16286 5.50401 2.10834 5.5166L0.774955 5.82461L0.762143 5.82757L0.762087 5.82726C0.62952 5.85124 0.508675 5.92016 0.419751 6.02308C0.331832 6.12483 0.28038 6.25374 0.274028 6.38897M1.63672 2.47206C1.49567 2.62151 1.40903 2.8147 1.391 3.02011C1.37297 3.22552 1.42463 3.43102 1.53747 3.60308L2.25324 4.73511C2.24768 4.92611 2.17448 5.1088 2.04679 5.25012L0.713399 5.55813C0.519048 5.59329 0.342434 5.69423 0.212802 5.84426C0.08317 5.99429 0.00827543 6.18441 0.000528388 6.38314M0.274028 6.38897V6.38314H0.000528388M0.274028 6.38897C0.273953 6.39058 0.273884 6.39219 0.273821 6.3938L0.000528388 6.38314M0.274028 6.38897V7.61517V7.62508L0.273849 7.62507C0.26899 7.75927 0.315005 7.88998 0.402057 7.99073C0.489059 8.09142 0.610484 8.15463 0.74145 8.16813C0.752852 8.16931 0.764169 8.1712 0.775334 8.1738L2.10872 8.4838C2.18037 8.50046 2.24229 8.54528 2.2805 8.60813C2.41593 8.83094 2.49956 9.0815 2.5254 9.34112C2.53146 9.40201 2.51693 9.46317 2.48413 9.51482L1.76532 10.6468C1.76207 10.652 1.75864 10.657 1.75505 10.6619C1.68243 10.761 1.64861 10.884 1.66051 11.0071C1.6724 11.1303 1.72909 11.2442 1.81911 11.3271C1.82618 11.3337 1.8329 11.3405 1.83925 11.3478L2.6241 12.2414M0.000528388 6.38314V7.61517C-0.00682133 7.81814 0.0627281 8.01633 0.195107 8.16954C0.327486 8.32275 0.512802 8.41951 0.713399 8.44019L2.04679 8.7502C2.16091 8.93793 2.23144 9.14918 2.25324 9.36821L1.53444 10.5002C1.422 10.6537 1.36994 10.8436 1.38827 11.0334C1.40661 11.2233 1.49406 11.3995 1.63375 11.5283L2.44885 12.4563M2.6241 12.2414C2.612 12.2347 2.60001 12.2279 2.58812 12.2209L2.44885 12.4563M2.6241 12.2414L2.65434 12.2758L2.44885 12.4563M2.6241 12.2414C2.76798 12.32 2.9262 12.3685 3.08927 12.384C3.09484 12.3845 3.10038 12.3852 3.1059 12.3861C3.21504 12.4033 3.3267 12.3827 3.42287 12.3277M2.44885 12.4563C2.63672 12.5674 2.84652 12.6357 3.06343 12.6563C3.23991 12.684 3.42044 12.6486 3.57373 12.5563M3.42287 12.3277L3.41157 12.336L3.57373 12.5563M3.42287 12.3277C3.42612 12.3259 3.42936 12.324 3.43258 12.322L3.57373 12.5563M3.42287 12.3277L4.53347 11.51C4.61534 11.4497 4.72388 11.4399 4.8153 11.4843C4.91803 11.5343 5.0197 11.5863 5.11888 11.6371L5.12736 11.6414C5.23006 11.6939 5.33027 11.7451 5.43145 11.7941C5.51234 11.8333 5.56882 11.9098 5.58252 11.9986L5.78532 13.3139M3.57373 12.5563L4.69563 11.7303C4.79589 11.779 4.89545 11.83 4.99533 11.8811C5.1002 11.9347 5.20543 11.9885 5.31221 12.0403L5.51867 13.3793M5.78532 13.3139C5.78306 13.3076 5.7809 13.3013 5.77883 13.2949L5.51867 13.3793M5.78532 13.3139L5.78897 13.3376L5.51867 13.3793M5.78532 13.3139C5.83049 13.4395 5.91423 13.5471 6.02415 13.6212C6.13952 13.6989 6.27715 13.7352 6.4151 13.7246C6.42207 13.7241 6.42906 13.7238 6.43605 13.7238H7.55996C7.56705 13.7238 7.57414 13.7241 7.58121 13.7246C7.71927 13.7354 7.85707 13.6992 7.97258 13.6214C8.08258 13.5474 8.16638 13.4397 8.2116 13.3141M5.51867 13.3793C5.58079 13.5709 5.70501 13.736 5.87134 13.848C6.03768 13.9601 6.23652 14.0126 6.43605 13.9973H7.55996C7.75965 14.0129 7.95873 13.9604 8.12527 13.8483C8.29181 13.7363 8.41615 13.5711 8.47831 13.3793M8.2116 13.3141L8.20795 13.338L8.47831 13.3793M8.2116 13.3141C8.21388 13.3078 8.21606 13.3014 8.21814 13.295L8.47831 13.3793M8.2116 13.3141L8.41247 11.999C8.42601 11.9103 8.48214 11.834 8.56269 11.7946C8.74572 11.7051 8.93132 11.6107 9.1172 11.5161C9.13661 11.5062 9.15602 11.4963 9.17544 11.4865C9.26753 11.4396 9.37814 11.4487 9.46139 11.5099L10.5742 12.3278M8.47831 13.3793L8.68283 12.0403C8.86794 11.9498 9.05552 11.8543 9.24111 11.7599C9.26056 11.75 9.28 11.7401 9.29941 11.7303L10.4233 12.5563M10.5742 12.3278C10.571 12.326 10.5679 12.3241 10.5648 12.3222L10.4233 12.5563M10.5742 12.3278L10.5852 12.3359L10.4233 12.5563M10.5742 12.3278C10.6699 12.3828 10.7812 12.4033 10.8899 12.3861C10.8958 12.3852 10.9018 12.3845 10.9078 12.3839C11.0699 12.3692 11.227 12.3208 11.3695 12.2419M10.4233 12.5563C10.5761 12.6487 10.7564 12.6841 10.9326 12.6563C11.1491 12.6366 11.3584 12.5683 11.5452 12.4563M11.3695 12.2419L11.3399 12.2755L11.5452 12.4563M11.3695 12.2419C11.3813 12.2354 11.3929 12.2287 11.4045 12.2217L11.5452 12.4563M11.3695 12.2419L12.157 11.3475C12.1631 11.3406 12.1695 11.334 12.1762 11.3278C12.266 11.2444 12.3226 11.1303 12.3345 11.007C12.3464 10.8837 12.3128 10.7606 12.2404 10.6611L12.2397 10.6601L11.4235 9.52706C11.3644 9.44498 11.3554 9.33696 11.4002 9.24623C11.5028 9.03803 11.6049 8.83182 11.7062 8.62759C11.7426 8.55443 11.8097 8.50132 11.8892 8.48281L13.2217 8.1728C13.2332 8.17013 13.2449 8.16819 13.2566 8.16703C13.3879 8.15399 13.5097 8.09101 13.5972 7.99024C13.6847 7.8894 13.731 7.75842 13.7262 7.62397L13.7258 7.61417H13.726V6.38933M11.5452 12.4563L12.3623 11.5283L13.7262 6.39446C13.7261 6.39275 13.7261 6.39104 13.726 6.38933M6.91607 10.3587C6.92616 10.3599 6.93632 10.3606 6.9465 10.3607C7.79911 10.3697 8.62199 10.0475 9.24437 9.46159C9.86668 8.87576 10.2407 8.07138 10.2893 7.21567C10.2896 7.2105 10.2897 7.20533 10.2897 7.20016V7.00546C10.3046 6.61424 10.2431 6.22382 10.1086 5.85633C9.97467 5.49037 9.77095 5.15423 9.5089 4.86685C9.08458 4.33093 8.50389 3.94204 7.84813 3.75539C7.18904 3.56779 6.48794 3.59414 5.8446 3.83065C5.20128 4.06716 4.64871 4.50169 4.26502 5.07213C3.88311 5.63992 3.68776 6.31377 3.70614 6.99881C3.68314 7.62568 3.83826 8.24632 4.15349 8.7878C4.16518 8.80788 4.17939 8.8264 4.19576 8.84289L4.21593 8.86331C4.21873 8.92171 4.24019 8.9778 4.27732 9.02325C4.60201 9.42063 5.0061 9.74499 5.46343 9.97522C5.916 10.2031 6.41069 10.3336 6.91607 10.3587Z" stroke="#333333" stroke-width="0.547" stroke-linecap="round" stroke-linejoin="round"/>
</svg>
