<?xml version="1.0" standalone="no"?>
<!DOCTYPE svg PUBLIC "-//W3C//DTD SVG 20010904//EN"
 "http://www.w3.org/TR/2001/REC-SVG-20010904/DTD/svg10.dtd">
<svg version="1.0" xmlns="http://www.w3.org/2000/svg"
 width="536.000000pt" height="687.000000pt" viewBox="0 0 536.000000 687.000000"
 preserveAspectRatio="xMidYMid meet">

<g transform="translate(0.000000,687.000000) scale(0.100000,-0.100000)"
fill="#000000" stroke="none">
<path d="M2370 6596 c-52 -8 -133 -27 -180 -44 -47 -16 -112 -35 -145 -42 -33
-7 -75 -21 -95 -31 -19 -11 -41 -19 -48 -19 -7 0 -17 -12 -22 -26 -6 -14 -19
-28 -30 -31 -24 -6 -25 -20 -3 -45 9 -10 11 -18 5 -18 -6 0 -19 11 -28 25 -11
17 -23 23 -38 21 -11 -3 -24 -5 -28 -5 -5 -1 -8 -8 -8 -17 0 -17 -38 -53 -56
-54 -6 0 -17 -7 -24 -15 -7 -8 -21 -15 -32 -15 -15 0 -19 -5 -15 -20 4 -14 0
-20 -11 -20 -21 -1 -52 -24 -52 -39 0 -6 -4 -11 -9 -11 -5 0 -7 -8 -4 -18 2
-10 -3 -24 -11 -31 -9 -8 -16 -20 -16 -28 0 -7 -7 -16 -16 -20 -8 -3 -13 -12
-10 -19 3 -8 1 -14 -4 -14 -6 0 -10 -7 -10 -15 0 -7 -6 -18 -13 -22 -24 -15
-59 -74 -84 -141 -19 -52 -23 -77 -18 -112 4 -25 7 -69 6 -98 0 -32 6 -63 14
-76 12 -18 14 -47 12 -127 -5 -142 16 -354 47 -473 14 -55 23 -102 21 -105 -3
-2 2 -13 12 -23 15 -17 15 -18 -1 -18 -10 0 -29 9 -43 20 -16 12 -41 20 -64
20 -33 0 -42 -5 -60 -32 -16 -26 -19 -42 -13 -78 3 -25 9 -117 13 -205 5 -113
14 -187 30 -250 12 -49 29 -118 38 -152 8 -35 18 -61 22 -59 3 2 5 -12 3 -32
-8 -78 78 -121 172 -88 45 16 50 17 58 2 17 -29 29 -5 26 50 -2 30 -6 54 -10
54 -5 0 -8 13 -8 28 0 16 -8 55 -18 88 -63 200 -67 261 -42 534 22 234 43 336
78 395 11 17 28 57 40 90 11 33 27 76 36 95 8 20 17 81 21 135 11 162 13 186
18 191 2 3 20 7 39 9 20 3 48 9 62 15 36 13 49 13 40 -2 -5 -8 -2 -9 10 -5 10
4 25 7 34 7 15 0 15 2 2 10 -12 8 -9 10 13 10 16 0 37 5 48 11 15 8 24 7 36
-3 13 -11 17 -11 21 0 3 10 7 9 17 -4 10 -15 31 -18 110 -21 54 -1 103 1 109
5 35 26 97 35 164 23 73 -13 231 -8 261 8 10 6 65 13 122 17 89 6 116 3 189
-16 55 -14 92 -30 106 -45 11 -12 49 -35 83 -51 54 -24 68 -26 100 -18 39 11
139 -4 133 -19 -2 -5 13 -27 34 -50 46 -51 63 -90 75 -180 13 -91 50 -215 92
-307 40 -88 43 -99 62 -250 8 -63 21 -162 29 -219 18 -120 13 -217 -15 -306
-10 -33 -26 -103 -34 -155 -20 -125 -48 -222 -95 -326 -18 -39 -22 -42 -54
-39 -44 4 -59 13 -52 31 3 8 1 14 -4 14 -6 0 -10 20 -10 45 0 25 -4 45 -10 45
-5 0 -10 -22 -10 -50 0 -43 -3 -50 -20 -50 -12 0 -20 7 -20 18 0 10 -13 -2
-30 -30 -31 -50 -77 -71 -105 -48 -8 6 -18 9 -23 6 -5 -3 -27 11 -48 31 -71
66 -169 99 -214 71 -15 -10 -22 -9 -37 3 -31 27 -54 31 -69 12 -13 -17 -15
-17 -25 0 -13 22 -28 22 -44 0 -11 -15 -13 -15 -20 7 -5 15 -4 25 3 28 33 11
79 52 95 86 17 36 17 42 2 124 -9 47 -19 91 -22 96 -11 17 -5 196 8 249 10 43
9 116 -3 167 -2 12 10 15 77 13 82 -2 82 -2 -2 23 -26 7 -12 40 28 72 42 32
63 34 52 6 -6 -16 41 -94 57 -94 5 0 7 -6 4 -13 -3 -9 7 -12 35 -12 31 0 46 7
71 34 29 30 32 38 28 82 -5 53 2 60 40 33 28 -20 54 -68 46 -88 -5 -13 -70
-49 -124 -69 -10 -3 -7 -6 8 -6 13 -1 20 -5 17 -11 -4 -6 -33 -8 -68 -6 -34 3
-98 7 -142 10 l-80 6 60 -19 60 -19 -40 -2 -40 -2 35 -11 c19 -6 40 -17 45
-25 6 -7 26 -15 45 -17 19 -2 60 -7 91 -11 63 -7 129 9 129 32 0 8 11 19 24
25 13 6 29 22 35 35 11 26 14 27 79 24 25 -1 53 5 67 14 13 9 31 16 39 16 8 0
17 9 21 20 8 24 -13 99 -35 125 -26 30 -29 48 -12 68 13 15 14 23 4 51 -7 18
-12 45 -12 60 0 28 -28 86 -41 86 -4 0 -29 21 -56 46 -44 42 -50 45 -83 38
-19 -4 -57 -8 -85 -8 -27 0 -52 -4 -55 -8 -3 -4 -42 -9 -85 -12 -133 -9 -163
-16 -180 -43 -10 -14 -22 -22 -31 -19 -8 3 -14 -1 -14 -9 0 -8 -9 -15 -21 -15
-11 0 -32 -13 -46 -30 -13 -16 -33 -30 -42 -30 -10 0 -27 -17 -39 -39 -12 -21
-29 -44 -37 -51 -9 -8 -12 -17 -7 -24 5 -6 8 -33 7 -61 -2 -98 13 -205 35
-234 11 -16 20 -36 20 -45 0 -9 9 -26 20 -38 11 -12 20 -25 20 -30 0 -4 -9 -8
-20 -8 -18 0 -20 -7 -20 -55 0 -54 21 -115 40 -115 10 0 25 -39 22 -57 -2 -6
2 -14 8 -18 5 -3 10 -17 10 -29 0 -13 7 -29 15 -36 8 -7 15 -26 15 -42 l0 -29
-57 6 c-32 3 -68 8 -80 11 -15 3 -36 -8 -68 -36 -25 -22 -54 -40 -63 -41 -55
-4 -73 1 -104 25 -30 22 -45 26 -103 26 l-67 0 6 -32 c8 -42 32 -66 76 -74 32
-7 34 -6 21 10 -20 24 -9 29 37 17 39 -11 78 -41 53 -41 -7 0 -23 -11 -35 -25
-18 -19 -40 -28 -88 -35 -34 -6 -79 -15 -98 -21 -22 -7 -53 -7 -85 -2 -42 7
-57 5 -96 -13 -41 -20 -109 -84 -109 -102 0 -5 -8 -17 -17 -28 -10 -11 -25
-33 -33 -49 -21 -39 -36 -41 -48 -5 -6 16 -18 30 -26 30 -9 0 -16 6 -16 14 0
7 -16 30 -35 50 -29 31 -42 37 -81 40 -25 1 -49 7 -52 12 -4 5 -23 17 -43 26
-36 16 -36 16 -36 -7 0 -13 4 -23 8 -22 5 1 12 -42 15 -97 3 -68 10 -106 22
-124 12 -19 13 -24 3 -18 -11 7 -13 3 -7 -20 4 -16 11 -31 16 -34 5 -3 11 -19
15 -35 4 -17 27 -72 51 -123 43 -89 44 -93 29 -122 -8 -16 -21 -29 -28 -27 -7
1 -11 -6 -9 -16 2 -9 -4 -27 -13 -39 -8 -13 -15 -28 -15 -36 0 -7 -9 -25 -20
-40 -12 -16 -26 -63 -35 -117 -8 -49 -19 -101 -24 -115 -14 -37 -20 -119 -10
-126 5 -3 9 4 9 15 0 11 4 22 9 25 13 9 21 -20 9 -32 -13 -13 0 -35 17 -28 15
5 45 -34 45 -59 0 -8 4 -15 10 -15 14 0 42 -104 35 -132 -5 -18 1 -33 18 -54
31 -38 77 -171 77 -223 0 -23 4 -41 10 -41 16 0 51 -94 50 -135 -1 -22 -1 -96
-1 -165 0 -129 -13 -248 -30 -265 -5 -5 -9 -17 -9 -26 0 -10 -6 -19 -12 -22
-10 -4 -10 -7 0 -18 11 -11 14 -10 18 9 4 12 9 22 13 22 11 0 29 60 37 125 4
33 6 124 5 203 -2 142 5 167 31 119 8 -15 12 -77 12 -192 1 -144 -2 -176 -18
-210 -10 -22 -22 -52 -26 -67 -8 -26 -7 -28 20 -28 24 0 32 7 51 47 27 56 35
165 19 263 -6 36 -12 95 -14 133 -2 37 -8 73 -14 80 -15 18 -23 88 -14 121 9
33 -5 176 -19 191 -5 5 -9 22 -9 38 0 16 -6 68 -14 116 -21 125 -37 248 -41
314 -3 48 -1 57 13 57 15 0 15 2 2 10 -12 7 -13 15 -3 40 10 27 10 30 -2 20
-12 -10 -14 -6 -12 29 1 26 7 41 15 41 8 0 12 -8 10 -20 -2 -10 2 -19 7 -19 6
0 9 9 7 19 -4 26 10 25 26 -1 8 -12 20 -18 30 -15 12 4 24 -7 42 -35 24 -39
93 -99 114 -99 6 0 24 -18 39 -40 16 -22 33 -40 38 -40 5 0 9 -7 9 -15 0 -25
71 -85 100 -85 16 0 30 -7 34 -15 3 -8 12 -15 19 -15 8 0 20 -6 26 -14 7 -8
31 -24 54 -36 23 -12 52 -31 65 -43 24 -22 84 -47 116 -47 16 0 131 52 176 80
8 5 33 17 55 26 22 10 55 30 72 46 18 15 39 25 47 22 7 -3 28 11 47 30 18 20
39 36 46 36 7 0 20 11 29 25 9 14 25 25 35 25 12 0 23 10 29 25 9 25 28 32 90
37 26 2 36 8 39 23 7 38 43 47 58 13 11 -24 -4 -105 -22 -124 -6 -7 -17 -37
-24 -68 -8 -35 -22 -66 -38 -82 -19 -19 -23 -31 -18 -53 5 -24 2 -30 -14 -36
-12 -3 -21 -12 -21 -18 0 -7 -8 -24 -17 -37 -35 -49 -64 -136 -70 -207 l-6
-72 39 -3 39 -3 0 -63 c0 -34 3 -62 7 -62 5 0 8 10 9 23 0 12 3 16 6 10 2 -7
12 -13 20 -13 10 0 13 6 9 16 -10 26 31 154 80 252 25 50 50 92 55 92 5 0 9 8
9 18 0 15 -2 15 -11 2 -8 -11 -9 -9 -3 10 8 31 33 60 50 60 7 0 18 10 25 23 6
12 19 29 29 37 16 15 38 117 46 220 2 25 9 79 15 120 13 85 4 232 -17 271 -18
35 -20 89 -6 116 7 12 12 30 12 40 0 10 9 24 20 31 15 9 19 19 14 36 -5 20 11
99 42 221 3 11 8 43 10 71 2 29 11 65 19 80 9 18 15 57 15 104 0 99 6 108 59
86 62 -24 95 -21 136 15 31 27 35 37 35 77 0 26 11 76 24 112 14 36 37 109 52
164 23 86 26 110 20 190 -3 50 -9 137 -12 194 -6 94 -9 104 -32 122 -34 27
-71 25 -104 -7 -33 -32 -34 -26 -9 53 27 86 42 153 46 204 2 25 7 86 11 135 4
50 7 93 6 97 -1 4 -6 73 -11 153 -7 104 -14 153 -25 170 -9 13 -16 30 -16 37
0 7 -18 32 -40 55 -43 46 -58 86 -41 107 6 7 9 15 6 18 -3 3 -6 39 -8 80 -2
73 -4 79 -50 146 -55 81 -226 249 -334 329 -40 30 -109 69 -153 88 -44 19 -90
40 -102 47 -13 7 -28 11 -35 10 -7 -2 -43 6 -80 17 -69 20 -135 26 -423 35
-102 3 -187 0 -250 -8z m1075 -1676 c8 -13 -20 -24 -41 -16 -20 8 -9 26 16 26
10 0 22 -5 25 -10z m-240 -84 c7 3 16 1 19 -4 3 -5 -22 -12 -57 -15 -34 -3
-70 -8 -80 -12 -13 -6 -16 -3 -11 9 4 10 13 15 21 12 7 -3 16 0 19 8 4 10 14
12 41 6 19 -5 41 -6 48 -4z m-20 -85 c3 -5 1 -12 -5 -16 -5 -3 -10 1 -10 9 0
18 6 21 15 7z m-274 -64 c-8 -8 -11 -7 -11 4 0 20 13 34 18 19 3 -7 -1 -17 -7
-23z m-1455 -54 c-11 -11 -17 4 -9 23 7 18 8 18 11 1 2 -10 1 -21 -2 -24z m-5
-416 c-10 -9 -11 -8 -5 6 3 10 9 15 12 12 3 -3 0 -11 -7 -18z m2436 -74 c-3
-10 -5 -2 -5 17 0 19 2 27 5 18 2 -10 2 -26 0 -35z m-1109 -234 c-16 -11 -30
-7 -36 9 -2 7 7 16 20 21 17 6 24 5 26 -7 2 -8 -2 -18 -10 -23z m-164 -29 c28
-10 66 -45 66 -60 0 -5 -9 -10 -19 -10 -24 0 -36 -16 -19 -23 10 -4 11 -7 1
-18 -20 -21 -15 -32 12 -25 14 4 25 2 25 -3 0 -5 16 -20 36 -32 l37 -22 -22
-18 c-34 -27 -86 -34 -139 -17 -25 8 -48 20 -50 26 -1 5 9 21 23 34 26 24 26
25 10 69 -26 70 -29 90 -14 100 18 11 22 11 53 -1z m-774 -180 c0 -5 -7 -10
-15 -10 -8 0 -15 5 -15 10 0 6 7 10 15 10 8 0 15 -4 15 -10z m79 -79 c8 -5 10
-14 6 -21 -4 -7 -2 -16 6 -21 11 -7 11 -9 -3 -9 -19 0 -50 38 -42 52 7 10 15
10 33 -1z m771 -92 c58 1 117 4 133 7 20 4 29 1 34 -12 4 -10 2 -19 -5 -22 -7
-2 -10 -7 -7 -11 2 -5 -12 -26 -33 -49 -37 -40 -37 -40 -132 -47 -94 -7 -150
2 -150 25 0 5 -7 10 -15 10 -8 0 -15 -4 -15 -10 0 -5 -9 -10 -21 -10 -18 0
-20 4 -14 33 4 17 12 38 17 45 8 9 5 12 -10 12 -12 0 -24 5 -27 11 -4 6 -17
15 -29 20 -14 6 11 7 74 3 52 -4 142 -6 200 -5z"/>
<path d="M1903 5127 c-18 -6 -33 -16 -33 -22 0 -7 -10 -17 -22 -24 -78 -40
-83 -45 -83 -97 0 -27 6 -71 12 -99 15 -59 17 -112 4 -119 -5 -3 -9 -24 -9
-46 -1 -38 1 -41 45 -60 25 -11 54 -20 64 -20 9 0 31 -17 48 -37 17 -21 49
-52 72 -70 40 -31 46 -33 123 -33 52 0 91 5 110 15 15 8 35 15 42 15 8 0 14 4
14 9 0 5 16 16 35 25 19 9 37 21 41 27 6 11 -19 10 -193 -7 -73 -7 -113 0
-113 21 0 8 -12 21 -27 29 -16 8 -39 26 -52 40 l-24 25 26 34 c25 33 82 66 93
54 3 -3 1 -14 -5 -25 -33 -62 11 -132 81 -132 32 0 46 6 68 30 16 17 31 44 35
60 8 34 21 38 44 12 9 -10 29 -27 44 -37 15 -10 26 -22 24 -28 -1 -5 -27 -18
-57 -28 l-55 -19 70 4 c39 3 77 7 85 10 13 5 14 -4 12 -55 -6 -90 8 -95 72
-25 49 53 54 65 60 118 4 32 5 62 2 67 -3 5 -2 41 3 80 l9 71 -43 43 c-73 71
-116 107 -132 107 -8 0 -12 4 -9 8 7 12 -99 65 -131 65 -15 0 -41 0 -58 -1
-16 0 -52 1 -80 4 -27 3 -69 7 -93 8 -23 2 -45 6 -49 10 -8 8 -30 6 -70 -7z
m204 -283 c-3 -3 -12 -4 -19 -1 -8 3 -5 6 6 6 11 1 17 -2 13 -5z m43 -88 c0
-3 -4 -8 -10 -11 -5 -3 -10 -1 -10 4 0 6 5 11 10 11 6 0 10 -2 10 -4z m286
-62 c13 -14 24 -27 24 -30 0 -11 -22 -2 -40 16 -19 19 -26 40 -14 40 4 0 17
-11 30 -26z"/>
<path d="M1661 3914 c0 -11 3 -14 6 -6 3 7 2 16 -1 19 -3 4 -6 -2 -5 -13z"/>
<path d="M3592 3815 c0 -16 2 -22 5 -12 2 9 2 23 0 30 -3 6 -5 -1 -5 -18z"/>
<path d="M2145 2800 c3 -5 8 -10 11 -10 2 0 4 5 4 10 0 6 -5 10 -11 10 -5 0
-7 -4 -4 -10z"/>
<path d="M1635 2651 c-3 -5 -1 -12 5 -16 5 -3 10 1 10 9 0 18 -6 21 -15 7z"/>
<path d="M1730 2511 c0 -10 30 -24 37 -17 3 2 -5 9 -16 16 -12 6 -21 7 -21 1z"/>
<path d="M3535 2157 c-37 -133 -45 -167 -45 -197 0 -26 3 -31 12 -22 27 27 54
13 146 -71 20 -17 27 -19 40 -9 10 7 25 15 35 18 9 4 17 13 17 20 0 8 7 17 15
20 8 4 15 12 15 19 0 19 -188 222 -211 228 -11 3 -22 0 -24 -6z"/>
<path d="M3266 2003 c-6 -14 -5 -15 5 -6 7 7 10 15 7 18 -3 3 -9 -2 -12 -12z"/>
<path d="M1368 1887 c-75 -50 -165 -107 -200 -125 -78 -41 -134 -89 -143 -122
-3 -14 -3 -20 2 -15 12 16 61 35 87 35 13 0 31 9 41 20 11 13 25 18 37 14 10
-3 18 -1 18 5 0 6 9 11 20 11 11 0 23 7 27 16 4 11 13 13 34 9 22 -5 31 -2 35
10 4 10 1 21 -7 26 -11 7 -11 9 4 9 9 0 17 4 17 8 0 5 18 16 41 26 37 17 42
17 58 2 22 -20 50 -20 101 0 44 18 44 20 34 112 -7 50 -8 52 -38 52 -22 0 -68
-26 -168 -93z"/>
<path d="M3251 1915 c-1 -27 -5 -68 -10 -90 -8 -45 13 -115 36 -115 19 0 16
17 -7 40 -22 22 -23 34 -11 97 4 23 5 59 1 80 l-8 38 -1 -50z"/>
<path d="M3199 1884 c-6 -16 -17 -60 -23 -99 -14 -75 -5 -125 21 -125 10 0 12
-6 7 -22 -4 -13 -11 -26 -16 -29 -5 -4 -8 -17 -5 -30 l4 -24 8 22 c4 13 11 21
15 18 4 -2 17 9 29 25 21 29 21 30 2 30 -14 0 -18 5 -14 20 3 11 1 20 -5 20
-18 0 -23 60 -13 140 11 82 8 98 -10 54z"/>
<path d="M3837 1878 c21 -18 42 -39 46 -45 4 -7 16 -13 26 -13 10 0 24 -7 31
-15 7 -8 19 -15 27 -15 24 0 45 -28 38 -50 -7 -21 1 -25 24 -11 9 6 10 11 3
15 -6 4 -9 12 -6 19 6 17 -55 63 -131 99 -36 16 -67 34 -71 39 -3 5 -10 9 -15
9 -5 0 7 -15 28 -32z"/>
<path d="M3456 1875 c-3 -8 -1 -15 3 -15 5 0 11 7 15 15 3 8 1 15 -3 15 -5 0
-11 -7 -15 -15z"/>
<path d="M1535 1770 c3 -5 8 -10 11 -10 2 0 4 5 4 10 0 6 -5 10 -11 10 -5 0
-7 -4 -4 -10z"/>
<path d="M4030 1756 c0 -2 7 -7 16 -10 8 -3 12 -2 9 4 -6 10 -25 14 -25 6z"/>
<path d="M3335 1739 c-4 -6 -5 -13 -2 -16 7 -7 27 6 27 18 0 12 -17 12 -25 -2z"/>
<path d="M3295 1550 c3 -5 8 -10 11 -10 2 0 4 5 4 10 0 6 -5 10 -11 10 -5 0
-7 -4 -4 -10z"/>
<path d="M3014 1452 c-39 -21 -83 -47 -99 -59 -15 -13 -33 -23 -40 -23 -16 0
-40 -28 -31 -37 4 -4 16 -2 26 5 11 7 30 12 43 12 21 0 65 24 78 43 3 5 10 9
15 9 12 -1 84 67 84 78 0 6 -1 10 -2 9 -2 0 -35 -17 -74 -37z"/>
<path d="M1870 1464 c0 -8 5 -12 10 -9 6 3 10 10 10 16 0 5 -4 9 -10 9 -5 0
-10 -7 -10 -16z"/>
<path d="M3156 1441 c-4 -5 -2 -12 3 -15 5 -4 12 -2 15 3 4 5 2 12 -3 15 -5 4
-12 2 -15 -3z"/>
<path d="M2411 1315 c31 -32 94 -43 76 -14 -6 10 -23 21 -37 24 -14 3 -34 8
-45 12 -17 4 -17 1 6 -22z"/>
<path d="M2650 1310 c0 -5 5 -10 10 -10 6 0 10 5 10 10 0 6 -4 10 -10 10 -5 0
-10 -4 -10 -10z"/>
<path d="M2550 1260 c29 -23 48 -26 31 -6 -6 8 -22 16 -34 20 -21 5 -21 4 3
-14z"/>
<path d="M5130 1125 c0 -8 5 -15 10 -15 6 0 10 7 10 15 0 8 -4 15 -10 15 -5 0
-10 -7 -10 -15z"/>
<path d="M2695 1090 c3 -5 8 -10 11 -10 2 0 4 5 4 10 0 6 -5 10 -11 10 -5 0
-7 -4 -4 -10z"/>
<path d="M2695 1050 c-3 -5 -1 -10 4 -10 6 0 11 5 11 10 0 6 -2 10 -4 10 -3 0
-8 -4 -11 -10z"/>
<path d="M5070 901 c0 -11 -3 -28 -6 -38 -4 -14 -4 -15 4 -3 17 27 24 60 13
60 -6 0 -11 -9 -11 -19z"/>
<path d="M280 781 c0 -6 4 -13 10 -16 6 -3 7 1 4 9 -7 18 -14 21 -14 7z"/>
<path d="M311 724 c0 -11 3 -14 6 -6 3 7 2 16 -1 19 -3 4 -6 -2 -5 -13z"/>
<path d="M5300 699 c0 -5 5 -7 10 -4 6 3 10 8 10 11 0 2 -4 4 -10 4 -5 0 -10
-5 -10 -11z"/>
<path d="M5184 569 c-3 -6 -1 -16 4 -21 13 -13 45 8 36 23 -7 12 -31 11 -40
-2z"/>
<path d="M4997 515 c-19 -40 -21 -55 -9 -55 10 0 38 78 30 85 -2 3 -12 -11
-21 -30z"/>
<path d="M340 414 c0 -8 5 -12 10 -9 6 3 10 10 10 16 0 5 -4 9 -10 9 -5 0 -10
-7 -10 -16z"/>
<path d="M5140 419 c0 -5 5 -7 10 -4 6 3 10 8 10 11 0 2 -4 4 -10 4 -5 0 -10
-5 -10 -11z"/>
<path d="M5094 408 c-5 -7 -19 -33 -32 -58 -13 -25 -39 -59 -57 -75 -31 -29
-38 -46 -96 -233 -14 -43 11 -10 83 111 39 67 89 148 111 179 33 48 38 60 27
73 -15 18 -26 19 -36 3z"/>
<path d="M4600 399 c0 -5 5 -7 10 -4 6 3 10 8 10 11 0 2 -4 4 -10 4 -5 0 -10
-5 -10 -11z"/>
<path d="M365 240 c-3 -5 1 -10 9 -10 9 0 16 5 16 10 0 6 -4 10 -9 10 -6 0
-13 -4 -16 -10z"/>
<path d="M2420 209 c0 -5 5 -7 10 -4 6 3 10 8 10 11 0 2 -4 4 -10 4 -5 0 -10
-5 -10 -11z"/>
<path d="M4028 103 c7 -3 16 -2 19 1 4 3 -2 6 -13 5 -11 0 -14 -3 -6 -6z"/>
<path d="M352 63 c5 -25 28 -28 28 -4 0 12 -6 21 -16 21 -9 0 -14 -7 -12 -17z"/>
<path d="M397 9 c7 -7 15 -10 18 -7 3 3 -2 9 -12 12 -14 6 -15 5 -6 -5z"/>
</g>
</svg>
