<svg width="20" height="22" viewBox="0 0 20 22" fill="none" xmlns="http://www.w3.org/2000/svg">
<path d="M13.4392 4.11825L13.4395 4.11791C13.6385 3.91903 13.9549 3.91903 14.1538 4.11791L17.1913 7.15546L17.1932 7.15728L17.1952 7.15911C17.3867 7.34108 17.3923 7.65453 17.1913 7.85549L14.1538 10.893C13.9549 11.092 13.6385 11.092 13.4395 10.893L10.402 7.85549C10.2033 7.65664 10.2032 7.34038 10.4019 7.14153L10.402 7.14139L13.4392 4.11825ZM8.86077 17.9609C8.86077 18.2383 8.63169 18.4672 8.35452 18.4672H3.09512C2.81786 18.4672 2.58887 18.2383 2.58887 17.9609V12.7156C2.58887 12.4383 2.81786 12.2094 3.09512 12.2094H8.35452C8.63169 12.2094 8.86077 12.4383 8.86077 12.7156V17.9609ZM8.86077 9.84688C8.86077 10.1242 8.63169 10.3531 8.35452 10.3531H3.09512C2.81786 10.3531 2.58887 10.1242 2.58887 9.84688V4.60157C2.58887 4.32431 2.81786 4.09532 3.09512 4.09532H8.35452C8.63169 4.09532 8.86077 4.32431 8.86077 4.60157V9.84688ZM17.0311 17.9609C17.0311 18.2383 16.802 18.4672 16.5248 18.4672H11.2795C11.0022 18.4672 10.7733 18.2383 10.7733 17.9609V12.7156C10.7733 12.4383 11.0022 12.2094 11.2795 12.2094H16.5248C16.802 12.2094 17.0311 12.4383 17.0311 12.7156V17.9609Z" stroke="#0079C4"/>
</svg>
