<svg width="21" height="20" viewBox="0 0 21 20" fill="none" xmlns="http://www.w3.org/2000/svg">
<g clip-path="url(#clip0_5933_75835)">
<path d="M6.7207 11.25H11.7207V12.5H6.7207V11.25Z" fill="#0079C4"/>
<path d="M6.7207 8.125H14.2207V9.375H6.7207V8.125Z" fill="#0079C4"/>
<path d="M6.7207 14.375H9.8457V15.625H6.7207V14.375Z" fill="#0079C4"/>
<path d="M16.0957 3.125H14.2207V2.5C14.2207 2.16848 14.089 1.85054 13.8546 1.61612C13.6202 1.3817 13.3022 1.25 12.9707 1.25H7.9707C7.63918 1.25 7.32124 1.3817 7.08682 1.61612C6.8524 1.85054 6.7207 2.16848 6.7207 2.5V3.125H4.8457C4.51418 3.125 4.19624 3.2567 3.96182 3.49112C3.7274 3.72554 3.5957 4.04348 3.5957 4.375V17.5C3.5957 17.8315 3.7274 18.1495 3.96182 18.3839C4.19624 18.6183 4.51418 18.75 4.8457 18.75H16.0957C16.4272 18.75 16.7452 18.6183 16.9796 18.3839C17.214 18.1495 17.3457 17.8315 17.3457 17.5V4.375C17.3457 4.04348 17.214 3.72554 16.9796 3.49112C16.7452 3.2567 16.4272 3.125 16.0957 3.125ZM7.9707 2.5H12.9707V5H7.9707V2.5ZM16.0957 17.5H4.8457V4.375H6.7207V6.25H14.2207V4.375H16.0957V17.5Z" fill="#0079C4"/>
</g>
<defs>
<clipPath id="clip0_5933_75835">
<rect width="20" height="20" fill="white" transform="translate(0.470703)"/>
</clipPath>
</defs>
</svg>
