<svg width="20" height="20" viewBox="0 0 20 20" fill="none" xmlns="http://www.w3.org/2000/svg">
<path d="M2 4H17V16H2V11.5266H2.49998C3.29129 11.5258 3.93257 10.8428 3.93333 10.0001V10C3.93258 9.1572 3.29131 8.47421 2.50007 8.47338H2V4ZM16 5.0651H3.00001V7.46297C4.11143 7.71968 4.93202 8.75758 4.93334 9.99988V10C4.93202 11.2425 4.11142 12.2804 3.01607 12.534L3.00001 12.5371V14.935H16V5.0651ZM8.23331 7.83435H6.96666V6.76925H8.23331V7.83435ZM8.23331 10.5326H6.96666V9.46747H8.23331V10.5326ZM8.23331 13.2308H6.96666V12.1657H8.23331V13.2308Z" fill="#0079C4"/>
</svg>
