<svg width="20" height="20" viewBox="0 0 20 20" fill="none" xmlns="http://www.w3.org/2000/svg">
<path d="M1.87847 13.0272C1.90677 12.7578 2.10194 12.5407 2.4923 12.1067L3.35152 11.1461C3.56155 10.8802 3.71059 10.417 3.71059 10.0002C3.71059 9.58366 3.5615 9.12033 3.3515 8.85449L2.4923 7.89392C2.10194 7.4598 1.90676 7.24274 1.87847 6.97339C1.85017 6.70404 1.99597 6.45102 2.28756 5.94498L2.69887 5.23114C3.00996 4.69128 3.16549 4.42135 3.43014 4.31372C3.69479 4.20608 3.99409 4.29102 4.59271 4.46088L5.60957 4.7473C5.99174 4.83543 6.3927 4.78543 6.74166 4.60614L7.02239 4.44417C7.32162 4.25251 7.55179 3.96993 7.67919 3.63777L7.95749 2.80661C8.14047 2.2566 8.23196 1.98159 8.44975 1.82429C8.66758 1.66699 8.95692 1.66699 9.5355 1.66699H10.4645C11.0432 1.66699 11.3325 1.66699 11.5502 1.82429C11.7681 1.98159 11.8596 2.2566 12.0426 2.80661L12.3208 3.63777C12.4482 3.96993 12.6784 4.25251 12.9777 4.44417L13.2584 4.60614C13.6073 4.78543 14.0083 4.83543 14.3905 4.7473L15.4073 4.46088C16.0059 4.29102 16.3052 4.20608 16.5699 4.31372C16.8346 4.42135 16.9901 4.69128 17.3012 5.23114L17.7125 5.94498C18.0041 6.45102 18.1498 6.70404 18.1216 6.97339C18.0932 7.24274 17.8981 7.4598 17.5077 7.89392L16.6485 8.85449C16.4386 9.12033 16.2894 9.58366 16.2894 10.0002C16.2894 10.417 16.4385 10.8802 16.6485 11.1461L17.5077 12.1067C17.8981 12.5407 18.0932 12.7578 18.1216 13.0272C18.1498 13.2966 18.0041 13.5496 17.7125 14.0556L17.3012 14.7694C16.9901 15.3092 16.8346 15.5792 16.5699 15.6868C16.3052 15.7945 16.0059 15.7096 15.4073 15.5397L14.3905 15.2532C14.0082 15.1651 13.6072 15.2152 13.2582 15.3945L12.9776 15.5565C12.6783 15.7482 12.4482 16.0307 12.3209 16.3628L12.0426 17.1941C11.8596 17.7441 11.7681 18.0191 11.5502 18.1763C11.3325 18.3337 11.0432 18.3337 10.4645 18.3337H9.5355C8.95692 18.3337 8.66758 18.3337 8.44975 18.1763C8.23196 18.0191 8.14047 17.7441 7.95749 17.1941" stroke="#0079C4" stroke-linecap="round"/>
<path d="M13.5415 8.87593L12.9165 8.87326V8.87593H13.5415ZM11.3336 6.66724V7.29225L11.3362 7.29224L11.3336 6.66724ZM9.67192 14.1339C10.4516 14.1319 11.1567 14.1188 11.7481 14.0213C12.3446 13.9231 12.9043 13.7276 13.3327 13.2993L12.4488 12.4153C12.2823 12.5818 12.0172 12.7102 11.5448 12.788C11.0674 12.8666 10.4597 12.8819 9.66875 12.8839L9.67192 14.1339ZM13.3327 13.2993C13.5172 13.1148 13.6921 12.9191 13.8274 12.6705C13.9654 12.4173 14.0427 12.1462 14.0889 11.8288C14.1753 11.2358 14.1665 10.3448 14.1665 8.87593H12.9165C12.9165 10.4109 12.9214 11.1716 12.852 11.6488C12.8202 11.8665 12.7773 11.9852 12.7297 12.0726C12.6795 12.1648 12.6034 12.2608 12.4488 12.4153L13.3327 13.2993ZM14.1665 8.87859C14.1702 8.02903 13.1435 7.60387 12.5444 8.20273L13.4281 9.08684C13.2396 9.27518 12.9153 9.14226 12.9165 8.87326L14.1665 8.87859ZM12.5444 8.20273L10.9971 9.74934L11.8808 10.6334L13.4281 9.08684L12.5444 8.20273ZM10.9971 9.74934C10.8484 9.89793 10.6074 9.89793 10.4587 9.74934L9.575 10.6333C10.2117 11.2699 11.244 11.27 11.8808 10.6334L10.9971 9.74934ZM7.32486 10.5393C7.32687 9.74876 7.34214 9.14118 7.42081 8.66376C7.49865 8.19145 7.62695 7.92632 7.79344 7.75986L6.90962 6.8759C6.48127 7.30419 6.28574 7.86408 6.18745 8.46051C6.09 9.05193 6.07685 9.75693 6.07486 10.5361L7.32486 10.5393ZM7.79344 7.75986C7.94797 7.60535 8.044 7.52929 8.13625 7.47905C8.22372 7.43142 8.34241 7.38847 8.56025 7.35677C9.0375 7.2873 9.79833 7.29225 11.3336 7.29225V6.04224C9.8645 6.04224 8.97341 6.03346 8.38025 6.1198C8.06287 6.16599 7.79179 6.24332 7.53848 6.38125C7.28993 6.51659 7.09419 6.69137 6.90962 6.8759L7.79344 7.75986ZM11.3362 7.29224C11.0677 7.29339 10.934 6.96929 11.1228 6.78049L12.0067 7.66434C12.6061 7.06495 12.1802 6.03862 11.3309 6.04225L11.3362 7.29224ZM11.1228 6.78049L9.57592 8.32749L10.4598 9.21134L12.0067 7.66434L11.1228 6.78049ZM9.57592 8.32749C8.94017 8.96334 8.93725 9.99568 9.575 10.6333L10.4587 9.74934C10.3111 9.60168 10.3104 9.36084 10.4598 9.21134L9.57592 8.32749ZM2.78929 17.4195C2.40356 17.0338 2.40356 16.4083 2.78929 16.0227L1.90541 15.1388C1.03153 16.0127 1.03153 17.4295 1.90541 18.3033L2.78929 17.4195ZM4.18611 17.4195C3.80038 17.8052 3.17501 17.8052 2.78929 17.4195L1.90541 18.3033C2.77928 19.1773 4.19611 19.1773 5.06999 18.3033L4.18611 17.4195ZM8.04964 13.5554L4.18611 17.4195L5.06999 18.3033L8.93358 14.4392L8.04964 13.5554ZM2.78929 16.0227L6.65353 12.1582L5.76962 11.2743L1.90541 15.1388L2.78929 16.0227ZM6.07486 10.5361C6.0744 10.7163 6.07374 10.8174 6.06784 10.8933C6.0652 10.9271 6.06215 10.9456 6.06015 10.9552C6.05921 10.9597 6.05826 10.9628 6.05801 10.9637L7.21227 11.4434C7.33436 11.1498 7.32412 10.83 7.32486 10.5393L6.07486 10.5361ZM6.65353 12.1582C6.85769 11.954 7.09023 11.737 7.21227 11.4434L6.05801 10.9637C6.058 10.9637 6.05791 10.9639 6.05752 10.9646C6.0571 10.9654 6.05591 10.9676 6.05342 10.9713C6.04818 10.9793 6.03737 10.9943 6.01554 11.0198C5.96653 11.0768 5.89612 11.1478 5.76962 11.2743L6.65353 12.1582ZM9.66875 12.8839C9.378 12.8847 9.05816 12.8744 8.76441 12.9965L9.24433 14.1508C9.24383 14.1508 9.24441 14.1507 9.24433 14.1508C9.24516 14.1505 9.24825 14.1496 9.25275 14.1486C9.26233 14.1466 9.28083 14.1436 9.31475 14.1409C9.39058 14.135 9.49166 14.1343 9.67192 14.1339L9.66875 12.8839ZM8.93358 14.4392C9.06008 14.3127 9.13108 14.2423 9.18816 14.1933C9.21358 14.1714 9.22858 14.1606 9.23658 14.1553C9.24033 14.1528 9.2425 14.1517 9.24333 14.1513C9.24408 14.1508 9.24425 14.1508 9.24433 14.1508L8.76441 12.9965C8.47083 13.1186 8.25381 13.3512 8.04964 13.5554L8.93358 14.4392Z" fill="#0079C4"/>
</svg>
