<svg width="28" height="28" viewBox="0 0 28 28" fill="none" xmlns="http://www.w3.org/2000/svg">
<path d="M16.1529 9.43957C16.1499 9.78863 16.01 10.1226 15.7632 10.3694C15.5163 10.6162 15.1824 10.7562 14.8334 10.7591C14.5301 10.7605 14.2361 10.6548 14.0031 10.4607V13.9959H10.8139C10.9833 14.1856 11.0943 14.4201 11.1335 14.6713C11.1728 14.9225 11.1386 15.1797 11.0351 15.4119C10.9316 15.6442 10.7633 15.8416 10.5503 15.9804C10.3373 16.1192 10.0887 16.1936 9.83444 16.1944C9.58019 16.1936 9.33161 16.1192 9.1186 15.9804C8.90559 15.8416 8.73723 15.6442 8.63376 15.4119C8.53029 15.1797 8.49612 14.9225 8.53536 14.6713C8.5746 14.4201 8.68558 14.1856 8.85496 13.9959H5.66986V5.66678H13.999V8.41746C14.2318 8.22296 14.526 8.11723 14.8293 8.11904C15.003 8.11862 15.175 8.15278 15.3353 8.21952C15.4956 8.28627 15.641 8.38427 15.7631 8.5078C15.8874 8.62894 15.9859 8.77389 16.0529 8.93399C16.1198 9.09408 16.1538 9.26604 16.1529 9.43957Z" stroke="currentColor" stroke-width="0.75" stroke-miterlimit="10"/>
<path d="M11.8645 18.1636C11.865 18.3956 11.9254 18.6236 12.04 18.8253C12.1563 19.0251 12.323 19.1907 12.5234 19.3058C12.7237 19.4209 12.9508 19.4813 13.1819 19.481C13.4136 19.4804 13.6412 19.4199 13.8427 19.3054C13.8996 19.2763 13.9522 19.2394 13.999 19.1958V22.3281H5.66986V14H8.85496C8.68558 14.1896 8.5746 14.4241 8.53536 14.6753C8.49612 14.9266 8.53029 15.1837 8.63376 15.416C8.73723 15.6482 8.90559 15.8456 9.1186 15.9845C9.33161 16.1233 9.58019 16.1976 9.83444 16.1985C10.0887 16.1976 10.3373 16.1233 10.5503 15.9845C10.7633 15.8456 10.9316 15.6482 11.0351 15.416C11.1386 15.1837 11.1728 14.9266 11.1335 14.6753C11.0943 14.4241 10.9833 14.1896 10.8139 14H13.999V17.1323C13.8047 16.9806 13.5719 16.8864 13.3268 16.8603C13.0817 16.8342 12.8342 16.8772 12.6123 16.9846C12.3904 17.0919 12.2031 17.2592 12.0714 17.4676C11.9398 17.676 11.8691 17.9171 11.8675 18.1636H11.8645Z" stroke="currentColor" stroke-width="0.75" stroke-miterlimit="10"/>
<path d="M22.3302 5.67085V14H19.1837C19.3407 13.8064 19.4398 13.5722 19.4693 13.3247C19.4987 13.0771 19.4575 12.8262 19.3502 12.6011C19.243 12.376 19.0742 12.1859 18.8634 12.0528C18.6526 11.9197 18.4083 11.8491 18.159 11.8491C17.9097 11.8491 17.6655 11.9197 17.4546 12.0528C17.2438 12.1859 17.075 12.376 16.9678 12.6011C16.8605 12.8262 16.8193 13.0771 16.8487 13.3247C16.8782 13.5722 16.9773 13.8064 17.1344 14H13.999V10.4647C14.232 10.6588 14.526 10.7645 14.8293 10.7631C15.1783 10.7602 15.5123 10.6203 15.7591 10.3734C16.0059 10.1266 16.1459 9.79268 16.1488 9.44363C16.1492 9.27078 16.115 9.09959 16.048 8.94023C15.981 8.78087 15.8828 8.63658 15.759 8.51591C15.637 8.39238 15.4915 8.2944 15.3312 8.22765C15.1709 8.16091 14.9989 8.12675 14.8252 8.12717C14.5219 8.12536 14.2277 8.23108 13.9949 8.42557V5.67491L22.3302 5.67085Z" stroke="currentColor" stroke-width="0.75" stroke-miterlimit="10"/>
<path d="M22.3302 14V22.3281H13.999V19.1958C13.9522 19.2394 13.8996 19.2763 13.8427 19.3055C13.6412 19.4199 13.4136 19.4804 13.1819 19.481C12.9508 19.4813 12.7237 19.4209 12.5233 19.3058C12.323 19.1907 12.1563 19.0251 12.04 18.8253C11.9254 18.6236 11.8649 18.3956 11.8644 18.1636C11.8661 17.9171 11.9367 17.676 12.0684 17.4676C12.2 17.2592 12.3874 17.0919 12.6093 16.9846C12.8311 16.8772 13.0786 16.8342 13.3237 16.8603C13.5688 16.8864 13.8017 16.9806 13.996 17.1323V14H17.1354C16.9783 13.8064 16.8793 13.5722 16.8498 13.3247C16.8203 13.0771 16.8616 12.8262 16.9688 12.6011C17.076 12.376 17.2448 12.1859 17.4556 12.0528C17.6665 11.9198 17.9107 11.8491 18.16 11.8491C18.4094 11.8491 18.6536 11.9198 18.8644 12.0528C19.0752 12.1859 19.244 12.376 19.3513 12.6011C19.4585 12.8262 19.4998 13.0771 19.4703 13.3247C19.4408 13.5722 19.3418 13.8064 19.1847 14H22.3302Z" stroke="currentColor" stroke-width="0.75" stroke-miterlimit="10"/>
</svg>
