<svg width="24" height="24" viewBox="0 0 24 24" fill="none" xmlns="http://www.w3.org/2000/svg">
<path fill-rule="evenodd" clip-rule="evenodd" d="M0 24C0.134108 23.4817 0.252166 23.0301 0.374265 22.5776C0.774589 21.1332 1.17497 19.6868 1.55527 18.2434C1.61188 18.0096 1.58677 17.7635 1.48417 17.5457C0.135294 15.0371 -0.267913 12.1307 0.347449 9.35176C0.962811 6.57285 2.55616 4.10489 4.83936 2.39416C7.12257 0.683434 9.94498 -0.157173 12.7963 0.0242645C15.6476 0.205702 18.3396 1.39721 20.3857 3.38342C22.4318 5.36963 23.6968 8.01947 23.9521 10.8538C24.2074 13.6881 23.4361 16.5198 21.7777 18.8371C20.1193 21.1543 17.6831 22.804 14.9098 23.488C12.1364 24.1721 9.20886 23.8453 6.65638 22.5666C6.42594 22.4614 6.16737 22.4338 5.91977 22.4878C2.7482 23.2803 0.639517 23.8754 0 24ZM2.78924 21.2598C3.98221 20.9518 5.08111 20.6776 6.16899 20.3716C6.30592 20.3311 6.45002 20.3207 6.59139 20.3412C6.73276 20.3617 6.86799 20.4125 6.98765 20.4903C8.98041 21.6741 11.33 22.1159 13.619 21.7372C15.7214 21.4092 17.6642 20.4221 19.165 18.9195C20.6659 17.4169 21.6468 15.4769 21.9653 13.3812C22.2838 11.2855 21.9233 9.14322 20.9361 7.26549C19.949 5.38777 18.3866 3.87232 16.4758 2.93923C14.565 2.00613 12.4053 1.704 10.3104 2.07664C8.21546 2.44927 6.2943 3.47728 4.82592 5.01144C3.35755 6.54559 2.41843 8.506 2.14486 10.608C1.8713 12.71 2.27756 14.8441 3.30467 16.7004C3.49094 16.9755 3.60841 17.2909 3.64724 17.6204C3.68606 17.9499 3.64508 18.2839 3.52782 18.5944C3.23058 19.4337 3.04745 20.3088 2.78924 21.2598Z" fill="#0B8F21"/>
<path fill-rule="evenodd" clip-rule="evenodd" d="M15.1682 17.6005C12.8303 17.5178 9.10533 15.6786 6.55426 11.2658C6.08973 10.559 5.89044 9.71164 5.99149 8.87289C6.09254 8.03414 6.48748 7.25779 7.10671 6.68052C7.32526 6.52094 7.57962 6.41699 7.84773 6.37772C8.11583 6.33846 8.38953 6.36506 8.64494 6.45523C8.77405 6.47417 8.90914 6.67158 8.97419 6.81711C9.31446 7.58764 9.64873 8.35812 9.94397 9.14758C10.1011 9.56325 9.81288 9.95501 9.20839 10.6498C9.11411 10.7332 9.05369 10.848 9.03857 10.9727C9.02345 11.0974 9.05471 11.2233 9.12635 11.3266C10.0595 12.9528 11.5276 14.2084 13.2827 14.8812C13.3906 14.9329 13.5136 14.9444 13.6293 14.9135C13.745 14.8826 13.8457 14.8113 13.9132 14.7127C14.869 13.5505 14.967 13.2105 15.4694 13.4488C17.8884 14.6011 18.0775 14.645 18.0886 14.9221C18.0983 15.2965 18.0276 15.6686 17.8811 16.0135C17.7345 16.3584 17.5156 16.6681 17.239 16.9218C16.9624 17.1755 16.6345 17.3672 16.2773 17.4843C15.9202 17.6014 15.542 17.641 15.1682 17.6005Z" fill="#0B8F21"/>
</svg>
