<svg width="28" height="28" viewBox="0 0 28 28" fill="none" xmlns="http://www.w3.org/2000/svg">
<path d="M21.4634 4.34832V23.6507H21.1274C20.8811 23.6502 20.6373 23.6011 20.4099 23.5064C20.1825 23.4116 19.976 23.273 19.8022 23.0985C19.6284 22.9239 19.4907 22.7168 19.3969 22.489C19.3032 22.2613 19.2552 22.0172 19.2557 21.7709V19.7551H7.44813V5.84949C7.44759 5.65248 7.48587 5.45732 7.56077 5.27511C7.63566 5.09289 7.74572 4.9272 7.88465 4.78752C8.02357 4.64784 8.18866 4.53689 8.37046 4.46101C8.55227 4.38513 8.74724 4.34579 8.94425 4.34525L21.4634 4.34832Z" stroke="currentColor" stroke-width="0.75" stroke-miterlimit="10"/>
<path d="M21.1274 23.6507H7.15989C6.91356 23.6502 6.66975 23.6011 6.44238 23.5064C6.21501 23.4116 6.00853 23.273 5.83473 23.0985C5.66093 22.9239 5.52321 22.7168 5.42944 22.489C5.33567 22.2613 5.28768 22.0172 5.28821 21.7709V19.7551H19.2557V21.7709C19.2552 22.0172 19.3032 22.2613 19.397 22.489C19.4907 22.7168 19.6284 22.9239 19.8022 23.0985C19.9761 23.273 20.1825 23.4116 20.4099 23.5064C20.6373 23.6011 20.8811 23.6502 21.1274 23.6507Z" stroke="currentColor" stroke-width="0.75" stroke-miterlimit="10"/>
<path d="M21.4634 4.34832H22.1942C22.3315 4.34832 22.4631 4.40286 22.5602 4.49994C22.6573 4.59702 22.7118 4.72868 22.7118 4.86597V7.0523C22.7118 7.26443 22.6276 7.46787 22.4776 7.61786C22.3276 7.76786 22.1241 7.85213 21.912 7.85213H21.4634V4.34832Z" stroke="currentColor" stroke-width="0.75" stroke-miterlimit="10"/>
<path d="M10.4241 8.35557H18.4874" stroke="currentColor" stroke-width="0.75" stroke-miterlimit="10"/>
<path d="M10.4241 10.3714H18.4874" stroke="currentColor" stroke-width="0.75" stroke-miterlimit="10"/>
<path d="M10.4241 12.3882H18.4874" stroke="currentColor" stroke-width="0.75" stroke-miterlimit="10"/>
<path d="M14.4557 16.4198C14.8094 16.242 15.1998 16.1494 15.5956 16.1494C15.9914 16.1494 16.3818 16.242 16.7355 16.4198C16.7355 16.4198 16.5913 17.2115 17.384 16.4198C18.1768 15.6281 17.8916 15.0516 18.1758 15.6271C18.46 16.2026 18.3919 16.0331 18.9675 16.0828C19.543 16.1325 18.5351 15.4119 19.544 16.1315" stroke="currentColor" stroke-width="0.75" stroke-miterlimit="10"/>
</svg>
