<svg width="18" height="18" viewBox="0 0 18 18" fill="none" xmlns="http://www.w3.org/2000/svg">
<path d="M5.45906 14.4032C3.94439 14.4032 2.65548 13.8815 1.59231 12.838C0.529142 11.7943 -0.00244141 10.518 -0.00244141 9.00895C-0.00244141 7.50012 0.529142 6.2207 1.59231 5.1707C2.65548 4.1207 3.94439 3.5957 5.45906 3.5957H14.1898C15.2475 3.5957 16.1466 3.95945 16.8871 4.68695C17.6274 5.41445 17.9976 6.30704 17.9976 7.3647C17.9976 8.42254 17.6274 9.3152 16.8871 10.0427C16.1466 10.7702 15.2475 11.134 14.1898 11.134H5.92056C5.33339 11.134 4.82764 10.9291 4.40331 10.5195C3.97898 10.1098 3.76681 9.61045 3.76681 9.02145C3.76681 8.43245 3.97564 7.92579 4.39331 7.50145C4.81098 7.07695 5.32006 6.8647 5.92056 6.8647H14.2283V7.8647H5.92056C5.60139 7.8647 5.32931 7.97404 5.10431 8.1927C4.87931 8.41137 4.76681 8.68029 4.76681 8.99945C4.76681 9.31862 4.87931 9.58754 5.10431 9.8062C5.32931 10.0247 5.60139 10.134 5.92056 10.134H14.2091C14.9861 10.1301 15.6451 9.86304 16.1861 9.3327C16.7271 8.80237 16.9976 8.14637 16.9976 7.3647C16.9976 6.58937 16.7238 5.93404 16.1763 5.3987C15.629 4.86337 14.9668 4.5957 14.1898 4.5957H5.45906C4.22439 4.5917 3.17214 5.0192 2.30231 5.8782C1.43248 6.7372 0.997559 7.78312 0.997559 9.01595C0.997559 10.2315 1.43248 11.2646 2.30231 12.1155C3.17214 12.9663 4.22439 13.3955 5.45906 13.4032H14.2283V14.4032H5.45906Z" fill="#333333"/>
</svg>
