<svg width="34" height="34" viewBox="0 0 34 34" fill="none" xmlns="http://www.w3.org/2000/svg">
<circle cx="17" cy="17" r="16.75" transform="matrix(1 0 0 -1 0 34)" stroke="#7D7D7D" stroke-width="0.5"/>
<path d="M8.8215 26.4433H18.8256L22.1727 29.372C22.2416 29.4323 22.33 29.4655 22.4215 29.4655C22.513 29.4655 22.6014 29.4323 22.6703 29.372L28.7147 24.0831C28.7725 24.0325 28.8136 23.9655 28.8323 23.8909C28.8511 23.8164 28.8466 23.7379 28.8196 23.6659C28.7926 23.594 28.7442 23.532 28.681 23.4882C28.6178 23.4445 28.5428 23.421 28.4659 23.421H25.8215V18.5099C25.8215 18.4097 25.7817 18.3136 25.7108 18.2428C25.64 18.172 25.5439 18.1322 25.4437 18.1322H22.7993V10.9544C22.7993 10.9048 22.7895 10.8556 22.7705 10.8098C22.7515 10.764 22.7237 10.7223 22.6886 10.6872L18.9109 6.90947C18.8758 6.87439 18.8341 6.84656 18.7883 6.82758C18.7425 6.8086 18.6933 6.79883 18.6437 6.79883H8.8215C8.32071 6.79939 7.84059 6.99858 7.48648 7.35269C7.13237 7.7068 6.93318 8.18692 6.93262 8.68772V24.5544C6.93318 25.0552 7.13237 25.5353 7.48648 25.8894C7.84059 26.2435 8.32071 26.4427 8.8215 26.4433ZM25.0659 18.8877V23.7988C25.0659 23.899 25.1057 23.9951 25.1766 24.0659C25.2474 24.1368 25.3435 24.1766 25.4437 24.1766H27.4605L22.4215 28.5857L17.3825 24.1766H19.3993C19.4995 24.1766 19.5956 24.1368 19.6664 24.0659C19.7372 23.9951 19.7771 23.899 19.7771 23.7988V18.8877H25.0659ZM19.0215 8.08861L21.5095 10.5766H20.1548C19.8544 10.5763 19.5663 10.4568 19.3538 10.2443C19.1413 10.0318 19.0218 9.74375 19.0215 9.44327V8.08861ZM7.68817 8.68772C7.68851 8.38724 7.80802 8.09917 8.02049 7.8867C8.23296 7.67423 8.52103 7.55472 8.8215 7.55438H18.2659V9.44327C18.2665 9.94406 18.4657 10.4242 18.8198 10.7783C19.1739 11.1324 19.654 11.3316 20.1548 11.3322H22.0437V18.1322H19.3993C19.2991 18.1322 19.203 18.172 19.1321 18.2428C19.0613 18.3136 19.0215 18.4097 19.0215 18.5099V23.421H16.3771C16.3002 23.421 16.2252 23.4445 16.162 23.4882C16.0988 23.532 16.0504 23.594 16.0234 23.6659C15.9964 23.7379 15.9919 23.8164 16.0107 23.8909C16.0294 23.9655 16.0704 24.0325 16.1283 24.0831L17.9621 25.6877H8.8215C8.52103 25.6874 8.23296 25.5679 8.02049 25.3554C7.80802 25.1429 7.68851 24.8548 7.68817 24.5544V8.68772Z" fill="#7D7D7D"/>
<path d="M12.9766 13.2215C12.9766 13.3217 13.0164 13.4178 13.0872 13.4887C13.1581 13.5595 13.2541 13.5993 13.3543 13.5993H20.1543C20.2545 13.5993 20.3506 13.5595 20.4215 13.4887C20.4923 13.4178 20.5321 13.3217 20.5321 13.2215C20.5321 13.1213 20.4923 13.0252 20.4215 12.9544C20.3506 12.8836 20.2545 12.8438 20.1543 12.8438H13.3543C13.2541 12.8438 13.1581 12.8836 13.0872 12.9544C13.0164 13.0252 12.9766 13.1213 12.9766 13.2215Z" fill="#7D7D7D"/>
<path d="M9.577 15.8649H15.6214C15.7216 15.8649 15.8177 15.8251 15.8886 15.7543C15.9594 15.6834 15.9992 15.5873 15.9992 15.4872C15.9992 15.387 15.9594 15.2909 15.8886 15.22C15.8177 15.1492 15.7216 15.1094 15.6214 15.1094H9.577C9.4768 15.1094 9.38071 15.1492 9.30987 15.22C9.23902 15.2909 9.19922 15.387 9.19922 15.4872C9.19922 15.5873 9.23902 15.6834 9.30987 15.7543C9.38071 15.8251 9.4768 15.8649 9.577 15.8649Z" fill="#7D7D7D"/>
<path d="M9.577 20.4001H16.377C16.4772 20.4001 16.5733 20.3603 16.6441 20.2894C16.715 20.2186 16.7548 20.1225 16.7548 20.0223C16.7548 19.9221 16.715 19.826 16.6441 19.7552C16.5733 19.6843 16.4772 19.6445 16.377 19.6445H9.577C9.4768 19.6445 9.38071 19.6843 9.30987 19.7552C9.23902 19.826 9.19922 19.9221 9.19922 20.0223C9.19922 20.1225 9.23902 20.2186 9.30987 20.2894C9.38071 20.3603 9.4768 20.4001 9.577 20.4001Z" fill="#7D7D7D"/>
<path d="M9.577 13.5993H11.8437C11.9439 13.5993 12.0399 13.5595 12.1108 13.4887C12.1816 13.4178 12.2214 13.3217 12.2214 13.2215C12.2214 13.1213 12.1816 13.0252 12.1108 12.9544C12.0399 12.8836 11.9439 12.8438 11.8437 12.8438H9.577C9.4768 12.8438 9.38071 12.8836 9.30987 12.9544C9.23902 13.0252 9.19922 13.1213 9.19922 13.2215C9.19922 13.3217 9.23902 13.4178 9.30987 13.4887C9.38071 13.5595 9.4768 13.5993 9.577 13.5993Z" fill="#7D7D7D"/>
<path d="M20.1549 15.1094H17.1327C17.0325 15.1094 16.9364 15.1492 16.8655 15.22C16.7947 15.2909 16.7549 15.387 16.7549 15.4872C16.7549 15.5873 16.7947 15.6834 16.8655 15.7543C16.9364 15.8251 17.0325 15.8649 17.1327 15.8649H20.1549C20.2551 15.8649 20.3512 15.8251 20.422 15.7543C20.4929 15.6834 20.5327 15.5873 20.5327 15.4872C20.5327 15.387 20.4929 15.2909 20.422 15.22C20.3512 15.1492 20.2551 15.1094 20.1549 15.1094Z" fill="#7D7D7D"/>
<path d="M9.577 18.1325H14.1103C14.2105 18.1325 14.3066 18.0927 14.3775 18.0219C14.4483 17.951 14.4881 17.8549 14.4881 17.7547C14.4881 17.6545 14.4483 17.5584 14.3775 17.4876C14.3066 17.4168 14.2105 17.377 14.1103 17.377H9.577C9.4768 17.377 9.38071 17.4168 9.30987 17.4876C9.23902 17.5584 9.19922 17.6545 9.19922 17.7547C9.19922 17.8549 9.23902 17.951 9.30987 18.0219C9.38071 18.0927 9.4768 18.1325 9.577 18.1325Z" fill="#7D7D7D"/>
<path d="M9.577 11.3337H14.1103C14.2105 11.3337 14.3066 11.2939 14.3775 11.223C14.4483 11.1522 14.4881 11.0561 14.4881 10.9559C14.4881 10.8557 14.4483 10.7596 14.3775 10.6888C14.3066 10.6179 14.2105 10.5781 14.1103 10.5781H9.577C9.4768 10.5781 9.38071 10.6179 9.30987 10.6888C9.23902 10.7596 9.19922 10.8557 9.19922 10.9559C9.19922 11.0561 9.23902 11.1522 9.30987 11.223C9.38071 11.2939 9.4768 11.3337 9.577 11.3337Z" fill="#7D7D7D"/>
<path d="M17.1321 17.377H15.6209C15.5207 17.377 15.4247 17.4168 15.3538 17.4876C15.283 17.5584 15.2432 17.6545 15.2432 17.7547C15.2432 17.8549 15.283 17.951 15.3538 18.0219C15.4247 18.0927 15.5207 18.1325 15.6209 18.1325H17.1321C17.2322 18.1325 17.3283 18.0927 17.3992 18.0219C17.47 17.951 17.5098 17.8549 17.5098 17.7547C17.5098 17.6545 17.47 17.5584 17.3992 17.4876C17.3283 17.4168 17.2322 17.377 17.1321 17.377Z" fill="#7D7D7D"/>
<path d="M9.577 22.6657H11.8437C11.9439 22.6657 12.0399 22.6259 12.1108 22.5551C12.1816 22.4842 12.2214 22.3881 12.2214 22.2879C12.2214 22.1877 12.1816 22.0917 12.1108 22.0208C12.0399 21.95 11.9439 21.9102 11.8437 21.9102H9.577C9.4768 21.9102 9.38071 21.95 9.30987 22.0208C9.23902 22.0917 9.19922 22.1877 9.19922 22.2879C9.19922 22.3881 9.23902 22.4842 9.30987 22.5551C9.38071 22.6259 9.4768 22.6657 9.577 22.6657Z" fill="#7D7D7D"/>
<path d="M14.8654 21.9102H13.3543C13.2541 21.9102 13.1581 21.95 13.0872 22.0208C13.0164 22.0917 12.9766 22.1877 12.9766 22.2879C12.9766 22.3881 13.0164 22.4842 13.0872 22.5551C13.1581 22.6259 13.2541 22.6657 13.3543 22.6657H14.8654C14.9656 22.6657 15.0617 22.6259 15.1326 22.5551C15.2034 22.4842 15.2432 22.3881 15.2432 22.2879C15.2432 22.1877 15.2034 22.0917 15.1326 22.0208C15.0617 21.95 14.9656 21.9102 14.8654 21.9102Z" fill="#7D7D7D"/>
</svg>
