<svg width="18" height="18" viewBox="0 0 18 18" fill="none" xmlns="http://www.w3.org/2000/svg">
<g clip-path="url(#clip0_5391_12536)">
<path d="M4.99756 13.4286H10.9976V12.5714H4.99756V13.4286ZM4.99756 10H10.9976V9.14286H4.99756V10ZM3.38227 16.4286C2.9877 16.4286 2.65827 16.2964 2.39399 16.0321C2.1297 15.7679 1.99756 15.4384 1.99756 15.0439V2.38471C1.99756 1.99014 2.1297 1.66071 2.39399 1.39643C2.65827 1.13214 2.9877 1 3.38227 1H10.1404L13.9976 4.85714V15.0439C13.9976 15.4384 13.8654 15.7679 13.6011 16.0321C13.3368 16.2964 13.0074 16.4286 12.6128 16.4286H3.38227ZM9.71184 5.28571V1.85714H3.38227C3.25027 1.85714 3.12934 1.91207 3.01949 2.02193C2.90963 2.13179 2.8547 2.25271 2.8547 2.38471V15.0439C2.8547 15.1759 2.90963 15.2968 3.01949 15.4066C3.12934 15.5165 3.25027 15.5714 3.38227 15.5714H12.6128C12.7448 15.5714 12.8658 15.5165 12.9756 15.4066C13.0855 15.2968 13.1404 15.1759 13.1404 15.0439V5.28571H9.71184Z" fill="#333333"/>
</g>
<defs>
<clipPath id="clip0_5391_12536">
<rect width="16" height="16" fill="white" transform="translate(1.99756 1)"/>
</clipPath>
</defs>
</svg>
