<svg width="18" height="18" viewBox="0 0 18 18" fill="none" xmlns="http://www.w3.org/2000/svg">
<path d="M13.5744 5.30884V2.30884H5.57437V5.30884H4.57437V1.30859H14.5744V5.30884H13.5744ZM15.1899 8.80884C15.4732 8.80884 15.7107 8.71301 15.9024 8.52134C16.094 8.32968 16.1899 8.09218 16.1899 7.80884C16.1899 7.52551 16.094 7.28801 15.9024 7.09634C15.7107 6.90468 15.4732 6.80884 15.1899 6.80884C14.9065 6.80884 14.669 6.90468 14.4774 7.09634C14.2857 7.28801 14.1899 7.52551 14.1899 7.80884C14.1899 8.09218 14.2857 8.32968 14.4774 8.52134C14.669 8.71301 14.9065 8.80884 15.1899 8.80884ZM13.5744 15.6933V11.1548H5.57437V15.6933H13.5744ZM14.5744 16.6933H4.57437V12.6933H1.15137V7.30884C1.15137 6.74218 1.34362 6.26718 1.72812 5.88384C2.11278 5.50051 2.5872 5.30884 3.15137 5.30884H15.9974C16.564 5.30884 17.039 5.50051 17.4224 5.88384C17.8057 6.26718 17.9974 6.74218 17.9974 7.30884V12.6933H14.5744V16.6933ZM16.9974 11.6933V7.30884C16.9974 7.02551 16.9015 6.78801 16.7099 6.59634C16.5182 6.40468 16.2807 6.30884 15.9974 6.30884H3.15137C2.86803 6.30884 2.63053 6.40468 2.43887 6.59634C2.2472 6.78801 2.15137 7.02551 2.15137 7.30884V11.6933H4.57437V10.1548H14.5744V11.6933H16.9974Z" fill="#333333"/>
</svg>
