<svg width="15" height="16" viewBox="0 0 15 16" fill="none" xmlns="http://www.w3.org/2000/svg">
<path d="M6.66994 15.5C6.50161 15.5 6.33237 15.4663 6.16223 15.399C5.99209 15.3317 5.83897 15.2308 5.70286 15.0963L0.4014 9.79479C0.26265 9.65701 0.161469 9.50493 0.0978581 9.33854C0.034247 9.17201 0.00244141 9.00264 0.00244141 8.83042C0.00244141 8.65819 0.034247 8.48701 0.0978581 8.31687C0.161469 8.14674 0.26265 7.99354 0.4014 7.85729L7.35015 0.90375C7.47404 0.780417 7.6205 0.682292 7.78953 0.609375C7.95855 0.536458 8.13314 0.5 8.31327 0.5H13.6354C14.019 0.5 14.3419 0.633403 14.6041 0.900209C14.8665 1.16688 14.9977 1.4875 14.9977 1.86208V7.18437C14.9977 7.36854 14.964 7.5441 14.8966 7.71104C14.8294 7.87799 14.7301 8.02188 14.5987 8.14271L7.62911 15.0963C7.49439 15.2308 7.34293 15.3317 7.17473 15.399C7.0064 15.4663 6.83814 15.5 6.66994 15.5ZM6.29723 14.5065C6.40418 14.6133 6.52973 14.6667 6.6739 14.6667C6.81821 14.6667 6.94376 14.6133 7.05057 14.5065L14.0201 7.54813C14.0735 7.49465 14.1108 7.4359 14.1322 7.37188C14.1536 7.30771 14.1643 7.24361 14.1643 7.17958V1.86208C14.1643 1.71264 14.1136 1.58979 14.012 1.49354C13.9105 1.39743 13.7849 1.34938 13.6354 1.34938H8.10973L0.995983 8.45188C0.889178 8.55868 0.835775 8.68424 0.835775 8.82854C0.835775 8.97271 0.889178 9.09826 0.995983 9.20521L6.29723 14.5065ZM12.0329 4.29813C12.2688 4.29813 12.4694 4.21708 12.6345 4.055C12.7997 3.89292 12.8822 3.69618 12.8822 3.46479C12.8822 3.22882 12.8003 3.02826 12.6364 2.86312C12.4725 2.69799 12.2736 2.61542 12.0395 2.61542C11.8054 2.61542 11.6068 2.69736 11.4439 2.86125C11.281 3.02514 11.1995 3.2241 11.1995 3.45812C11.1995 3.69229 11.2806 3.89083 11.4426 4.05375C11.6046 4.21667 11.8013 4.29813 12.0329 4.29813Z" fill="#333333"/>
</svg>
