<svg width="20" height="20" viewBox="0 0 20 20" fill="none" xmlns="http://www.w3.org/2000/svg">
<path d="M7.7 9.5H1.9C0.9 9.5 0 8.70001 0 7.60001V1.89999C0 0.899994 0.8 0 1.9 0H7.7C8.7 0 9.6 0.799994 9.6 1.89999V7.69998C9.5 8.69998 8.7 9.5 7.7 9.5ZM1.9 0.699982C1.2 0.699982 0.7 1.19999 0.7 1.89999V7.69998C0.7 8.39998 1.3 8.89999 1.9 8.89999H7.7C8.4 8.89999 8.9 8.29998 8.9 7.69998V1.89999C8.9 1.19999 8.3 0.699982 7.7 0.699982H1.9Z" fill="#565656"/>
<path d="M18.1004 9.5H12.3004C11.3004 9.5 10.4004 8.70001 10.4004 7.60001V1.89999C10.4004 0.899994 11.2004 0 12.3004 0H18.1004C19.1004 0 20.0004 0.799994 20.0004 1.89999V7.69998C20.0004 8.69998 19.1004 9.5 18.1004 9.5ZM12.3004 0.699982C11.6004 0.699982 11.1004 1.19999 11.1004 1.89999V7.69998C11.1004 8.39998 11.7004 8.89999 12.3004 8.89999H18.1004C18.8004 8.89999 19.3004 8.29998 19.3004 7.69998V1.89999C19.3004 1.19999 18.7004 0.699982 18.1004 0.699982H12.3004Z" fill="#565656"/>
<path d="M18.1004 19.8002H12.3004C11.3004 19.8002 10.4004 19.0002 10.4004 17.9002V12.1002C10.4004 11.1002 11.2004 10.2002 12.3004 10.2002H18.1004C19.1004 10.2002 20.0004 11.0002 20.0004 12.1002V17.9002C20.0004 18.9002 19.1004 19.8002 18.1004 19.8002ZM12.3004 10.9002C11.6004 10.9002 11.1004 11.5002 11.1004 12.1002V17.9002C11.1004 18.6002 11.7004 19.1002 12.3004 19.1002H18.1004C18.8004 19.1002 19.3004 18.5002 19.3004 17.9002V12.1002C19.3004 11.4002 18.7004 10.9002 18.1004 10.9002H12.3004Z" fill="#565656"/>
<path d="M7.7 19.8002H1.9C0.9 19.8002 0 19.0002 0 17.9002V12.1002C0 11.1002 0.8 10.2002 1.9 10.2002H7.7C8.7 10.2002 9.6 11.0002 9.6 12.1002V17.9002C9.5 18.9002 8.7 19.8002 7.7 19.8002ZM1.9 10.9002C1.2 10.9002 0.7 11.5002 0.7 12.1002V17.9002C0.7 18.6002 1.3 19.1002 1.9 19.1002H7.7C8.4 19.1002 8.9 18.5002 8.9 17.9002V12.1002C8.9 11.4002 8.3 10.9002 7.7 10.9002H1.9Z" fill="#565656"/>
<path d="M6.69981 5.10001H2.7998V4.5H6.69981V5.10001Z" fill="#565656"/>
<path d="M6.69981 16.0004H2.7998V15.4004H6.69981V16.0004Z" fill="#565656"/>
<path d="M6.69981 14.6H2.7998V14H6.69981V14.6Z" fill="#565656"/>
<path d="M17.2008 5.10001H13.3008V4.5H17.2008V5.10001Z" fill="#565656"/>
<path d="M15.5004 6.6998H14.9004V2.7998H15.5004V6.6998Z" fill="#565656"/>
<path d="M16.4012 16.6L13.7012 13.9L14.1012 13.5L16.8012 16.2L16.4012 16.6Z" fill="#565656"/>
<path d="M14.1012 16.6L13.7012 16.2L16.4012 13.5L16.8012 13.9L14.1012 16.6Z" fill="#565656"/>
</svg>
