<svg width="35" height="35" viewBox="0 0 35 35" fill="none" xmlns="http://www.w3.org/2000/svg">
<path d="M34.1102 33.2203H31.7788V17.4999C31.7788 17.264 31.6851 17.0376 31.5182 16.8707C31.3513 16.7038 31.125 16.6101 30.889 16.6101H25.6627V6.22871C25.6634 6.0441 25.6067 5.86388 25.5004 5.71291C25.3941 5.56199 25.2435 5.44786 25.0695 5.38634L9.82966 0.0473386C9.69542 0.00186218 9.55227 -0.0110938 9.41197 0.00953254C9.27174 0.0301589 9.13838 0.0837743 9.02288 0.165983C8.90673 0.24745 8.81211 0.355844 8.74704 0.481886C8.6819 0.607928 8.64832 0.747863 8.64915 0.889714V10.4881H4.11102C3.87502 10.4881 3.64868 10.5818 3.48181 10.7487C3.31494 10.9155 3.22119 11.1419 3.22119 11.3779V33.2203H0.889831C0.653836 33.2203 0.427498 33.3141 0.260626 33.4809C0.0937526 33.6478 0 33.8742 0 34.1102C0 34.3461 0.0937526 34.5725 0.260626 34.7394C0.427498 34.9063 0.653836 35 0.889831 35H34.1102C34.3462 35 34.5725 34.9063 34.7394 34.7394C34.9063 34.5725 35 34.3461 35 34.1102C35 33.8742 34.9063 33.6478 34.7394 33.4809C34.5725 33.3141 34.3462 33.2203 34.1102 33.2203ZM10.4288 2.14735L23.8831 6.85753V16.6101H20.5076C20.2716 16.6101 20.0453 16.7038 19.8784 16.8707C19.7115 17.0376 19.6178 17.264 19.6178 17.4999V33.2203H15.8627V11.3779C15.8627 11.1419 15.769 10.9155 15.6021 10.7487C15.4352 10.5818 15.2089 10.4881 14.9729 10.4881H10.4288V2.14735ZM5.00085 12.2677H14.0831V33.2203H5.00085V12.2677ZM21.3975 33.2203V18.3898H29.9992V33.2203H21.3975Z" fill="#0079C4"/>
</svg>
