<svg width="20" height="20" viewBox="0 0 20 20" fill="none" xmlns="http://www.w3.org/2000/svg">
<path fill-rule="evenodd" clip-rule="evenodd" d="M9.99381 20C9.97038 20 9.94695 19.9883 9.9118 19.9883C7.93171 19.379 6.26798 18.1722 4.94402 16.4148C3.88954 15.0088 3.06938 13.263 2.48356 11.2127C1.48766 7.72115 1.53453 4.51084 1.53453 4.4874C1.53453 4.40539 1.58139 4.32337 1.63997 4.27651C1.71027 4.21793 1.79229 4.20621 1.8743 4.21793C2.27266 4.31166 2.68274 4.35852 3.0811 4.35852C6.93582 4.35852 9.73605 0.16403 9.7712 0.128881C9.81806 0.0468658 9.90008 0 9.99381 0C10.0875 0 10.1813 0.0468658 10.2281 0.128881C10.2281 0.128881 10.9428 1.2068 12.1262 2.26128C13.2041 3.22203 14.9147 4.35852 16.9065 4.35852C17.3166 4.35852 17.7267 4.31166 18.125 4.21793C18.2071 4.20621 18.2891 4.21793 18.3594 4.27651C18.4179 4.32337 18.4531 4.40539 18.4648 4.4874C18.4648 4.51084 18.5117 7.72115 17.5158 11.2127C16.93 13.263 16.0981 15.0088 15.0553 16.4148C13.7314 18.1722 12.0559 19.379 10.0758 19.9883C10.0524 19.9883 10.029 20 9.99381 20ZM2.0852 4.81547C2.09692 5.71763 2.21408 8.30697 3.0108 11.0721C4.28789 15.5595 6.6429 18.3714 9.99381 19.4376C13.3564 18.3714 15.7114 15.5477 16.9885 11.0603C17.7735 8.29525 17.8907 5.71763 17.9141 4.81547C17.5744 4.87405 17.2463 4.9092 16.9065 4.9092C15.1842 4.9092 13.4033 4.12419 11.7513 2.65964C10.9077 1.89807 10.3102 1.15993 9.99381 0.749854C9.68918 1.15993 9.09164 1.89807 8.23634 2.65964C6.58432 4.12419 4.80342 4.9092 3.0811 4.9092C2.75304 4.9092 2.41326 4.87405 2.0852 4.81547Z" fill="black"/>
<path fill-rule="evenodd" clip-rule="evenodd" d="M9.99423 14.5636C7.4869 14.5636 5.43652 12.5133 5.43652 9.99423C5.43652 7.4869 7.4869 5.43652 9.99423 5.43652C12.5133 5.43652 14.5636 7.4869 14.5636 9.99423C14.5636 12.5133 12.5133 14.5636 9.99423 14.5636ZM9.99423 5.9872C7.77982 5.9872 5.9872 7.77982 5.9872 9.99423C5.9872 12.2086 7.77982 14.013 9.99423 14.013C12.2086 14.013 14.013 12.2086 14.013 9.99423C14.013 7.77982 12.2086 5.9872 9.99423 5.9872Z" fill="black"/>
<path fill-rule="evenodd" clip-rule="evenodd" d="M8.68239 12.0207C8.61209 12.0207 8.5418 11.9973 8.49493 11.9387L7.6162 11.0717C7.51075 10.9545 7.51075 10.7905 7.6162 10.685C7.72164 10.5679 7.89739 10.5679 8.00284 10.685L8.68239 11.3646L11.9982 8.04881C12.1036 7.94336 12.2676 7.94336 12.3848 8.04881C12.4902 8.16598 12.4902 8.33001 12.3848 8.43546L8.88157 11.9387C8.82299 11.9973 8.75269 12.0207 8.68239 12.0207Z" fill="black"/>
</svg>
