<svg width="37" height="33" viewBox="0 0 37 33" fill="none" xmlns="http://www.w3.org/2000/svg">
<path fill-rule="evenodd" clip-rule="evenodd" d="M29.6739 29.0994C29.428 29.0994 29.2232 28.9063 29.2114 28.6581C29.1712 27.8151 29.6463 27.2143 30.0646 26.7851L35.7986 20.9085L34.301 9.76024C34.2999 9.75182 34.2991 9.74331 34.2983 9.73497C34.2475 9.08942 33.969 8.61617 33.5139 8.40236C33.1347 8.22417 32.6891 8.26148 32.3511 8.49979C31.9388 8.79031 31.7479 9.32437 31.8135 10.0035L32.4543 16.6372C32.479 16.8919 32.2924 17.1185 32.0376 17.1431C31.7822 17.1679 31.5564 16.9811 31.5318 16.7263L30.8909 10.0926C30.7933 9.08252 31.1308 8.22577 31.817 7.74215C32.4267 7.31243 33.2277 7.24405 33.9079 7.56346C34.6629 7.91815 35.141 8.67789 35.2212 9.64907L36.7471 21.0088C36.7661 21.1501 36.7191 21.2922 36.6195 21.3941L30.7281 27.4321C30.2956 27.8759 30.1187 28.2294 30.1371 28.6139C30.1493 28.8695 29.9518 29.0867 29.6962 29.0989C29.6888 29.0992 29.6813 29.0994 29.6739 29.0994Z" fill="#0079C4"/>
<path fill-rule="evenodd" clip-rule="evenodd" d="M22.7368 29.0988C22.5051 29.0988 22.305 28.9254 22.2772 28.6897C21.8596 25.1498 21.9161 24.9688 21.9658 24.809C22.4975 23.0968 28.1169 17.5755 30.5554 16.3698C31.6398 15.8333 32.6213 16.2908 33.1128 16.9824C33.6384 17.7217 33.7571 18.9565 32.7759 19.9203L29.2684 23.368C29.0859 23.5474 28.7925 23.5449 28.613 23.3623C28.4336 23.1797 28.4362 22.8863 28.6187 22.7069L32.1263 19.2591C32.7234 18.6727 32.6725 17.9628 32.3573 17.5194C32.1013 17.1593 31.6015 16.8864 30.9662 17.2006C28.6097 18.3657 23.3439 23.6486 22.8597 25.0572C22.8487 25.2239 22.8831 25.9146 23.1975 28.581C23.2276 28.8352 23.0458 29.0656 22.7916 29.0955C22.7733 29.0977 22.755 29.0988 22.7368 29.0988Z" fill="#0079C4"/>
<path fill-rule="evenodd" clip-rule="evenodd" d="M31.424 33.0006H21.2017C20.9458 33.0006 20.7383 32.7931 20.7383 32.5372V28.6353C20.7383 28.3793 20.9458 28.1719 21.2017 28.1719H31.424C31.68 28.1719 31.8875 28.3793 31.8875 28.6353V32.5372C31.8875 32.7931 31.68 33.0006 31.424 33.0006ZM21.6651 32.0737H30.9606V29.0987H21.6651V32.0737Z" fill="#0079C4"/>
<path fill-rule="evenodd" clip-rule="evenodd" d="M23.16 31.5047C23.1558 31.5047 23.1642 31.5048 23.16 31.5047C22.9042 31.4978 22.6896 31.2848 22.6965 31.0289L22.7197 30.1571C22.7265 29.9012 22.941 29.7017 23.1952 29.7061C23.4511 29.7129 23.6531 29.9258 23.6462 30.1817L23.623 31.0536C23.6164 31.3052 23.4102 31.5047 23.16 31.5047Z" fill="#0079C4"/>
<path fill-rule="evenodd" clip-rule="evenodd" d="M7.32551 29.0995C7.3181 29.0995 7.31061 29.0993 7.30303 29.099C7.04737 29.0868 6.84998 28.8696 6.86219 28.6139C6.88055 28.2293 6.70371 27.8758 6.27112 27.432L0.379748 21.3942C0.280213 21.2922 0.233224 21.15 0.252171 21.0089L1.77813 9.64903C1.85838 8.67785 2.33644 7.91811 3.09146 7.5635C3.77162 7.24393 4.5727 7.31256 5.1823 7.7422C5.86843 8.22581 6.20603 9.08256 6.10843 10.0927L5.4676 16.7263C5.44292 16.9811 5.2159 17.1671 4.96175 17.143C4.70702 17.1184 4.52041 16.892 4.54508 16.6372L5.18583 10.0036C5.25143 9.32441 5.06062 8.79036 4.64824 8.49975C4.31023 8.26152 3.86467 8.22439 3.48548 8.4024C3.03041 8.61621 2.75184 9.08939 2.70107 9.73493C2.70039 9.74344 2.69947 9.75186 2.69837 9.76028L1.20079 20.9084L6.9347 26.7849C7.35322 27.2143 7.82816 27.8151 7.788 28.6581C7.77612 28.9063 7.57123 29.0995 7.32551 29.0995Z" fill="#0079C4"/>
<path fill-rule="evenodd" clip-rule="evenodd" d="M14.2638 29.0997C14.2457 29.0997 14.2274 29.0986 14.2089 29.0964C13.9548 29.0665 13.773 28.8362 13.8029 28.5819C14.1175 25.9163 14.152 25.2252 14.141 25.0581C13.6561 23.6488 8.39062 18.3666 6.03445 17.2015C5.39909 16.8872 4.8993 17.1602 4.64331 17.5203C4.32811 17.9638 4.27725 18.6737 4.87412 19.2599L8.38195 22.7078C8.56443 22.8873 8.56704 23.1807 8.38759 23.3631C8.20823 23.5459 7.91484 23.5483 7.73219 23.3688L4.22462 19.9212C3.24358 18.9575 3.36232 17.7227 3.88787 16.9834C4.37931 16.2917 5.36069 15.8343 6.44539 16.3708C8.88368 17.5764 14.5032 23.0977 15.0351 24.8104C15.0848 24.9699 15.1413 25.1513 14.7235 28.6906C14.6957 28.9263 14.4955 29.0997 14.2638 29.0997Z" fill="#0079C4"/>
<path fill-rule="evenodd" clip-rule="evenodd" d="M15.7981 33.0006H5.57571C5.31971 33.0006 5.1123 32.7931 5.1123 32.5372V28.6353C5.1123 28.3793 5.31971 28.1719 5.57571 28.1719H15.7981C16.054 28.1719 16.2615 28.3793 16.2615 28.6353V32.5372C16.2615 32.7931 16.054 33.0006 15.7981 33.0006ZM6.03911 32.0737H15.3346V29.0987H6.03911V32.0737Z" fill="#0079C4"/>
<path fill-rule="evenodd" clip-rule="evenodd" d="M13.8399 31.5047C13.5896 31.5047 13.3835 31.3052 13.3768 31.0536L13.3537 30.1817C13.3469 29.9258 13.5488 29.713 13.8047 29.7061C14.0586 29.7015 14.2734 29.9012 14.2802 30.1571L14.3034 31.0289C14.3101 31.2848 14.0958 31.4979 13.8399 31.5047C13.8441 31.5047 13.8359 31.5048 13.8399 31.5047Z" fill="#0079C4"/>
<path fill-rule="evenodd" clip-rule="evenodd" d="M18.2943 20.4084C18.2428 20.4084 18.1913 20.3998 18.1418 20.3825C16.1846 19.7005 14.1796 18.3679 12.6409 16.7265C11.3934 15.3956 9.90625 13.2746 9.90625 10.7271V2.77485C9.90625 2.56887 10.0422 2.38757 10.24 2.32989L18.1646 0.018505C18.2494 -0.00616832 18.3394 -0.00616832 18.4242 0.018505L26.3488 2.32989C26.5465 2.38757 26.6824 2.56887 26.6824 2.77485V10.7271C26.6824 13.2745 25.1954 15.3956 23.9478 16.7264C22.4092 18.3678 20.4041 19.7005 18.4469 20.3825C18.3975 20.3998 18.3459 20.4084 18.2943 20.4084ZM10.833 3.12237V10.7271C10.833 12.9716 12.1839 14.8837 13.3171 16.0925C14.6954 17.5628 16.5451 18.8097 18.2944 19.4527C20.0435 18.8097 21.8933 17.5627 23.2717 16.0925C24.4049 14.8837 25.7556 12.9716 25.7556 10.7271L25.7557 3.12237L18.2943 0.946149L10.833 3.12237Z" fill="#0079C4"/>
<path fill-rule="evenodd" clip-rule="evenodd" d="M18.2944 17.6476C18.2429 17.6476 18.1913 17.639 18.1419 17.6218C16.72 17.1263 15.2641 16.159 14.1474 14.9678C13.2372 13.9968 12.1523 12.4473 12.1523 10.5789V4.88042C12.1523 4.67444 12.2883 4.49322 12.486 4.43554L18.1646 2.77931C18.2494 2.75455 18.3395 2.75455 18.4242 2.77931L24.1027 4.43554C24.3004 4.49323 24.4364 4.67444 24.4364 4.88042V10.5789C24.4364 12.4473 23.3514 13.9967 22.4414 14.9678C21.3247 16.159 19.8688 17.1263 18.4469 17.6218C18.3976 17.639 18.3459 17.6476 18.2944 17.6476ZM13.0792 5.22803V10.5789C13.0792 11.8003 13.6988 13.1339 14.8237 14.3338C15.7861 15.3605 17.0729 16.2328 18.2945 16.6913C19.516 16.2328 20.8028 15.3605 21.7652 14.3338C22.8901 13.1338 23.5097 11.8003 23.5097 10.5789V5.22803L18.2946 3.70696L13.0792 5.22803Z" fill="#0079C4"/>
<path fill-rule="evenodd" clip-rule="evenodd" d="M16.7836 12.9191C16.665 12.9191 16.5464 12.8739 16.456 12.7834L14.9736 11.301C14.7926 11.12 14.7926 10.8266 14.9736 10.6456C15.1546 10.4647 15.4481 10.4647 15.629 10.6456L16.7836 11.8003L20.958 7.62599C21.1391 7.44494 21.4325 7.44502 21.6134 7.62599C21.7944 7.80696 21.7944 8.10034 21.6134 8.28131L17.1113 12.7833C17.0208 12.8738 16.9022 12.9191 16.7836 12.9191Z" fill="#0079C4"/>
</svg>
