<svg width="20" height="19" viewBox="0 0 20 19" fill="none" xmlns="http://www.w3.org/2000/svg">
<path d="M0 9.10059H9V18.1006H0V9.10059ZM8.3 9.80057H0.6V17.5006H8.3V9.80057Z" fill="#565656"/>
<path d="M3.09961 9.10059H5.79961V11.8006H3.09961V9.10059ZM5.19961 9.80057H3.69961V11.3006H5.19961V9.80057Z" fill="#565656"/>
<path d="M10.6006 9.10059H19.6006V18.1006H10.6006V9.10059ZM19.0006 9.80057H11.3006V17.5006H19.0006V9.80057Z" fill="#565656"/>
<path d="M13.8008 9.10059H16.5008V11.8006H13.8008V9.10059ZM15.9008 9.80057H14.4008V11.3006H15.9008V9.80057Z" fill="#565656"/>
<path d="M4.90039 0.700195H13.9004V9.7002H4.90039V0.700195ZM13.3004 1.3002H5.60039V9.00021H13.3004V1.3002Z" fill="#565656"/>
<path d="M8 0.700195H10.8V3.40021H8.1V0.700195H8ZM10.1 1.3002H8.6V2.8002H10.1V1.3002Z" fill="#565656"/>
</svg>
