<svg width="22" height="18" viewBox="0 0 22 18" fill="none" xmlns="http://www.w3.org/2000/svg">
<path d="M18.3013 13H5.10031L2.40011 1.10001H1V0.5H3.00015L5.70036 12.3H17.9013L20.2015 4.89999H8.50057V4.30002H21.0015L18.3013 13Z" fill="#565656" stroke="#565656" stroke-width="0.256"/>
<path d="M8.2002 13.7002C9.3002 13.7002 10.2002 14.6002 10.2002 15.7002C10.2002 16.8002 9.3002 17.7002 8.2002 17.7002C7.1002 17.7002 6.2002 16.8002 6.2002 15.7002C6.2002 14.6002 7.1002 13.7002 8.2002 13.7002ZM8.2002 17.1002C9.0002 17.1002 9.60019 16.5002 9.60019 15.7002C9.60019 14.9002 9.0002 14.3002 8.2002 14.3002C7.4002 14.3002 6.80019 14.9002 6.80019 15.7002C6.90019 16.5002 7.5002 17.1002 8.2002 17.1002Z" fill="#565656" stroke="#565656" stroke-width="0.256"/>
<path d="M15.2012 13.7002C16.3012 13.7002 17.2012 14.6002 17.2012 15.7002C17.2012 16.8002 16.3012 17.7002 15.2012 17.7002C14.1012 17.7002 13.2012 16.8002 13.2012 15.7002C13.2012 14.6002 14.1012 13.7002 15.2012 13.7002ZM15.2012 17.1002C16.0012 17.1002 16.6012 16.5002 16.6012 15.7002C16.6012 14.9002 16.0012 14.3002 15.2012 14.3002C14.4012 14.3002 13.8012 14.9002 13.8012 15.7002C13.8012 16.5002 14.4012 17.1002 15.2012 17.1002Z" fill="#565656" stroke="#565656" stroke-width="0.256"/>
</svg>
