<svg width="18" height="18" viewBox="0 0 18 18" fill="none" xmlns="http://www.w3.org/2000/svg">
<g clip-path="url(#clip0_3753_54345)">
<g clip-path="url(#clip1_3753_54345)">
<path d="M8.86003 7.62162C10.4709 7.62162 11.7767 6.24403 11.7767 4.5447C11.7767 2.84536 10.4709 1.46777 8.86003 1.46777C7.2492 1.46777 5.94336 2.84536 5.94336 4.5447C5.94336 6.24403 7.2492 7.62162 8.86003 7.62162Z" stroke="currentColor" stroke-width="0.75" stroke-miterlimit="10"/>
<path d="M4.19336 16.2367C5.15986 16.2367 5.94336 15.4102 5.94336 14.3906C5.94336 13.371 5.15986 12.5444 4.19336 12.5444C3.22686 12.5444 2.44336 13.371 2.44336 14.3906C2.44336 15.4102 3.22686 16.2367 4.19336 16.2367Z" stroke="currentColor" stroke-width="0.75" stroke-miterlimit="10"/>
<path d="M8.86035 16.2367C9.82685 16.2367 10.6104 15.4102 10.6104 14.3906C10.6104 13.371 9.82685 12.5444 8.86035 12.5444C7.89385 12.5444 7.11035 13.371 7.11035 14.3906C7.11035 15.4102 7.89385 16.2367 8.86035 16.2367Z" stroke="currentColor" stroke-width="0.75" stroke-miterlimit="10"/>
<path d="M13.5264 16.2367C14.4929 16.2367 15.2764 15.4102 15.2764 14.3906C15.2764 13.371 14.4929 12.5444 13.5264 12.5444C12.5599 12.5444 11.7764 13.371 11.7764 14.3906C11.7764 15.4102 12.5599 16.2367 13.5264 16.2367Z" stroke="currentColor" stroke-width="0.75" stroke-miterlimit="10"/>
<path d="M3.61035 11.3017V9.8125H13.527V11.3017" stroke="currentColor" stroke-width="0.75" stroke-miterlimit="10"/>
<path d="M8.86035 8.23682V11.3014" stroke="currentColor" stroke-width="0.75" stroke-miterlimit="10"/>
</g>
</g>
<defs>
<clipPath id="clip0_3753_54345">
<rect width="14" height="16" fill="white" transform="translate(2 1)"/>
</clipPath>
<clipPath id="clip1_3753_54345">
<rect width="13.7083" height="15.6923" fill="white" transform="translate(2 1)"/>
</clipPath>
</defs>
</svg>
