<svg width="18" height="18" viewBox="0 0 18 18" fill="none" xmlns="http://www.w3.org/2000/svg">
<g clip-path="url(#clip0_836_21157)">
<path d="M16.875 13.6774L15.2323 10.2903L11.2707 11.0967L11.5283 12.3548L13.6863 11.9032C12.7201 13.6129 10.8842 14.7096 8.88724 14.7096C5.82743 14.7096 3.34736 12.2258 3.34736 9.16125H2.05902C2.05902 12.9354 5.11884 16 8.88724 16C11.3995 16 13.6863 14.6129 14.878 12.4516L15.7477 14.1935L16.875 13.6774Z" fill="currentColor"/>
<path d="M6.7615 6.90323L6.50383 5.64516L4.34586 6.09677C5.31212 4.3871 7.14801 3.29032 9.14494 3.29032C12.2048 3.29032 14.6848 5.77419 14.6848 8.83871H15.9732C15.9732 5.06452 12.9133 2 9.14494 2C6.63267 2 4.34586 3.3871 3.15414 5.54839L2.28451 3.80645L1.125 4.3871L2.79985 7.70968L6.7615 6.90323Z" fill="currentColor"/>
</g>
<defs>
<clipPath id="clip0_836_21157">
<rect width="15.75" height="14" fill="white" transform="translate(1.125 2)"/>
</clipPath>
</defs>
</svg>
