<svg width="18" height="18" viewBox="0 0 18 18" fill="none" xmlns="http://www.w3.org/2000/svg">
<g clip-path="url(#clip0_836_21087)">
<path fill-rule="evenodd" clip-rule="evenodd" d="M7.38841 2.00793C7.4512 2.00793 7.49306 2.0288 7.53493 2.07053C7.57679 2.11225 7.59772 2.15399 7.59772 2.21658V3.11374C7.74423 3.15547 7.89074 3.21806 8.01632 3.30152L8.64423 2.67558C8.68609 2.63386 8.72795 2.61299 8.79074 2.61299C8.85353 2.61299 8.89539 2.63386 8.93725 2.67558L9.58609 3.32239C9.62795 3.36412 9.64888 3.40585 9.64888 3.46844C9.64888 3.53103 9.62795 3.57275 9.58609 3.61448L8.95818 4.24041C9.02097 4.3656 9.08376 4.51165 9.12562 4.6577H10.0466C10.1093 4.6577 10.1512 4.67858 10.1931 4.7203C10.2349 4.76203 10.2559 4.80375 10.2559 4.86634V5.76352C10.2559 5.82612 10.2349 5.86784 10.1931 5.90956C10.1512 5.95129 10.1093 5.97217 10.0466 5.97217H9.14655C9.10469 6.11822 9.0419 6.26427 8.97911 6.38945L9.60702 7.01539C9.64888 7.05712 9.66981 7.09883 9.66981 7.16143C9.66981 7.22402 9.64888 7.26575 9.60702 7.30748L8.95818 7.95428C8.91632 7.99601 8.87446 8.01687 8.81167 8.01687C8.74888 8.01687 8.70702 7.99601 8.66516 7.95428L8.03725 7.32835C7.91167 7.39095 7.76516 7.45353 7.61865 7.51612V8.41329C7.61865 8.47588 7.59772 8.51761 7.55586 8.55934C7.51399 8.60107 7.47213 8.62193 7.40934 8.62193H6.48841C6.42562 8.62193 6.38376 8.60107 6.3419 8.55934C6.30004 8.51761 6.27911 8.47588 6.27911 8.41329V7.537C6.1326 7.49527 5.98609 7.43266 5.83958 7.37007L5.21167 7.996C5.16981 8.03773 5.12795 8.05861 5.06516 8.05861C5.00237 8.05861 4.96051 8.03773 4.91865 7.996L4.26981 7.34921C4.22795 7.30748 4.20702 7.26575 4.20702 7.20316C4.20702 7.14056 4.22795 7.09883 4.26981 7.05711L4.89772 6.43117C4.814 6.28512 4.77213 6.13908 4.70934 5.99303H3.83027C3.76748 5.99303 3.72562 5.97216 3.68376 5.93044C3.6419 5.88871 3.62097 5.84698 3.62097 5.78438V4.84549C3.62097 4.78289 3.6419 4.74116 3.68376 4.69943C3.72562 4.6577 3.76748 4.63684 3.83027 4.63684H4.70934C4.7512 4.49079 4.814 4.34475 4.89772 4.19869L4.26981 3.57276C4.22795 3.53103 4.20702 3.4893 4.20702 3.42671C4.20702 3.36412 4.22795 3.32239 4.26981 3.28066L4.91865 2.63387C4.96051 2.59214 5.00237 2.57126 5.06516 2.57126C5.12795 2.57126 5.16981 2.59214 5.21167 2.63387L5.83958 3.2598C5.98609 3.1972 6.11167 3.1346 6.27911 3.09287V2.21658C6.27911 2.15399 6.30004 2.11225 6.3419 2.07053C6.38376 2.0288 6.42562 2.00793 6.48841 2.00793H7.38841ZM7.17911 2.42522H6.69772V3.2598C6.69772 3.30153 6.67679 3.36411 6.65586 3.38498C6.63493 3.42671 6.59307 3.44757 6.53027 3.44757C6.30004 3.4893 6.11167 3.57276 5.9233 3.69794C5.88144 3.71881 5.83958 3.73968 5.79772 3.73968C5.75586 3.73968 5.714 3.71881 5.67213 3.67709L5.08609 3.09287L4.7512 3.42671L5.33725 4.01091C5.37911 4.05264 5.40004 4.09436 5.40004 4.13609C5.40004 4.17782 5.40004 4.24042 5.35818 4.26129C5.2326 4.44906 5.14888 4.6577 5.10702 4.86634C5.10702 4.90807 5.06516 4.94981 5.0233 4.99154C4.98144 5.03327 4.93958 5.03327 4.89772 5.03327H4.06051V5.51315H4.89772C4.93958 5.51315 4.98144 5.53402 5.0233 5.55488C5.06516 5.57574 5.08609 5.61747 5.10702 5.68006C5.14888 5.90957 5.2326 6.09735 5.35818 6.28513C5.37911 6.32686 5.40004 6.36859 5.40004 6.41031C5.40004 6.45204 5.37911 6.49377 5.33725 6.5355L4.7512 7.11971L5.08609 7.45353L5.67213 6.86933C5.714 6.8276 5.75586 6.80674 5.79772 6.80674C5.83958 6.80674 5.90237 6.80674 5.9233 6.8276C6.11167 6.93192 6.32097 7.03625 6.53027 7.07798C6.57213 7.07798 6.61399 7.1197 6.65586 7.14057C6.67679 7.1823 6.69772 7.22402 6.69772 7.26575V8.10032H7.17911V7.26575C7.17911 7.22402 7.20004 7.1823 7.22097 7.14057C7.2419 7.09884 7.28376 7.07797 7.34655 7.05711C7.55586 7.01538 7.76516 6.93193 7.95353 6.80674C7.99539 6.78588 8.03725 6.76501 8.07911 6.76501C8.12097 6.76501 8.16283 6.78587 8.20469 6.8276L8.81167 7.43267L9.14655 7.09884L8.53958 6.49378C8.49772 6.45205 8.47679 6.41031 8.47679 6.36858C8.47679 6.32685 8.47679 6.26427 8.51865 6.2434C8.6233 6.05562 8.70702 5.86784 8.76981 5.63833C8.76981 5.5966 8.81167 5.55488 8.85353 5.51315C8.89539 5.49228 8.93725 5.47142 8.97911 5.47142H9.83725V5.05413H8.97911C8.93725 5.05413 8.89539 5.03326 8.85353 5.0124C8.81167 4.99153 8.79074 4.94981 8.76981 4.88722C8.72795 4.67857 8.64423 4.46992 8.51865 4.28214C8.49772 4.24042 8.47679 4.19869 8.47679 4.15696C8.47679 4.11523 8.49772 4.0735 8.53958 4.03177L9.14655 3.42671L8.81167 3.09287L8.20469 3.69794C8.16283 3.73967 8.12097 3.76054 8.07911 3.76054C8.03725 3.76054 7.97446 3.76053 7.95353 3.7188C7.76516 3.59362 7.57679 3.51017 7.34655 3.46844C7.30469 3.46844 7.26283 3.42671 7.22097 3.38498C7.20004 3.34325 7.17911 3.30153 7.17911 3.2598V2.42522Z" fill="currentColor"/>
<path fill-rule="evenodd" clip-rule="evenodd" d="M6.94887 4.30298C7.49306 4.30298 7.93259 4.74112 7.93259 5.28359C7.93259 5.82607 7.49306 6.26422 6.94887 6.26422C6.40468 6.26422 5.96515 5.82607 5.96515 5.28359C5.96515 4.74112 6.40468 4.30298 6.94887 4.30298ZM6.94887 4.72027C6.63492 4.72027 6.38375 4.97063 6.38375 5.28359C6.38375 5.59656 6.63492 5.84694 6.94887 5.84694C7.26282 5.84694 7.51399 5.59656 7.51399 5.28359C7.51399 4.97063 7.26282 4.72027 6.94887 4.72027Z" fill="currentColor"/>
<path fill-rule="evenodd" clip-rule="evenodd" d="M0.941993 7.80823C1.10943 7.80823 1.27688 7.84996 1.44432 7.95428L4.66757 9.95726C4.83502 9.37305 5.35827 8.97664 5.88153 9.10182L9.06292 9.89467L11.5118 8.55934C11.5536 8.53848 11.6164 8.51762 11.6583 8.53848L15.1536 9.47738L15.3211 8.83057C15.342 8.76798 15.3629 8.72626 15.4257 8.70539C15.4885 8.68453 15.5304 8.66367 15.5932 8.68453L17.8536 9.28959C17.9164 9.31046 17.9583 9.33132 17.9792 9.39392C18.0001 9.43564 18.0211 9.49823 18.0001 9.56083L16.3048 15.8619C16.2839 15.9245 16.2629 15.9662 16.2001 15.9871C16.1583 16.0079 16.0955 16.0288 16.0327 16.0079L13.835 15.4237C13.7932 15.4029 13.7304 15.382 13.7094 15.3194C13.6885 15.2568 13.6676 15.2151 13.6885 15.1734L13.9397 14.1719C12.9978 14.0675 12.4118 14.1719 10.4652 14.3596C8.87455 14.5266 8.24664 14.7143 6.5513 14.2762C4.79316 13.7963 3.49548 12.2941 2.76292 11.6055L0.439667 9.60256C0.251295 9.43564 0.104784 9.227 0.0419929 9.01836C-0.0207978 8.78885 -0.0207978 8.53847 0.125714 8.30897C0.293156 7.996 0.607109 7.82909 0.941993 7.80823ZM0.962923 8.22552C0.774551 8.22552 0.586179 8.32983 0.481528 8.49675C0.418737 8.62194 0.397807 8.74712 0.439667 8.87231C0.481528 8.99749 0.586179 9.14354 0.71176 9.24786L3.03502 11.2509C3.83036 11.9602 5.06525 13.3999 6.65595 13.8172C8.2885 14.2553 8.79083 14.0675 10.4025 13.9006C12.3908 13.692 12.9978 13.5877 14.0234 13.7128L14.3792 12.2732C14.4001 12.2106 14.4211 12.1689 14.4839 12.148C14.5466 12.1272 14.5885 12.1063 14.6513 12.1272C14.7141 12.148 14.7559 12.1689 14.7769 12.2315C14.7978 12.2523 14.7978 12.2732 14.7978 12.3149C14.7978 12.3358 14.7978 12.3775 14.7978 12.3984L14.149 15.069L15.949 15.5489L17.5397 9.64429L15.6769 9.14354L15.1955 10.8962C15.1746 10.9587 15.1536 11.0005 15.0908 11.0213C15.0699 11.0422 15.049 11.0422 15.0071 11.0422C14.9862 11.0422 14.9443 11.0422 14.9234 11.0422C14.8606 11.0213 14.8187 11.0005 14.7978 10.9379C14.7769 10.917 14.7769 10.8962 14.7769 10.8544C14.7769 10.8336 14.7769 10.7918 14.7769 10.771L15.028 9.87379L11.6164 8.95577L9.16757 10.2911C9.12571 10.3119 9.06292 10.3328 9.02106 10.312L5.75595 9.49824C5.48385 9.43564 5.14897 9.64429 5.04432 10.0616C4.93967 10.4789 5.10711 10.8336 5.3792 10.8962L9.16757 11.8976C9.23036 11.9185 9.27223 11.9394 9.29316 12.002C9.31409 12.0437 9.33502 12.1063 9.31409 12.1689C9.29316 12.2315 9.27223 12.2732 9.20943 12.2941C9.16757 12.3149 9.10478 12.3358 9.04199 12.3149L5.27455 11.3134C4.87688 11.2091 4.64664 10.8544 4.60478 10.4371L1.21409 8.30897C1.13037 8.26724 1.04664 8.24638 0.962923 8.22552Z" fill="currentColor"/>
</g>
<defs>
<clipPath id="clip0_836_21087">
<rect width="18" height="14" fill="white" transform="translate(0 2)"/>
</clipPath>
</defs>
</svg>
