<svg width="18" height="18" viewBox="0 0 18 18" fill="none" xmlns="http://www.w3.org/2000/svg">
<path d="M12.7116 7.71158V6.6C12.7116 6.37263 12.6232 6.15789 12.4589 5.99368L9.71789 3.25263C9.55368 3.08842 9.33895 3 9.11158 3H4.14737C3.68 3 3.28842 3.37895 3.28842 3.85895V6.00632C2.58105 5.99368 2 6.57474 2 7.28211V13.7116C2 14.4189 2.58105 15 3.28842 15H12.7116C13.4189 15 14 14.4189 14 13.7116V9C14 8.29263 13.4189 7.71158 12.7116 7.71158ZM9.71789 4.46526L11.2589 6.00632H9.79368C9.74316 6.00632 9.70526 5.96842 9.70526 5.91789V4.46526H9.71789ZM4.14737 3.85895H8.85895V5.91789C8.85895 6.43579 9.27579 6.86526 9.80632 6.86526H11.8526V7.72421H8.73263C8.63158 7.72421 8.54316 7.68632 8.46737 7.63579L6.78737 6.28421C6.56 6.10737 6.2821 6.00632 5.97895 6.00632H4.14737V3.85895ZM13.1411 13.7116C13.1411 13.9516 12.9516 14.1411 12.7116 14.1411H3.28842C3.04842 14.1411 2.85895 13.9516 2.85895 13.7116V7.28211C2.85895 7.04211 3.04842 6.85263 3.28842 6.85263H5.99158C6.09263 6.85263 6.18105 6.89053 6.25684 6.94105L7.92421 8.28C8.15158 8.45684 8.42947 8.55789 8.73263 8.55789H12.7242C12.9642 8.55789 13.1537 8.74737 13.1537 8.98737V13.7116H13.1411Z" fill="currentColor"/>
</svg>
