<svg width="18" height="18" viewBox="0 0 18 18" fill="none" xmlns="http://www.w3.org/2000/svg">
<g clip-path="url(#clip0_3449_20252)">
<path d="M15 3.37107V8.41052C15 9.7187 14.1571 10.7816 13.1196 10.7816H6.31116C5.93979 12.0303 5.76884 12.729 6.1461 14C4.84926 13.1304 4.26568 12.2013 4.00042 10.7816H2.88042C1.84295 10.7816 1 9.7187 1 8.41052V3.37107C1 2.06289 1.84295 1 2.88042 1H13.1196C14.1571 1 15 2.06289 15 3.37107Z" fill="white" stroke="currentColor" stroke-width="0.8" stroke-miterlimit="10"/>
<path d="M17 7.18868V11.8405C17 13.048 16.1571 14.0292 15.1196 14.0292H8.31116C7.93979 15.1818 7.76884 15.8268 8.14611 17C6.84926 16.1973 6.26568 15.3396 6.00042 14.0292H4.88042C3.84295 14.0292 3 13.048 3 11.8405V7.18868C3 5.98113 3.84295 5 4.88042 5H15.1196C16.1571 5 17 5.98113 17 7.18868Z" fill="white" stroke="currentColor" stroke-width="0.8" stroke-miterlimit="10"/>
</g>
<defs>
<clipPath id="clip0_3449_20252">
<rect width="18" height="18" fill="white"/>
</clipPath>
</defs>
</svg>
