<svg width="18" height="18" viewBox="0 0 18 18" fill="none" xmlns="http://www.w3.org/2000/svg">
<g clip-path="url(#clip0_3753_1476)">
<path d="M12.2229 6.72489H13.0906C13.5359 6.72489 13.9012 7.15196 13.9012 7.67246V9.32737H5.73803C5.48685 9.32737 5.26993 9.48752 5.15576 9.74109L3.05502 14.6658L3.55737 15.3331H2.38141C1.93615 15.3331 1.5708 14.906 1.5708 14.3855V5.60382C1.5708 5.08332 1.93615 4.65625 2.38141 4.65625H6.60572C6.87973 4.65625 7.14233 4.8164 7.29075 5.09667L7.95294 6.28447C8.10136 6.55139 8.36395 6.72489 8.63796 6.72489H9.59699" stroke="currentColor" stroke-miterlimit="10"/>
<path d="M17.3493 10.4482L15.26 14.7056C15.0773 15.0926 14.712 15.3329 14.3352 15.3329H3.55753L3.05518 14.6656L5.15591 9.74088C5.27009 9.4873 5.48701 9.32715 5.73818 9.32715H16.7899C17.2808 9.32715 17.5891 9.95441 17.3493 10.4482Z" stroke="currentColor" stroke-miterlimit="10"/>
<path d="M11.2659 7.07217C11.2659 7.07217 9.90725 4.32289 13.3324 2.98828" stroke="currentColor" stroke-miterlimit="10"/>
<path d="M11.002 2L14.0846 2.72069L13.1141 5.37655" stroke="currentColor" stroke-miterlimit="10"/>
</g>
<defs>
<clipPath id="clip0_3753_1476">
<rect width="17" height="14" fill="white" transform="translate(1 2)"/>
</clipPath>
</defs>
</svg>
