<svg width="18" height="18" viewBox="0 0 18 18" fill="none" xmlns="http://www.w3.org/2000/svg">
<g clip-path="url(#clip0_3753_53559)">
<path d="M11.1799 5.54988C11.1799 5.83988 11.0599 6.11988 10.8499 6.32988C10.6399 6.53988 10.3599 6.65988 10.0699 6.65988C9.81988 6.65988 9.56988 6.56988 9.36988 6.40988V9.37988H6.68988C6.82988 9.53988 6.92988 9.73988 6.95988 9.94988C6.98988 10.1599 6.95988 10.3799 6.87988 10.5699C6.78988 10.7699 6.64988 10.9299 6.46988 11.0499C6.28988 11.1699 6.07988 11.2299 5.86988 11.2299C5.65988 11.2299 5.44988 11.1699 5.26988 11.0499C5.08988 10.9299 4.94988 10.7699 4.85988 10.5699C4.76988 10.3699 4.73988 10.1599 4.77988 9.94988C4.80988 9.73988 4.90988 9.53988 5.04988 9.37988H2.37988V2.37988H9.37988V4.68988C9.57988 4.52988 9.81988 4.43988 10.0799 4.43988C10.2299 4.43988 10.3699 4.46988 10.5099 4.51988C10.6399 4.57988 10.7699 4.65988 10.8699 4.75988C10.9699 4.85988 11.0599 4.97988 11.1099 5.11988C11.1699 5.24988 11.1899 5.39988 11.1899 5.53988L11.1799 5.54988Z" stroke="currentColor" stroke-width="0.75" stroke-miterlimit="10"/>
<path d="M7.57988 12.8799C7.57988 13.0699 7.62988 13.2699 7.72988 13.4399C7.82988 13.6099 7.96988 13.7499 8.13988 13.8399C8.30988 13.9399 8.49988 13.9899 8.68988 13.9899C8.87988 13.9899 9.07988 13.9399 9.24988 13.8399C9.29988 13.8199 9.33988 13.7799 9.37988 13.7499V16.3799H2.37988V9.37988H5.05988C4.91988 9.53988 4.81988 9.73988 4.78988 9.94988C4.75988 10.1599 4.78988 10.3799 4.86988 10.5699C4.95988 10.7699 5.09988 10.9299 5.27988 11.0499C5.45988 11.1699 5.66988 11.2299 5.87988 11.2299C6.08988 11.2299 6.29988 11.1699 6.47988 11.0499C6.65988 10.9299 6.79988 10.7699 6.88988 10.5699C6.97988 10.3699 7.00988 10.1599 6.96988 9.94988C6.93988 9.73988 6.83988 9.53988 6.69988 9.37988H9.37988V12.0099C9.21988 11.8799 9.01988 11.7999 8.81988 11.7799C8.60988 11.7599 8.40988 11.7899 8.21988 11.8799C8.02988 11.9699 7.87988 12.1099 7.76988 12.2899C7.65988 12.4699 7.59988 12.6699 7.59988 12.8699L7.57988 12.8799Z" stroke="currentColor" stroke-width="0.75" stroke-miterlimit="10"/>
<path d="M16.3801 2.37988V9.37988H13.7401C13.8701 9.21988 13.9601 9.01988 13.9801 8.80988C14.0001 8.59988 13.9801 8.38988 13.8801 8.19988C13.7901 8.00988 13.6501 7.84988 13.4701 7.73988C13.2901 7.62988 13.0901 7.56988 12.8801 7.56988C12.6701 7.56988 12.4701 7.62988 12.2901 7.73988C12.1101 7.84988 11.9701 8.00988 11.8801 8.19988C11.7901 8.38988 11.7601 8.59988 11.7801 8.80988C11.8001 9.01988 11.8901 9.20988 12.0201 9.37988H9.39014V6.40988C9.59014 6.56988 9.83014 6.65988 10.0901 6.65988C10.3801 6.65988 10.6601 6.53988 10.8701 6.32988C11.0801 6.11988 11.1901 5.83988 11.2001 5.54988C11.2001 5.39988 11.1701 5.25988 11.1201 5.12988C11.0601 4.99988 10.9801 4.86988 10.8801 4.76988C10.7801 4.66988 10.6601 4.57988 10.5201 4.52988C10.3901 4.46988 10.2401 4.44988 10.0901 4.44988C9.84014 4.44988 9.59014 4.53988 9.39014 4.69988V2.37988H16.3901H16.3801Z" stroke="currentColor" stroke-width="0.75" stroke-miterlimit="10"/>
<path d="M11 13.2857L13 15L16 12" stroke="currentColor"/>
</g>
<defs>
<clipPath id="clip0_3753_53559">
<rect width="14.75" height="14.75" fill="white" transform="translate(2 2)"/>
</clipPath>
</defs>
</svg>
