<svg width="18" height="18" viewBox="0 0 18 18" fill="#fff" xmlns="http://www.w3.org/2000/svg">
<path d="M10.8091 5.16785C10.8067 5.46116 10.6891 5.74177 10.4817 5.94917C10.2743 6.15658 9.99367 6.27419 9.70036 6.27664C9.44553 6.2778 9.19847 6.18899 9.00268 6.02588V8.99659H6.32282C6.46514 9.15593 6.5584 9.35299 6.59138 9.56408C6.62435 9.77517 6.59564 9.99129 6.50869 10.1864C6.42174 10.3816 6.28027 10.5475 6.10127 10.6641C5.92228 10.7808 5.7134 10.8433 5.49975 10.844C5.28611 10.8433 5.07722 10.7808 4.89823 10.6641C4.71924 10.5475 4.57776 10.3816 4.49082 10.1864C4.40387 9.99129 4.37516 9.77517 4.40813 9.56408C4.44111 9.35299 4.53437 9.15593 4.67669 8.99659H2.00024V1.99756H8.99926V4.30896C9.19487 4.14553 9.44206 4.05668 9.69695 4.0582C9.84288 4.05785 9.98741 4.08655 10.1221 4.14264C10.2569 4.19872 10.3791 4.28108 10.4816 4.38488C10.586 4.48668 10.6689 4.60848 10.7251 4.74301C10.7814 4.87754 10.81 5.02203 10.8091 5.16785Z" stroke="currentColor" stroke-width="0.75" stroke-miterlimit="10"/>
<path d="M7.20558 12.4991C7.20601 12.6941 7.25684 12.8857 7.35314 13.0552C7.45082 13.2231 7.59087 13.3623 7.75926 13.459C7.92766 13.5557 8.11849 13.6064 8.31267 13.6062C8.50737 13.6057 8.69863 13.5549 8.86792 13.4587C8.91572 13.4342 8.95992 13.4032 8.99926 13.3666V15.9987H2.00024V9.00049H4.67669C4.53437 9.15983 4.44111 9.35689 4.40813 9.56798C4.37516 9.77907 4.40387 9.99519 4.49082 10.1903C4.57776 10.3855 4.71924 10.5514 4.89823 10.668C5.07722 10.7847 5.28611 10.8472 5.49975 10.8479C5.7134 10.8472 5.92228 10.7847 6.10127 10.668C6.28027 10.5514 6.42175 10.3855 6.50869 10.1903C6.59564 9.99519 6.62435 9.77907 6.59138 9.56798C6.5584 9.35689 6.46514 9.15983 6.32282 9.00049H8.99926V11.6326C8.83601 11.5051 8.64033 11.4259 8.43438 11.404C8.22843 11.3821 8.02045 11.4182 7.83401 11.5084C7.64757 11.5986 7.49012 11.7392 7.37951 11.9143C7.26889 12.0894 7.20953 12.292 7.20814 12.4991H7.20558Z" stroke="currentColor" stroke-width="0.75" stroke-miterlimit="10"/>
<path d="M16.0002 2.00146V9.00048H13.3562C13.4882 8.83779 13.5714 8.64102 13.5962 8.43298C13.621 8.22495 13.5863 8.01415 13.4962 7.825C13.4061 7.63586 13.2642 7.47612 13.0871 7.36428C12.9099 7.25244 12.7047 7.19307 12.4952 7.19307C12.2857 7.19307 12.0804 7.25244 11.9033 7.36428C11.7261 7.47612 11.5843 7.63586 11.4942 7.825C11.4041 8.01415 11.3694 8.22495 11.3942 8.43298C11.4189 8.64102 11.5022 8.83779 11.6342 9.00048H8.9995V6.02978C9.19529 6.19289 9.44236 6.28169 9.69719 6.28054C9.9905 6.27809 10.2711 6.16048 10.4785 5.95307C10.6859 5.74566 10.8035 5.46506 10.806 5.17175C10.8063 5.0265 10.7776 4.88265 10.7213 4.74874C10.665 4.61483 10.5825 4.49358 10.4785 4.39218C10.3759 4.28838 10.2537 4.20604 10.119 4.14996C9.98424 4.09387 9.8397 4.06517 9.69378 4.06552C9.43888 4.064 9.1917 4.15283 8.99609 4.31627V2.00487L16.0002 2.00146Z" stroke="currentColor" stroke-width="0.75" stroke-miterlimit="10"/>
<path d="M16.0002 9.00028V15.9984H8.99949V13.3664C8.96015 13.4029 8.91595 13.4339 8.86814 13.4585C8.69886 13.5547 8.5076 13.6055 8.31289 13.606C8.11872 13.6062 7.92788 13.5555 7.75949 13.4588C7.5911 13.3621 7.45105 13.2229 7.35337 13.055C7.25706 12.8855 7.20623 12.6939 7.20581 12.4989C7.20719 12.2918 7.26656 12.0892 7.37718 11.9141C7.48779 11.739 7.64524 11.5984 7.83168 11.5082C8.01812 11.418 8.2261 11.3818 8.43205 11.4038C8.638 11.4257 8.83368 11.5049 8.99693 11.6324V9.00028H11.635C11.503 8.83759 11.4198 8.64082 11.395 8.43278C11.3702 8.22474 11.4049 8.01394 11.495 7.8248C11.5851 7.63566 11.727 7.47592 11.9041 7.36408C12.0813 7.25224 12.2865 7.19287 12.496 7.19287C12.7055 7.19287 12.9107 7.25224 13.0879 7.36408C13.2651 7.47592 13.4069 7.63566 13.497 7.8248C13.5871 8.01394 13.6218 8.22474 13.597 8.43278C13.5723 8.64082 13.489 8.83759 13.357 9.00028H16.0002Z" stroke="currentColor" stroke-width="0.75" stroke-miterlimit="10"/>
</svg>
