<svg width="18" height="18" viewBox="0 0 18 18" fill="none" xmlns="http://www.w3.org/2000/svg">
<path d="M5.46056 12.3838C5.37913 12.3842 5.3012 12.4169 5.24384 12.4747C5.18649 12.5325 5.1544 12.6107 5.15462 12.6921V14.2018H4.61259C4.57224 14.2019 4.53231 14.21 4.49508 14.2255C4.45785 14.2411 4.42406 14.2638 4.39564 14.2925C4.36722 14.3211 4.34473 14.3551 4.32946 14.3925C4.31419 14.4298 4.30643 14.4698 4.30664 14.5101V16.3281C4.30686 16.4092 4.33916 16.4869 4.39649 16.5442C4.45382 16.6016 4.53151 16.6339 4.61259 16.6341H12.9526C12.9929 16.6343 13.0329 16.6265 13.0703 16.6113C13.1076 16.596 13.1416 16.5735 13.1702 16.5451C13.1989 16.5167 13.2216 16.4829 13.2372 16.4456C13.2528 16.4084 13.2608 16.3685 13.2609 16.3281V14.5101C13.2612 14.4287 13.2291 14.3505 13.1717 14.2927C13.1144 14.2349 13.0364 14.2022 12.955 14.2018H12.4138V12.6921C12.414 12.6107 12.3819 12.5325 12.3245 12.4747C12.2672 12.4169 12.1893 12.3842 12.1078 12.3838H5.46056Z" stroke="currentColor" stroke-width="0.75" stroke-miterlimit="10"/>
<path d="M5.91772 14.1216H11.6632" stroke="currentColor" stroke-width="0.75" stroke-miterlimit="10"/>
<path d="M8.79102 11.7193V1.36377" stroke="currentColor" stroke-width="0.75" stroke-miterlimit="10"/>
<path d="M3.34912 2.81445H14.2322" stroke="currentColor" stroke-width="0.75" stroke-miterlimit="10"/>
<path d="M3.75103 3.45264L2.09203 6.53779C1.69615 7.27494 2.63727 8.02494 3.95901 8.02494C5.33937 8.02494 6.28772 7.21231 5.77942 6.4615L3.75103 3.45264Z" stroke="currentColor" stroke-width="0.75" stroke-miterlimit="10"/>
<path d="M13.8331 3.45264L12.1741 6.53779C11.7782 7.27494 12.7193 8.02494 14.041 8.02494C15.4206 8.02494 16.3698 7.21231 15.8615 6.4615L13.8331 3.45264Z" stroke="currentColor" stroke-width="0.75" stroke-miterlimit="10"/>
</svg>
