<svg width="24" height="30" viewBox="0 0 24 30" fill="#766226" xmlns="http://www.w3.org/2000/svg">
  <g clip-path="url(#clip0_790_6551)">
    <path d="M15.3787 26.9306L20.6435 21.4186H15.3787V26.9306ZM12.2577 9.46712H11.3096C11.2152 8.3194 11.0172 7.59088 11.0172 6.44512C11.0172 6.02227 11.3613 5.67949 11.7858 5.67949C12.2104 5.67949 12.5543 6.02227 12.5543 6.44512C12.5543 6.69634 12.2577 9.46712 12.2577 9.46712ZM11.3113 9.98617H12.2604V10.8221H11.3113V9.98617ZM11.7856 3.49441C12.1033 3.49441 12.4148 3.52591 12.7168 3.58523C13.0259 3.64627 13.3249 3.73734 13.6105 3.85501C13.9022 3.97537 14.1791 4.12308 14.438 4.29545C14.6985 4.46879 14.9412 4.66752 15.1618 4.88774C15.3826 5.10746 15.5824 5.34941 15.7567 5.60918C15.9293 5.86626 16.0778 6.14214 16.1984 6.43243C16.3165 6.71734 16.4085 7.01544 16.4695 7.32281C16.5293 7.62335 16.5609 7.93366 16.5609 8.25031C16.5609 8.56696 16.5293 8.87727 16.4695 9.17805C16.4082 9.48592 16.3165 9.78426 16.1984 10.0682L16.1969 10.0714C16.0768 10.3604 15.9285 10.6353 15.7569 10.891C15.5824 11.1515 15.3829 11.3934 15.162 11.6131C14.9417 11.8329 14.6988 12.0313 14.438 12.2049C14.1791 12.3768 13.9022 12.525 13.6107 12.6454L13.6075 12.6466C13.3229 12.7638 13.0244 12.8548 12.7168 12.9156C12.4148 12.9752 12.103 13.0067 11.7853 13.0067C11.4674 13.0067 11.1561 12.9752 10.8542 12.9156C10.5453 12.8546 10.2465 12.7633 9.96047 12.6456C9.66878 12.5252 9.3918 12.3771 9.13296 12.2052C8.87216 12.0316 8.62925 11.8331 8.4089 11.6134C8.18829 11.3936 7.98852 11.1515 7.81425 10.8912C7.64169 10.6344 7.49339 10.3585 7.37304 10.0684C7.25441 9.78426 7.16298 9.48616 7.1017 9.1783C7.04189 8.87751 7.01027 8.56721 7.01027 8.25056C7.01027 7.9339 7.04189 7.62384 7.1017 7.32306C7.16273 7.01544 7.25465 6.71734 7.3728 6.43267C7.49339 6.14238 7.64193 5.8665 7.81449 5.60942C7.98877 5.34965 8.18829 5.10771 8.40914 4.88798C8.62999 4.66776 8.8729 4.46903 9.13321 4.29569C9.39205 4.12332 9.66903 3.97537 9.96047 3.85526L9.96341 3.85404C10.2482 3.73709 10.5468 3.64603 10.8544 3.58548C11.1564 3.52591 11.4677 3.49441 11.7856 3.49441ZM9.14497 5.62041C5.72538 9.02888 10.8968 14.3939 14.4267 10.8807C17.9458 7.37262 12.5798 2.20412 9.14497 5.62041ZM4.641 21.9799H9.35332V23.3293H4.641V21.9799ZM4.641 18.5509H11.3297V19.9003H4.641V18.5509ZM4.641 15.1229H18.9304V16.4723H4.641V15.1229ZM23.5714 20.7145C23.5714 21.1127 23.3025 21.457 22.9334 21.5566L15.1787 29.6787C15.0174 29.8779 14.7716 30 14.5024 30H1.5756C1.13758 30 0.745638 29.824 0.461305 29.5408C0.176727 29.2576 0 28.8674 0 28.4307V1.56935C0 1.13307 0.176728 0.742682 0.46106 0.459476C0.745638 0.176027 1.14517 0 1.5756 0H21.9961C22.4265 0 22.8263 0.176027 23.1106 0.459232C23.3949 0.742438 23.5717 1.13307 23.5717 1.5691L23.5714 20.7145ZM21.8115 19.6659V1.75294H1.76017V28.2546H13.619V20.5461C13.619 20.0639 14.011 19.6659 14.5027 19.6659H21.8115Z" fill="brown"/>
  </g>
  <defs>
    <clipPath id="clip0_790_6551">
      <rect width="23.5714" height="30" fill="white"/>
    </clipPath>
  </defs>
</svg>
