<svg width="444" height="444" viewBox="0 0 444 444"  fill="#505050" xmlns="http://www.w3.org/2000/svg">
<g clip-path="url(#clip0_1531_5276)">
<path d="M408.459 247.079C410.99 234.194 412.33 220.888 412.33 207.273C412.33 93.5935 319.845 1.1084 206.165 1.1084C92.4851 1.1084 0 93.5956 0 207.276C0 320.955 92.4851 413.441 206.165 413.441C221.062 413.441 235.589 411.839 249.597 408.823C270.2 429.829 298.871 442.892 330.548 442.892C393.107 442.892 444.002 391.997 444.002 329.438C444 297.028 430.32 267.774 408.459 247.079ZM330.546 417.367C282.06 417.367 242.614 377.921 242.614 329.436C242.614 280.95 282.06 241.504 330.546 241.504C379.031 241.504 418.477 280.95 418.477 329.436C418.477 377.921 379.031 417.367 330.546 417.367ZM26.0251 220.037H90.2922C91.5408 243.55 96.137 266.436 103.794 288.099H44.6846C34.2626 267.359 27.7309 244.359 26.0251 220.037ZM44.6846 126.452H104.238C96.3348 148.332 91.562 171.273 90.2901 194.514H26.0251C27.7309 170.19 34.2626 147.19 44.6846 126.452ZM206.263 30.4578C232.581 49.3449 253.925 73.4856 269.279 100.927H143.929C159.356 73.6281 180.536 49.3641 206.263 30.4578ZM281.443 126.452C290.004 147.924 295.173 170.863 296.521 194.514H115.832C117.264 171.154 122.675 148.143 131.54 126.452H281.443ZM386.305 194.514H322.063C320.866 171.016 316.319 148.13 308.708 126.452H367.643C378.065 147.19 384.597 170.19 386.305 194.514ZM115.832 220.037H296.476C296.451 220.441 296.411 220.843 296.383 221.247C263.688 231.595 237.378 256.391 224.922 288.099H131.085C122.466 266.642 117.238 243.706 115.832 220.037ZM218.218 313.622C217.493 318.795 217.093 324.067 217.093 329.438C217.093 343.584 219.718 357.122 224.469 369.622C218.867 374.741 213.003 379.597 206.863 384.117C180.34 365.264 158.826 341.117 143.338 313.622H218.218ZM360.544 220.037H386.305C386.067 223.423 385.735 226.782 385.312 230.117C377.563 225.824 369.26 222.43 360.544 220.037ZM352.057 100.929H298.057C285.506 75.0807 268.378 51.5187 247.291 31.4128C290.013 41.403 326.943 66.5688 352.057 100.929ZM165.96 31.2001C145.044 51.4102 127.835 75.1254 115.116 100.929H60.2707C85.5662 66.3221 122.847 41.0414 165.96 31.2001ZM60.2707 313.622H114.518C127.192 339.568 144.495 363.192 165.79 383.313C122.747 373.442 85.5322 348.182 60.2707 313.622Z"  fill="#505050" />
<path fill-rule="evenodd" clip-rule="evenodd" d="M349.332 329.636L385 365.932V383H368.117V370.159H354.13V356.114H340.754L336.884 343.455C330.728 347.591 323.237 350 315.203 350C294.11 350 277 333.432 277 313C277 292.568 294.11 276 315.203 276C336.296 276 353.406 292.568 353.406 313C353.406 318.977 351.935 324.636 349.332 329.636ZM309.703 301.159C313.46 301.159 316.516 304.227 316.516 308C316.516 311.773 313.46 314.841 309.703 314.841C305.924 314.841 302.891 311.773 302.891 308C302.891 304.205 305.946 301.159 309.703 301.159Z" fill="#505050"/>
</g>
<defs>
<clipPath id="clip0_1531_5276">
<rect width="444" height="444"/>
</clipPath>
</defs>
</svg>
